<?xml version="1.0" standalone="no"?>
<!DOCTYPE svg PUBLIC "-//W3C//DTD SVG 1.1//EN" "http://www.w3.org/Graphics/SVG/1.1/DTD/svg11.dtd" >
<svg>
<metadata>
Created by FontForge 20090622 at Fri Jun  3 07:53:54 2016
 By deploy user
Copyright (c) 2013 by Brittney Murphy. All rights reserved.
</metadata>
<defs>
<font id="FISHfingers" horiz-adv-x="268" >
  <font-face 
    font-family="FISHfingers"
    font-weight="400"
    font-stretch="normal"
    units-per-em="1000"
    panose-1="2 0 0 0 0 0 0 0 0 0"
    ascent="750"
    descent="-250"
    x-height="664"
    cap-height="669"
    bbox="-55.9697 -205.383 877.8 886.667"
    underline-thickness="50"
    underline-position="-50"
    unicode-range="U+0020-U+FB06"
  />
<missing-glyph horiz-adv-x="206" 
 />
    <glyph glyph-name=".notdef" horiz-adv-x="206" 
 />
    <glyph glyph-name="T" unicode="T" horiz-adv-x="317" 
d="M12 659q2 2 22 4t48.5 4t62 3.5t62 2t49 0t23.5 -2.5q9 -7 14 -21t-8 -23q-7 -5 -19.5 -5.5t-26.5 -1t-26.5 -2.5t-19.5 -9q-3 -3 -5 -29.5t-2.5 -67t0 -92l1 -105l1 -105t0.5 -92.5t-1 -67.5t-3 -30.5q-9 -16 -25 -15t-25 9q-2 2 -2.5 28.5t0.5 68t3 94.5l4 108t3.5 108
t1.5 94.5t-1.5 67.5t-5.5 28q-8 3 -26.5 2t-38.5 -2.5t-37 -2.5t-23 4q-11 9 -9 25.5t9 22.5z" />
    <glyph glyph-name="N" unicode="N" horiz-adv-x="366" 
d="M19 661q4 4 12.5 9.5t18 8.5t18 1t14.5 -12q3 -5 12.5 -32l24 -68l31.5 -91.5l35 -102l35 -100.5l31 -87t23.5 -61t11.5 -22t3 25.5t0.5 64t-1.5 90.5t-2.5 104t-2.5 104t-2 91.5t-1 65.5t1 27q4 7 14 12.5t26 -7.5q4 -3 6.5 -32.5t4 -76t2 -104.5t0.5 -118.5
t-1.5 -118.5t-3 -104.5t-3.5 -76t-4 -32.5q-9 -14 -19 -15.5t-26 9.5q-4 3 -15 29t-26 66l-33.5 90.5l-37 103l-36.5 101.5l-32.5 87.5t-24 61t-11.5 20.5q-3 -2 -3 -41t2 -96.5t5 -124.5l5.5 -126.5t3.5 -101t0 -48.5q-5 -20 -18 -19t-22 12q-2 3 -4.5 31t-4.5 72.5
t-4 100.5t-3.5 114.5t-2 114.5t-0.5 100t1 72t3 30z" />
    <glyph glyph-name="E" unicode="E" horiz-adv-x="308" 
d="M17 670q8 7 40 9.5t69 1.5t67.5 -4t35.5 -6q3 -2 6 -6.5t4.5 -10t0 -10.5t-8.5 -7t-29 -3t-47 -2t-47.5 -3.5t-30.5 -6.5q-5 -3 -9 -30.5t-7 -67t-4 -85t-1 -85t2 -66.5t6 -29q6 -3 31 -1t54 5t53.5 3.5t28.5 -6.5q8 -12 5 -26.5t-14 -19.5q-6 -2 -29.5 -1t-50 1.5
t-49 -1.5t-25.5 -9q-3 -8 -4.5 -27t-0.5 -39.5t4.5 -37.5t9.5 -20t34 -4.5t60 -3t59 -4t33 -6.5q6 -5 9 -12.5t3.5 -15t-2 -14t-7.5 -8.5q-4 -1 -21 -2.5t-41 -2.5t-51.5 -1.5t-52 0t-42.5 2t-23 4.5q-4 2 -7.5 31t-6.5 74.5t-6 103t-4.5 117.5t-2.5 118t0 104.5t3 76
t6 33.5z" />
    <glyph glyph-name="P" unicode="P" horiz-adv-x="326" 
d="M13 654q-1 9 3 14t10.5 7.5t14 3.5t15.5 3q5 1 25.5 1.5t48.5 -5t59.5 -19.5t57 -40.5t41.5 -69t14 -105.5q-3 -79 -22 -128.5t-47 -77t-62 -38.5t-67 -14q-17 -2 -27 -3.5t-15 -7.5q-3 -3 -4 -25.5t-2 -49.5t-2 -51t-4 -30q-5 -13 -18 -15.5t-18 8.5q-3 6 -4.5 25t-2 57
t0.5 97t3 145l2 106.5t1 96.5v75t-1 40zM54 606q0 -3 0.5 -29.5t1 -65t1 -82.5t1.5 -82t1.5 -64t0.5 -28q0 -3 0.5 -8t2 -9t5.5 -7t12 -2q5 0 20.5 2t35 8t41.5 19t40 35.5t30.5 57t12.5 83.5t-11 82.5t-29.5 54t-40 31t-42 15t-37 4.5h-22.5q-20 0 -22 -3.5t-2 -11.5z" />
    <glyph glyph-name="A" unicode="A" horiz-adv-x="401" 
d="M220 676q6 0 12.5 -1.5t12 -6.5t9.5 -15t4 -28q0 -9 5 -37t13 -67.5l18.5 -87.5l21.5 -97l22 -95.5l19.5 -83t13.5 -60t6 -26.5q1 -6 2.5 -12.5t0.5 -13t-4 -12.5t-11 -9t-15 -0.5t-13 8.5t-10.5 14t-6.5 16q-1 3 -3 15.5l-5 31l-7 42.5l-8 49q0 1 -9 1t-23 -0.5
t-32 -2.5t-36 -3q-38 -3 -68.5 -6t-31.5 -8l-18 -70.5t-7 -24.5l-8.5 -24.5t-13.5 -29.5t-18.5 -23t-22.5 -6q-8 2 -10 11.5t0.5 24.5t8 33t13.5 37q4 9 18 50l33 97l40 119l39.5 117.5l30.5 92.5t14 43q5 16 9 32t15 16zM116 244q-2 -3 5 -4.5t19 -1t28 1.5t33 3
q35 3 61 5.5t24 6.5l-18.5 100.5t-18.5 88.5t-17 63.5t-13 24.5q-6 0 -17.5 -27t-26 -68.5t-30 -92.5z" />
    <glyph glyph-name="V" unicode="V" horiz-adv-x="395" 
d="M3 646q9 20 15 24.5t15 -6.5q2 -3 9.5 -27.5l18.5 -62l24 -85l27 -97l27 -96l24 -83.5t18.5 -59t9.5 -22t9.5 23t18 60l23.5 85l26.5 97.5l27 97.5t25 85t20 59.5t12.5 21.5q8 -1 12 -1t6 -1t4 -4.5t5 -11.5q2 -4 -4 -32.5t-17 -73t-26.5 -100l-32 -112.5l-33.5 -111.5
t-32 -97t-27 -68.5t-18 -27q-5 -1 -16.5 25t-26 68.5t-31.5 97.5l-33.5 113l-31.5 114l-26.5 101t-17.5 73.5t-4 32.5z" />
    <glyph glyph-name="C" unicode="C" horiz-adv-x="292" 
d="M232 657q9 -5 13 -12t3 -14t-6.5 -12.5t-17.5 -7.5t-25 0t-27 3t-28 -1.5t-26 -12.5q-25 -21 -40 -61.5t-21 -90t-5 -104.5t8.5 -104.5t19.5 -89t28 -59.5q15 -19 35.5 -20t41 4t37 11t24.5 1q15 -11 21 -22t-13 -23q-10 -6 -30 -13t-45 -10t-51.5 1t-48.5 21t-38 59
t-25 97.5t-11 118.5t4 121.5t20 107t37 75.5q26 30 53 40.5t50 10.5t40 -5.5t23 -8.5z" />
    <glyph glyph-name="B" unicode="B" horiz-adv-x="332" 
d="M20 663q9 6 35 9.5t58.5 2t65 -9.5t53.5 -23q31 -23 48 -59.5t21.5 -78.5t-3 -85t-24 -79.5t-42.5 -62.5t-58 -32q1 2 15.5 -3t32 -17t33 -30t18.5 -41q3 -27 1 -45.5t-8.5 -30.5t-16.5 -20.5t-21 -16.5q-15 -11 -46.5 -17t-64 -8t-59 -1.5t-32.5 3.5q-4 2 -6.5 30
t-4.5 73.5t-3 102.5t-1.5 116.5t0 116.5t1.5 102.5t3 73.5t5 30zM66 251q6 -3 19 0.5t27.5 10t28.5 15t22 14.5q44 32 68 72.5t28.5 82.5t-9.5 81t-45 68q-13 12 -37 19t-47 9t-40.5 0.5t-17.5 -7.5q1 -19 0.5 -53t-1.5 -74l-2 -81.5t-1 -76t1.5 -56.5t5.5 -24zM73 66
q3 -4 29.5 -7.5t56.5 1.5t52 24t16 60q-3 22 -28 33t-54 14t-54 1.5t-29 -4.5q0 -19 0.5 -40t2 -39t3.5 -30t5 -13z" />
    <glyph glyph-name="space" unicode=" " horiz-adv-x="206" 
 />
    <glyph glyph-name="D" unicode="D" horiz-adv-x="354" 
d="M26 623q-2 27 8.5 35t24.5 8t41 -6.5t76 -29.5q46 -21 75 -61t43.5 -90t16.5 -106t-6.5 -109.5t-26 -99.5t-40.5 -77q-22 -29 -52 -45.5t-59 -25.5t-52.5 -11t-30.5 -1q-15 2 -25 7.5t-11 24.5q0 4 1.5 46.5t3.5 105l4.5 134.5t4.5 136l3.5 110t0.5 55zM83 599
q-3 -2 -6.5 -41.5t-6 -97.5t-5 -125t-3 -125.5t0 -99t3.5 -44.5q4 -6 17 -6t31 5.5t37.5 17t37.5 28.5q29 27 47.5 79.5t23.5 113t-6.5 122t-42.5 108.5q-14 21 -34 35.5t-39.5 22t-34.5 9t-20 -1.5z" />
    <glyph glyph-name="F" unicode="F" horiz-adv-x="259" 
d="M17 670q5 5 22 7t39.5 1.5t48 -2t48 -4t38.5 -5t21 -3.5q5 -2 8 -12t-11 -15q-7 -2 -29 -3t-47 -2t-47.5 -3.5t-30.5 -6.5q-5 -3 -8.5 -30.5t-5 -68t-2 -86.5t1 -85.5t4 -67t6.5 -29.5q6 -3 28 -1t46.5 4.5t44 2.5t21.5 -8q2 -11 3.5 -24t-9.5 -18q-6 -2 -25.5 -1
t-41.5 1.5t-40.5 -1t-21.5 -8.5q-8 -18 -8 -45t3 -55t6 -52.5t1 -37.5q-11 -5 -20.5 -7t-24.5 7q-4 2 -7.5 31t-6.5 74.5t-6 103t-4.5 117.5t-2.5 118t0 104.5t3 76t6 33.5z" />
    <glyph glyph-name="G" unicode="G" horiz-adv-x="349" 
d="M271 661q13 -14 9 -20.5t-13 -12.5q-10 -6 -23 -2t-28.5 8t-32 3t-33.5 -17q-27 -25 -47 -67t-32 -93t-15.5 -106t2.5 -106t22.5 -93t43.5 -68q19 -17 38 -23t35.5 -5.5t28.5 5t17 7.5q12 8 18.5 25t8.5 35.5t0 34t-7 19.5t-25.5 5t-43 1t-41.5 0.5t-21 3.5q-4 7 -8.5 14
t6.5 15q6 4 28.5 8.5t49.5 7.5t52 2.5t34 -7.5q6 -5 10.5 -20t5.5 -36.5t-0.5 -45.5t-6.5 -46t-14.5 -39.5t-23.5 -24.5q-32 -17 -73.5 -17t-83.5 21q-38 19 -60.5 66t-32.5 108t-7.5 130t16 132t37 114.5t55.5 76.5q26 21 51 27t46 4t36.5 -9.5t21.5 -14.5z" />
    <glyph glyph-name="g" unicode="g" horiz-adv-x="406" 
d="M76 8q-30 6 -38.5 24t-5.5 39t11 41.5t10 30.5q-18 16 -19.5 30.5t3 26t11 18.5t4.5 9q-18 19 -29.5 53t-17 75t-5.5 85t5.5 83t16 68t25.5 41q21 17 56.5 28t75 13.5t77 -6t61.5 -31.5q3 -3 8.5 2t11 12t10 13.5t6.5 6.5q3 0 9.5 -4t13.5 -10t12.5 -13t5.5 -11
q0 -3 -7 -8t-15 -10l-15.5 -10t-8.5 -9q-1 -2 1 -22l5 -50.5t5 -67.5t1 -74t-7.5 -69.5t-20.5 -53.5q-18 -26 -47 -39.5t-61 -18.5t-62 -4.5t-50 2.5q-15 -18 -8 -24.5t27.5 -6.5t49 3.5t56.5 4.5t51 -2.5t32 -17.5q7 -12 11 -32t3.5 -41t-6 -38t-18.5 -22q-23 -9 -56 -13.5
t-67.5 -5.5t-64.5 0.5t-46 4.5zM87 593q-14 -17 -22.5 -45t-12.5 -61t-3 -68t6 -65.5t13.5 -54.5t21.5 -34q17 -14 45 -18.5t58.5 0t58 17.5t44.5 34q5 7 9.5 29t6.5 52t1.5 64.5t-4 65.5t-11 55.5t-18.5 34.5q-17 15 -45 21.5t-57 5t-54 -9.5t-37 -23zM98 112
q-15 -13 -17.5 -32.5t11.5 -24.5q12 -4 38 -5t54.5 0.5t53 5t33.5 8.5q9 6 13 14.5t4.5 17.5t-2.5 15.5t-9 8.5q-8 2 -34 4t-55.5 1.5t-55.5 -3.5t-34 -10z" />
    <glyph glyph-name="O" unicode="O" horiz-adv-x="410" 
d="M330 73q-22 -33 -62.5 -48t-83.5 -16.5t-80.5 8t-53.5 25.5q-18 19 -29 67t-15 109.5t-2 129.5t9 127t18 102t26 55q21 17 55.5 27t73.5 11.5t76.5 -6.5t64.5 -28q10 -7 19.5 -43.5t16.5 -89t10 -115t0.5 -123t-13 -111.5t-30.5 -81zM97 593q-14 -17 -23.5 -58.5t-15 -95
t-6 -112.5t3 -110.5t11.5 -89t21 -47.5q17 -14 46 -19.5t60 -2t59 15.5t44 33q9 12 15.5 50t10 89t3.5 108.5t-4 108t-12 88t-20 48.5q-17 15 -45 21.5t-57 5t-54 -9.5t-37 -23z" />
    <glyph glyph-name="i" unicode="i" horiz-adv-x="113" 
d="M14 578q-2 -2 -2.5 -36.5t-0.5 -85t0.5 -109.5t1 -111t1 -88t0.5 -41q0 -8 -1 -20.5t-1.5 -27t0 -28t2.5 -22.5q5 -18 18 -14.5t18 14.5q1 4 3 36.5t3.5 81t3 104.5l3 107t2.5 89t2 50q1 18 3 34t2.5 29.5t-0.5 23t-5 14.5q-5 4 -13 6t-16 2t-15 -2.5t-9 -5.5zM13 660
q1 6 11 9.5t21 4t20.5 -3t9.5 -10.5v-11t-0.5 -7t-1.5 -7t-2 -10q-2 -6 -11 -9t-19.5 -3t-19 2t-8.5 7q0 9 -1 17t1 21z" />
    <glyph glyph-name="exclam" unicode="!" horiz-adv-x="107" 
d="M19 666q2 3 9 5.5t15 2.5t16 -2t13 -6q4 -5 5 -14.5t0.5 -23t-2.5 -29.5t-3 -34q-1 -12 -2 -50t-2.5 -89l-3 -107t-3 -104.5t-3.5 -81t-3 -36.5q-5 -11 -18 -14.5t-18 14.5q-2 9 -2.5 22.5t0 28t1.5 27t1 20.5q0 5 -0.5 41t-1 88t-1 111t-0.5 109.5t0.5 85t2.5 36.5z
M16 49q17 19 38 1q8 -7 12 -15.5t-1 -20.5q-3 -6 -12 -10t-19 -4t-18.5 4t-9.5 14q-1 6 1 14.5t9 16.5z" />
    <glyph glyph-name="period" unicode="." horiz-adv-x="91" 
d="M16 49q17 19 38 1q8 -7 12 -15.5t-1 -20.5q-3 -6 -12 -10t-19 -4t-18.5 4t-9.5 14q-1 6 1 14.5t9 16.5z" />
    <glyph glyph-name="colon" unicode=":" horiz-adv-x="91" 
d="M16 359q17 19 38 1q8 -7 12 -15.5t-1 -20.5q-3 -6 -12 -10t-19 -4t-18.5 4t-9.5 14q-1 6 1 14.5t9 16.5zM16 159q17 19 38 1q8 -7 12 -15.5t-1 -20.5q-3 -6 -12 -10t-19 -4t-18.5 4t-9.5 14q-1 6 1 14.5t9 16.5z" />
    <glyph glyph-name="hyphen" unicode="-" horiz-adv-x="275" 
d="M8 227q2 4 20 9.5t44 11t55.5 10t55 6.5t43 1t19.5 -7q13 -37 -5 -44q-3 -1 -20.5 -3t-42.5 -4t-53 -3.5t-52 -2.5t-40 -1t-16 2q0 3 -2.5 5t-5 4.5t-3.5 6t3 9.5z" />
    <glyph glyph-name="endash" unicode="&#x2013;" horiz-adv-x="339" 
d="M8 227q2 4 24.5 9.5t55 11t69.5 10t69.5 6.5t54.5 1t24 -7q13 -37 -5 -44q-3 -1 -25 -3t-53.5 -4t-67.5 -3.5t-66.5 -2.5t-51 -1t-20.5 2q0 3 -2.5 5t-5 4.5t-3.5 6t3 9.5z" />
    <glyph glyph-name="emdash" unicode="&#x2014;" horiz-adv-x="399" 
d="M8 227q2 4 28.5 9.5t64.5 11t81.5 10t81 6.5t63.5 1t28 -7q13 -37 -5 -44q-3 -1 -28.5 -3t-63 -4t-80 -3.5t-78.5 -2.5t-60 -1t-24 2q0 3 -2.5 5t-5 4.5t-3.5 6t3 9.5z" />
    <glyph glyph-name="H" unicode="H" horiz-adv-x="345" 
d="M254 635q3 12 12 17.5t19 6.5t17.5 -2t9.5 -9q1 -4 0.5 -38t-2.5 -84.5l-4.5 -109.5t-4.5 -112.5t-4 -94.5t-2 -55q-2 -42 0 -70t2 -41q0 -6 -8 -13t-17 -9t-15.5 4.5t-4.5 26.5q1 6 1.5 30.5t0.5 52t-0.5 50.5t-1.5 27q1 2 -13 2t-36.5 -1t-49 -3t-48.5 -4t-36 -4
t-12 -3q-2 -2 -2 -15t0.5 -31.5t2 -39.5t2 -39.5t1 -31t0.5 -14.5q-2 -4 -10 -7.5t-17 -5t-17.5 -0.5t-9.5 7q-1 4 -1 33.5t1 72t2 92.5t2 94.5t2 77.5t1 42q0 14 -1.5 46t-3.5 67t-3.5 65t-0.5 40t9 15t17.5 6t17.5 -2.5t8 -10.5v-27.5t-0.5 -55.5t-0.5 -72.5t-0.5 -76
t-0.5 -67v-45.5v-30.5t1 -40.5q0 -1 15 0.5t37.5 3.5t48.5 5t47.5 6t35.5 6t12 4l-2 119.5t-1 112t1 87.5t4 46z" />
    <glyph glyph-name="slash" unicode="/" horiz-adv-x="236" 
d="M175 669q3 3 10 3.5t15.5 -1.5t15.5 -6t10 -9q3 -6 1.5 -15.5t-5.5 -22.5t-10 -28.5l-12 -32.5q-4 -11 -16.5 -53.5l-29 -100l-35.5 -121.5l-35.5 -119l-28 -92.5t-14.5 -40.5q-3 -5 -9 -7.5t-11.5 -2t-9.5 5t-4 13.5t3 22.5t7.5 27l8.5 25.5t6 19q1 4 7.5 28.5
l16.5 62.5l22 85.5l24.5 96.5l25 95.5l22.5 83.5l16.5 60t8.5 24z" />
    <glyph glyph-name="one" unicode="1" horiz-adv-x="122" 
d="M86 659v-44.5v-78.5v-101t0.5 -111t0.5 -108.5v-93.5t-0.5 -66.5t-1.5 -27.5q-2 -4 -8.5 -7.5t-14.5 -5t-14.5 -0.5t-7.5 7q-2 10 -3 48.5t-0.5 92.5t1 118t1.5 125t1 113.5t-1 84.5q0 7 -4.5 8t-10 0l-10.5 -2t-8 3q-6 9 6 23.5t28.5 25.5t31 13t14.5 -16z" />
    <glyph glyph-name="dotlessi" unicode="&#x131;" 
d="M9 26q1 2 15.5 6t30.5 8t28 7.5t10 6.5q0 32 1.5 85t4 114t4.5 123.5t2.5 114t-1 84.5t-5.5 35q-8 3 -20.5 2t-25.5 -2.5t-24 -2.5t-17 4q-11 9 -9 25.5t9 22.5q2 2 18 4t39 4t49 3.5t49 2t39.5 0t19.5 -2.5q9 -7 14 -21t-8 -23q-7 -5 -17 -5.5t-21.5 -1t-21.5 -2.5
t-17 -9q-4 -4 -6 -37t-2 -83t0.5 -110.5l1 -120t1 -112t-0.5 -85.5q0 -3 12.5 -2.5t28.5 2t29.5 1.5t14.5 -4q5 -18 4 -29.5t-9 -14.5q-3 -1 -19 -2.5t-39 -3t-49 -3t-49 -2.5t-38.5 -1.5t-17.5 0.5q-2 0 -4.5 2t-4.5 5t-2.5 7.5t3.5 10.5z" />
    <glyph glyph-name="J" unicode="J" horiz-adv-x="316" 
d="M224 654q1 7 10 12t18.5 6t17.5 -3.5t7 -14.5q-1 -7 -1 -41.5t0.5 -84t0.5 -107t-0.5 -109.5t-1 -92.5t-2.5 -55.5q-3 -23 -9 -51t-20 -52t-39.5 -41.5t-67.5 -19.5q-33 -2 -56 9.5t-37.5 30.5t-22.5 43t-11.5 46.5t-3.5 41.5t1 28q1 14 8.5 18t16.5 2t16 -9t7 -14
q0 -8 0.5 -32t6.5 -50.5t20 -47.5t42 -22q25 -1 42.5 8t29 25.5t17.5 38.5t8 48q8 99 9 185t-1 151t-4.5 105.5t-0.5 48.5z" />
    <glyph glyph-name="K" unicode="K" horiz-adv-x="328" 
d="M252 649q7 12 20 11t24 -9t16 -21t-4 -25q-2 -3 -19.5 -31l-41.5 -69l-52 -88l-52 -87.5l-39.5 -68.5t-15.5 -30q0 -4 13 -18t33 -33l43.5 -40.5l45 -40.5l37.5 -32.5t20 -16.5q7 -5 7.5 -15.5t-4 -20t-12.5 -15t-17 -1.5q-6 2 -21.5 17l-36.5 35.5l-44 44l-42.5 43.5
t-33.5 32.5t-17 11.5t-4 -14t-1.5 -31.5t0 -40.5t1.5 -41t1 -32v-14q-2 -6 -8 -10t-13 -4.5t-13 2.5t-8 12t-2.5 22.5t0 28t1.5 27t1 20.5v29.5t-0.5 64.5t-1 88l-1 99.5t-0.5 98.5t0.5 86.5t1 62t1.5 25.5q2 3 9 5.5t15 2.5t16 -2t13 -6q4 -5 5 -14.5t0.5 -23t-2.5 -29.5
t-3 -34q-1 -6 -2 -29.5t-3 -55.5l-4 -67t-3 -65t-1 -50.5t2 -21.5q3 -2 17 23.5l34.5 65l44 87l44.5 90l36.5 74t19.5 38.5z" />
    <glyph glyph-name="M" unicode="M" horiz-adv-x="544" 
d="M110 577q-2 -21 -6 -57.5t-9.5 -100.5l-13.5 -161t-17 -241q-2 -3 -10 -6t-17.5 -4t-17.5 1t-9 8q-2 12 1.5 38.5t5.5 54.5q1 7 3.5 32.5t6.5 62.5t9.5 83l11 93l10.5 92.5l9 82t7 60.5t4 29q1 12 11.5 17t23 4.5t23.5 -5t14 -11.5q6 -15 14.5 -45l19.5 -67.5l22 -78.5
l21.5 -77.5l18.5 -64.5t12 -40q3 -9 5.5 -10.5t4 0.5t2.5 5.5l1 3.5q4 11 12.5 38.5l19.5 63l22.5 76l22.5 78l20 67.5l14 46t17 22.5t25 4.5t23 -10.5t12 -20.5q0 -4 3 -38t6 -84.5t7 -109.5l8 -112.5t6 -94.5t3 -55q1 -42 4 -70t4 -41q0 -6 -7.5 -13.5t-16.5 -10
t-16.5 3.5t-6.5 26l-31 538l-6 6t-7 -8q-5 -18 -15.5 -52.5l-23 -76.5l-26 -86l-25.5 -81t-22 -61.5t-14 -26.5q-9 -5 -23.5 -4t-20.5 9q-2 3 -10 28l-19.5 63l-24.5 82.5l-25.5 86l-22.5 74.5t-16 47q-2 2 -5.5 4.5t-5.5 -6.5z" />
    <glyph glyph-name="W" unicode="W" horiz-adv-x="535" 
d="M396 91q2 21 6 58.5l10.5 102.5t14.5 163.5t17 242.5q1 3 9.5 6t18 4t17.5 -1t9 -8q2 -12 -1.5 -38.5t-5.5 -54.5q-1 -7 -3.5 -32.5t-6.5 -62.5t-9.5 -83l-11 -93l-10.5 -92.5l-9 -82t-7 -60.5t-4 -29q-2 -12 -12 -17t-22.5 -4.5t-23.5 5t-14 11.5q-5 15 -14 45l-20 67.5
l-22 78.5l-21.5 77.5l-18.5 64.5t-12 40q-3 9 -5.5 10.5t-4 -0.5t-2.5 -5.5l-1 -3.5q-4 -11 -12.5 -38.5l-19.5 -63l-22.5 -76l-22.5 -78l-20 -68t-14 -45.5q-5 -17 -17 -23t-25 -4t-23 10.5t-12 20.5q-1 4 -3.5 38l-6 84.5l-7.5 109.5t-7 112.5t-6 94.5t-3 55q-1 42 -4 70
t-4 41q0 6 7.5 13.5t16.5 10t16.5 -3.5t6.5 -26l33 -545l6 -6t7 8l15.5 52.5l22.5 78l25.5 88l25.5 83t21 62.5t14 27q9 5 23.5 4t20.5 -9q2 -3 10 -28.5t19 -64l24 -84l25 -88l22 -76t16 -47.5q2 -2 5.5 -4.5t5.5 6.5z" />
    <glyph glyph-name="q" unicode="q" horiz-adv-x="386" 
d="M280 633q22 -18 37.5 -55.5t24 -86t10 -104.5t-5.5 -111t-22 -104.5t-38 -86.5q-6 -6 -5 -11t4 -10q17 -24 26 -40.5t5 -20.5q-12 -14 -23 -18t-18 1q-4 3 -28 36q-8 10 -12.5 7.5t-7.5 -3.5q-15 -8 -35 -12.5t-42 -3t-44 10t-41 26.5q-28 26 -42.5 73t-18.5 103.5
t1 117.5t15 115t24.5 94.5t29.5 57.5q18 20 42.5 34.5t52 19.5t56 -1t55.5 -28zM252 126q17 33 28.5 77.5t17 93t5.5 96.5t-6 89.5t-18.5 71t-31.5 41.5q-35 22 -73.5 18.5t-66.5 -44.5q-9 -13 -19.5 -48.5t-19 -83.5t-12.5 -102t0 -104.5t18 -91t42 -60.5q13 -9 28.5 -12.5
t29.5 -3t23.5 3.5t9.5 8q2 1 -6 14.5t-21.5 33l-30 42l-30 41.5l-22.5 32t-8 14q3 1 3.5 4.5t1 6.5t3.5 5.5t10 2.5q4 0 17.5 -13t31.5 -34l39.5 -47l42.5 -52q5 -2 7 -3t7 4z" />
    <glyph glyph-name="Q" unicode="Q" horiz-adv-x="392" 
d="M280 633q22 -18 37.5 -55.5t24 -86t10 -104.5t-5.5 -111t-22 -104.5t-38 -86.5q-6 -6 -5 -11t4 -10q17 -24 26 -40.5t5 -20.5q-12 -14 -23 -18t-18 1q-4 3 -28 36q-8 10 -12.5 7.5t-7.5 -3.5q-15 -8 -35 -12.5t-42 -3t-44 10t-41 26.5q-28 26 -42.5 73t-18.5 103.5
t1 117.5t15 115t24.5 94.5t29.5 57.5q18 20 42.5 34.5t52 19.5t56 -1t55.5 -28zM252 126q17 33 28.5 77.5t17 93t5.5 96.5t-6 89.5t-18.5 71t-31.5 41.5q-35 22 -73.5 18.5t-66.5 -44.5q-9 -13 -19.5 -48.5t-19 -83.5t-12.5 -102t0 -104.5t18 -91t42 -60.5q20 -15 40 -16.5
t38 6t33 22.5t25 35z" />
    <glyph glyph-name="R" unicode="R" horiz-adv-x="326" 
d="M13 654q-1 9 3 14t10.5 7.5t14 3.5t15.5 3q5 1 25.5 1.5t48.5 -5t59.5 -19.5t57 -40.5t41.5 -69t14 -105.5q-3 -70 -18.5 -116t-39.5 -75t-53.5 -43.5t-58.5 -20.5q-7 -2 -5 -3.5t5 -4.5l49.5 -44.5l47 -40.5l37 -30.5t19.5 -15.5q7 -5 6.5 -15.5t-5.5 -20t-14 -15
t-18 -1.5q-6 2 -27 21.5l-48 46.5l-56 56.5l-51 50.5q-5 5 -7 4t-3 -2q-3 -3 -4 -25.5t-2 -49.5t-2 -51t-4 -30q-5 -13 -18 -15.5t-18 8.5q-3 6 -4.5 25t-2 57t0.5 97t3 145l2 106.5t1 96.5v75t-1 40zM54 606q0 -3 0.5 -29.5t1 -65t1 -82.5t1.5 -82t1.5 -64t0.5 -28
q0 -3 0.5 -8t2 -9t5.5 -7t12 -2q5 1 20.5 2.5t35 7.5t41.5 19t40 35.5t30 56.5t13 84q0 49 -11 82.5t-29.5 54t-40 31t-42 15t-37 4.5h-22.5q-20 0 -22 -3.5t-2 -11.5z" />
    <glyph glyph-name="U" unicode="U" horiz-adv-x="357" 
d="M271 654q1 7 10 12t18.5 6t17.5 -3.5t7 -14.5q-1 -7 -1 -41.5t0.5 -84t0.5 -107t-0.5 -109.5t-1 -92.5t-2.5 -55.5q-3 -23 -12 -51t-27 -52t-46.5 -41.5t-70.5 -19.5q-38 -2 -65 13t-45 39t-27.5 51.5t-12.5 51.5q-3 21 -4 64t-1.5 95t0.5 106.5t2 100.5t2 76t1 32
q1 14 8.5 18t16 2t15.5 -9t8 -14q0 -5 -1 -35.5l-2.5 -76t-3.5 -99.5t-2.5 -105t1 -92.5t5.5 -61.5q3 -17 10.5 -36t19 -36t27 -28.5t35.5 -11.5q25 -1 46 8t36 25.5t24 38.5t11 48q8 99 9 185t-1 151t-4.5 105.5t-0.5 48.5z" />
    <glyph glyph-name="X" unicode="X" horiz-adv-x="433" 
d="M75 35q8 11 24 40l32 61t28 58.5t13 31.5q0 3 -11.5 34.5t-29.5 76.5l-39.5 97.5l-40.5 98.5l-33 79t-17 39q-5 9 -0.5 20.5t13 18t18.5 5.5t17 -16q5 -10 17.5 -43l28 -77l33.5 -92.5l32.5 -89l25 -67.5t12.5 -27q3 -1 15 25l29 66l36.5 87.5l37.5 91l31.5 76t19.5 41.5
q8 14 19 16t19.5 -4t11.5 -17.5t-4 -24.5q-5 -9 -19.5 -42l-34 -77.5l-42 -94.5l-41.5 -92.5l-33 -71.5t-18 -31q-2 -2 5.5 -23t19.5 -49.5l24.5 -57.5l19.5 -45q7 -17 4.5 -31t-9 -21.5t-16 -6.5t-15.5 14t-15.5 39l-19 52l-17 45.5t-10.5 19.5t-8.5 -10.5t-13 -27.5
t-15.5 -38l-15.5 -39.5t-14 -33t-9.5 -18.5q-5 -7 -15.5 -6.5t-19.5 6t-13.5 15t3.5 20.5z" />
    <glyph glyph-name="S" unicode="S" horiz-adv-x="280" 
d="M253 601q5 -10 2 -18t-9.5 -12.5t-16 -4.5t-16.5 6q-8 6 -9 16.5t-6.5 21t-21 18.5t-50.5 8q-20 0 -34.5 -17.5t-23.5 -49t-13 -75t-3 -95.5q0 -35 14.5 -58.5t36 -42t46.5 -34t47 -33.5t37 -41.5t16 -57.5q2 -50 -16.5 -79t-51 -40t-77 -4.5t-94.5 29.5q-11 5 -11 14.5
t7 18t19 12t25 -3.5q14 -7 39.5 -15t50 -8t43.5 11t19 42t-14.5 52.5t-37 40t-49 36t-48.5 40t-37 53t-14 73.5q1 48 4.5 97.5t16 89.5t37 66t66.5 28q41 2 65.5 -10t38 -27.5t18 -29.5z" />
    <glyph glyph-name="Z" unicode="Z" horiz-adv-x="344" 
d="M42 621q-19 -2 -29 6.5t-12.5 20t2.5 20.5t17 8q8 -1 30 -1.5t51 -1t61.5 -1t61.5 -1t50 -1.5t28 -2q10 -2 13.5 -6.5t3 -11.5t-4 -15l-7.5 -17q-5 -10 -19.5 -46l-34.5 -86l-42 -107l-42.5 -109.5l-36.5 -94.5l-23 -61l-9.5 -28t-2.5 -14t7.5 -4t20.5 1q7 1 31 2
t51.5 2.5t53.5 2.5t37 2q15 1 20 -7.5t3 -19t-9 -19.5t-17 -10q-6 -1 -25 -1.5t-44 -2t-53 -2.5t-52 -1.5t-41 0t-21 1.5q-10 3 -17.5 19t-0.5 38q2 6 16 42l35 87.5l45.5 113l47 118.5l40.5 103.5t26 69.5q5 16 -1.5 17.5t-21.5 1.5q-20 1 -46 1t-52.5 -1t-50 -2.5
t-37.5 -2.5z" />
    <glyph glyph-name="s" unicode="s" horiz-adv-x="269" 
d="M242 584q1 -19 -7.5 -28t-19.5 -10t-20 6.5t-9 21.5t-9 31.5t-23.5 27.5t-33 8t-38.5 -26q-8 -10 -14.5 -36t-10.5 -60t-5 -71.5t1 -70.5t8 -58t16 -32q15 -11 33.5 -16.5t37.5 -10.5t37.5 -13.5t33.5 -25.5q15 -18 23 -46t5 -58t-18 -57.5t-46 -44.5q-26 -14 -55.5 -9
t-55 18t-44 28t-21.5 20t1.5 14.5t12 17t15.5 10t13 -6.5q4 -9 16 -19.5t27 -18t32.5 -10t33.5 4.5q20 9 29.5 25t10.5 34t-4.5 35.5t-14.5 29.5q-8 11 -23.5 16.5t-34 10.5t-38.5 12t-37 22q-14 12 -23 43.5t-13.5 73t-3.5 88t6 89t15.5 76t24.5 49.5q22 24 54 27.5
t61.5 -9.5t51 -39.5t23.5 -62.5z" />
    <glyph glyph-name="j" unicode="j" horiz-adv-x="316" 
d="M224 574q1 7 10 12t18.5 6t17.5 -3.5t7 -14.5q-1 -7 -1 -36t0.5 -69t0.5 -87t-0.5 -90.5t-1 -78t-2.5 -49.5q-3 -23 -9 -51t-20 -52t-39.5 -41.5t-67.5 -19.5q-33 -2 -56 9.5t-37.5 30.5t-22.5 43t-11.5 46.5t-3.5 41.5t1 28q1 14 8.5 18t16.5 2t16 -9t7 -14
q0 -8 0.5 -32t6.5 -50.5t20 -47.5t42 -22q25 -1 42.5 8t29 25.5t17.5 38.5t8 48q8 99 9 172.5t-1 123.5t-4.5 78t-0.5 36zM223 660q1 6 11 9.5t21 4t20.5 -3t9.5 -10.5v-11t-0.5 -7t-1.5 -7t-2 -10q-2 -6 -11 -9t-19.5 -3t-19 2t-8.5 7q0 9 -1 17t1 21z" />
    <glyph glyph-name="k" unicode="k" horiz-adv-x="328" 
d="M252 649q7 12 20 11t24 -9t16 -21t-4 -25q-2 -3 -19.5 -31l-41.5 -69l-52 -88l-52 -87.5l-39.5 -68.5t-15.5 -30q0 -4 13 -10.5t33 -14.5t43.5 -16.5l45 -16.5l37.5 -14t20 -9q7 -5 7.5 -15.5t-4 -20t-12.5 -15t-17 -1.5q-6 2 -21.5 9.5l-36.5 17l-44 20l-42.5 19.5
t-33.5 14t-17 4t-4 -14t-1.5 -31.5t0 -40.5t1.5 -41t1 -32v-14q-2 -6 -8 -10t-13 -4.5t-13 2.5t-8 12t-2.5 22.5t0 28t1.5 27t1 20.5v29.5t-0.5 64.5t-1 88l-1 99.5t-0.5 98.5t0.5 86.5t1 62t1.5 25.5q2 3 9 5.5t15 2.5t16 -2t13 -6q4 -5 5 -14.5t0.5 -23t-2.5 -29.5t-3 -34
q-1 -6 -2 -29.5t-3 -55.5l-4 -67t-3 -65t-1 -50.5t2 -21.5q3 -2 17 23.5l34.5 65l44 87l44.5 90l36.5 74t19.5 38.5z" />
    <glyph glyph-name="t" unicode="t" horiz-adv-x="260" 
d="M92 665q-1 10 8.5 16t21 7t21.5 -4.5t10 -18.5q0 -9 -1.5 -42t-4 -77.5t-4.5 -94.5t-3.5 -92.5t-1.5 -71t2 -29.5q3 -2 11.5 -2.5t19.5 0t23 1.5l23 2q10 1 15 -7t5.5 -18t-2.5 -19t-8 -9q-6 0 -19.5 0.5t-27.5 0.5t-25.5 -2t-13.5 -8q-2 -4 -3 -21t-0.5 -37.5t3 -39.5
t7.5 -26q11 -15 28.5 -16.5t34.5 -0.5q9 0 13 -8t4 -18t-5.5 -19t-15.5 -9h-25t-28.5 3.5t-28 13.5t-22.5 29t-11 44t-1.5 48t1.5 40t-2 20t-11 4.5t-18.5 1.5t-21.5 -0.5t-21 -0.5t-14 6.5t-4 14.5t4 15.5t11 9.5t18 1.5t22 -0.5t19.5 1t10.5 7q1 4 2.5 33.5t2 72.5
t1.5 92.5t1.5 93.5t0 75t-0.5 38z" />
    <glyph glyph-name="f" unicode="f" horiz-adv-x="264" 
d="M92 28q1 10 0.5 35.5t-1.5 54t-2.5 52t-3.5 29.5t-10.5 7t-19.5 1t-22 -0.5t-18 1.5t-11 9.5t-4 15.5t4 14.5t14 6.5t21 -0.5t21.5 -0.5t18.5 1.5t11 4.5q2 2 2 28t-0.5 64.5t-1 84.5t0.5 88t3.5 75t8.5 46q9 19 22.5 29t28 13.5t28.5 3.5h25q10 0 15.5 -9t5.5 -19
t-4 -18t-13 -8q-17 1 -34.5 -0.5t-28.5 -16.5q-4 -5 -6 -32.5t-3 -66.5t-1 -83.5v-82.5t1 -64t2 -29q2 -6 13.5 -8t25.5 -2t27.5 0.5t19.5 0.5q5 0 8 -9t2.5 -19t-5.5 -18t-15 -7l-23 2t-23 1.5t-19.5 0t-11.5 -2.5t-1.5 -24.5t4.5 -51t6.5 -56.5t3.5 -41t-10 -18.5
t-21.5 -4.5t-21 7t-8.5 16z" />
    <glyph glyph-name="b" unicode="b" horiz-adv-x="326" 
d="M13 34q1 9 1 40v75t-1 96.5l-2 106.5q-2 85 -3 144.5t-0.5 97.5t2 57t4.5 25q5 11 18 8.5t18 -15.5q3 -6 4 -30t2 -51t2 -49.5t4 -25.5q5 -6 15 -7.5t27 -3.5q33 -3 67 -14t62 -38.5t47 -77t22 -128.5q2 -63 -14 -105.5t-41.5 -69t-57 -40.5t-59.5 -19.5t-48.5 -5
t-25.5 1.5q-8 1 -15.5 2.5t-14 4t-10.5 7.5t-3 14zM54 82q0 -8 2 -11.5t22 -3.5h22.5t37 4.5t42 15t40 31t29.5 53.5t11 83q-1 49 -13 83.5t-30 57t-40 35.5t-41.5 19t-35 7.5t-20.5 2.5q-16 1 -17.5 -9l-2.5 -17q0 -2 -0.5 -28t-1.5 -64t-1.5 -82t-1 -82.5t-1 -65
t-0.5 -29.5z" />
    <glyph glyph-name="c" unicode="c" horiz-adv-x="292" 
d="M232 657q9 -5 13 -12t3 -14t-6.5 -12.5t-17.5 -7.5t-25 0t-27 3t-28 -1.5t-26 -12.5q-25 -21 -40 -61.5t-21 -90t-5 -104.5t8.5 -104.5t19.5 -89t28 -59.5q15 -19 35.5 -20t41 4t37 11t24.5 1q15 -11 21 -22t-13 -23q-10 -6 -30 -13t-45 -10t-51.5 1t-48.5 21t-38 59
t-25 97.5t-11 118.5t4 121.5t20 107t37 75.5q26 30 53 40.5t50 10.5t40 -5.5t23 -8.5z" />
    <glyph glyph-name="d" unicode="d" horiz-adv-x="326" 
d="M292 34q1 -9 -3 -14t-10.5 -7.5t-14.5 -4t-15 -2.5q-5 -1 -25.5 -1.5t-48.5 5t-59.5 19.5t-57 40.5t-41.5 69t-14 105.5q3 79 22 128.5t47 77t62 38.5t67 14q17 2 27 3.5t15 7.5q3 3 4 25.5t2 49.5t2 51t4 30q5 13 18 15.5t18 -8.5q3 -6 4.5 -25t2 -57t-0.5 -97.5
t-3 -144.5q-2 -54 -2.5 -106.5t-0.5 -96.5v-75t1 -40zM251 82q0 3 -0.5 29.5t-1 65t-1 82.5t-1.5 82t-1.5 64t-0.5 28l-2.5 17t-17.5 9q-5 -1 -20.5 -2.5t-35 -7.5t-41.5 -19t-40 -35.5t-30.5 -56.5t-12.5 -84q-1 -50 10.5 -83t30 -53.5t40 -31t42 -15t36.5 -4.5h23
q20 0 22 3.5t2 11.5z" />
    <glyph glyph-name="p" unicode="p" horiz-adv-x="326" 
d="M13 654q-1 9 3 14t10.5 7.5t14 3.5t15.5 3q5 1 25.5 1.5t48.5 -5t59.5 -19.5t57 -40.5t41.5 -69t14 -105.5q-3 -79 -22 -128.5t-47 -77t-62 -38.5t-67 -14q-17 -2 -27 -3.5t-15 -7.5q-3 -3 -4 -25.5t-2 -49.5t-2 -51t-4 -30q-5 -13 -18 -15.5t-18 8.5q-3 6 -4.5 25t-2 57
t0.5 97t3 145l2 106.5t1 96.5v75t-1 40zM54 606q0 -3 0.5 -29.5t1 -65t1 -82.5t1.5 -82t1.5 -64t0.5 -28q0 -3 0.5 -8t2 -9t5.5 -7t12 -2q5 0 20.5 2t35 8t41.5 19t40 35.5t30.5 57t12.5 83.5t-11 82.5t-29.5 54t-40 31t-42 15t-37 4.5h-22.5q-20 0 -22 -3.5t-2 -11.5z" />
    <glyph glyph-name="o" unicode="o" horiz-adv-x="372" 
d="M58 637q26 20 57 28.5t63 6.5t63 -15t57 -35q25 -21 36.5 -66.5t13 -102t-6 -118.5t-19.5 -117.5t-27.5 -97.5t-30.5 -58q-18 -20 -42.5 -34.5t-52 -19.5t-56 1t-55.5 28q-15 13 -26 43t-18 71.5t-10 90.5t-2.5 99.5t4.5 99.5t11.5 89t17.5 68.5t23 38.5zM93 598
q-15 -16 -25 -58.5t-14.5 -97.5t-4.5 -116t5 -113.5t14 -90.5t23 -47q35 -23 73.5 -19t66.5 45q9 13 21 48t22.5 82t17.5 100.5t6 103.5t-12.5 91.5t-38.5 63.5q-18 15 -39 23t-42.5 9.5t-40.5 -4.5t-32 -20z" />
    <glyph glyph-name="r" unicode="r" horiz-adv-x="326" 
d="M13 654q-1 9 3 14t10.5 7.5t14 3.5t15.5 3q5 1 25.5 2.5t48.5 -1.5t59.5 -14t57 -35.5t41.5 -65.5t14 -104q-3 -70 -18.5 -116t-39.5 -75t-53.5 -43.5t-58.5 -20.5q-7 -2 -5.5 -4t5.5 -4q58 -32 101.5 -53t51.5 -26q7 -5 6.5 -15.5t-5.5 -20t-14 -15t-18 -1.5
q-6 2 -25.5 15l-45.5 31l-55.5 38.5l-55.5 38.5q-5 5 -7 4t-3 -2q-3 -3 -4 -28.5t-2 -56t-2 -58t-4 -33.5q-5 -13 -18 -15.5t-18 8.5q-3 6 -4.5 25t-2 57t0.5 97t3 145l2 106.5t1 96.5v75t-1 40zM54 606q0 -3 0.5 -28t1 -61t1 -78t1.5 -77.5t1.5 -60t0.5 -26.5q0 -3 0.5 -8
t2 -9t5.5 -7t12 -2q5 0 20.5 2t35 8t41.5 19t40 35.5t30 56.5t13 84q0 50 -11 81.5t-29.5 50t-40 26.5t-42 10t-37 0.5t-22.5 -1.5q-20 0 -22 -3.5t-2 -11.5z" />
    <glyph glyph-name="u" unicode="u" horiz-adv-x="392" 
d="M352 -3q0 -4 -6 -6t-13.5 -2t-15.5 1.5t-12 6.5q-4 4 -3 17t3 27t2.5 26t-3.5 14q-5 -2 -15 -16t-26 -30t-37.5 -29.5t-49.5 -13.5q-46 0 -73 16.5t-42 41.5t-20 54t-8 52q-2 15 -4.5 55t-6 90.5t-7 106.5t-6 104t-5 82t-2.5 41q-1 10 6.5 14.5t17.5 3.5t18.5 -6
t10.5 -12q1 -8 3 -46.5t5 -102t8.5 -147.5t13.5 -183q5 -52 26 -81.5t62 -27.5q33 2 55 20t35 42t20 49t10 42q5 27 8 65t4 82t0.5 90t-0.5 87t-0.5 74t0.5 51q0 6 6.5 10t15 5t16 -2.5t9.5 -12.5q1 -4 2 -31.5t1.5 -70.5t0.5 -97.5t0.5 -112t0 -114t-1 -103t-1.5 -79.5
t-2 -44z" />
    <glyph glyph-name="v" unicode="v" horiz-adv-x="395" 
d="M3 646q9 20 15 24.5t15 -6.5q2 -3 9.5 -27.5l18.5 -62l24 -85l27 -97l27 -96l24 -83.5t18.5 -59t9.5 -22t9.5 23t18 60l23.5 85l26.5 97.5l27 97.5t25 85t20 59.5t12.5 21.5q8 -1 12 -1t6 -1t4 -4.5t5 -11.5q2 -4 -4 -32.5t-17 -73t-26.5 -100l-32 -112.5l-33.5 -111.5
t-32 -97t-27 -68.5t-18 -27q-5 -1 -16.5 25t-26 68.5t-31.5 97.5l-33.5 113l-31.5 114l-26.5 101t-17.5 73.5t-4 32.5z" />
    <glyph glyph-name="w" unicode="w" horiz-adv-x="502" 
d="M390 91q2 21 6 58.5l10.5 102.5t14.5 163.5t17 242.5q1 3 9.5 6t18 4t17.5 -1t9 -8q2 -12 -1.5 -38.5t-5.5 -54.5q-1 -7 -3.5 -32.5t-6.5 -62.5t-9.5 -83l-11 -93l-10.5 -92.5l-9 -82t-7 -60.5t-4 -29q-2 -12 -12 -17t-22.5 -4.5t-23.5 5t-14 11.5q-5 15 -14 45l-20 67.5
l-22 78.5l-21 77.5t-18.5 64.5t-12.5 40q-3 9 -5.5 10.5t-4 -0.5t-2.5 -5.5l-1 -3.5q-4 -11 -12.5 -38.5l-19.5 -63l-22.5 -76l-22.5 -78l-20 -68t-14 -45.5q-5 -17 -17 -23t-25 -4t-23 10.5t-12 20.5q-1 4 -3.5 38l-6 84.5t-7 109.5l-7 112.5t-6.5 94.5t-3 55q-1 42 -4 70
t-4 41q0 6 7.5 13.5t16.5 10t16.5 -3.5t6.5 -26l33 -545l6 -6t7 8l15.5 52.5l22.5 78l25.5 88l25.5 83t21 62.5t14 27q9 5 23.5 4t20.5 -9q2 -3 10 -28.5t19 -64l24 -84l25 -88l22 -76t16 -47.5q2 -2 5.5 -4.5t5.5 6.5z" />
    <glyph glyph-name="x" unicode="x" horiz-adv-x="433" 
d="M75 35q8 11 24 40l32 61t28 58.5t13 31.5q0 3 -11.5 34.5t-29.5 76.5l-39.5 97.5l-40.5 98.5l-33 79t-17 39q-5 9 -0.5 20.5t13 18t18.5 5.5t17 -16q5 -10 17.5 -43l28 -77l33.5 -92.5l32.5 -89l25 -67.5t12.5 -27q3 -1 15 25l29 66l36.5 87.5l37.5 91l31.5 76t19.5 41.5
q8 14 19 16t19.5 -4t11.5 -17.5t-4 -24.5q-5 -9 -19.5 -42l-34 -77.5l-42 -94.5l-41.5 -92.5l-33 -71.5t-18 -31q-2 -2 5.5 -23t19.5 -49.5l24.5 -57.5l19.5 -45q7 -17 4.5 -31t-9 -21.5t-16 -6.5t-15.5 14t-15.5 39l-19 52l-17 45.5t-10.5 19.5t-8.5 -10.5t-13 -27.5
t-15.5 -38l-15.5 -39.5t-14 -33t-9.5 -18.5q-5 -7 -15.5 -6.5t-19.5 6t-13.5 15t3.5 20.5z" />
    <glyph glyph-name="z" unicode="z" horiz-adv-x="344" 
d="M42 621q-19 -2 -29 6.5t-12.5 20t2.5 20.5t17 8q8 -1 30 -1.5t51 -1t61.5 -1t61.5 -1t50 -1.5t28 -2q10 -2 13.5 -6.5t3 -11.5t-4 -15l-7.5 -17q-5 -10 -19.5 -46l-34.5 -86l-42 -107l-42.5 -109.5l-36.5 -94.5l-23 -61l-9.5 -28t-2.5 -14t7.5 -4t20.5 1q7 1 31 2
t51.5 2.5t53.5 2.5t37 2q15 1 20 -7.5t3 -19t-9 -19.5t-17 -10q-6 -1 -25 -1.5t-44 -2t-53 -2.5t-52 -1.5t-41 0t-21 1.5q-10 3 -17.5 19t-0.5 38q2 6 16 42l35 87.5l45.5 113l47 118.5l40.5 103.5t26 69.5q5 16 -1.5 17.5t-21.5 1.5q-20 1 -46 1t-52.5 -1t-50 -2.5
t-37.5 -2.5z" />
    <glyph glyph-name="h" unicode="h" horiz-adv-x="345" 
d="M6 673q1 12 9 16.5t18 3.5t18 -6.5t8 -13.5q0 -6 -0.5 -23t-1.5 -39.5t-1.5 -47t0 -45t1.5 -34t4 -13.5q4 0 28.5 4t57 4t67 -8.5t58.5 -33.5q14 -15 21 -49t9.5 -78t1.5 -91t-3.5 -88t-5.5 -69.5t-3 -33.5q-1 -8 -9.5 -12.5t-18 -4t-17 5.5t-5.5 16q1 7 4 33.5t6.5 63
t5 78.5t0 80t-7.5 68.5t-19 42.5q-18 17 -45.5 23.5t-54 5.5t-47 -8t-23.5 -16q-2 -6 -3 -34t-1.5 -67.5t0 -84.5t1 -85t0.5 -69.5t-1 -37.5q-1 -12 -9 -21t-17 -11.5t-16.5 3t-7.5 21.5q0 8 -0.5 39t-0.5 77v102t-0.5 114t-0.5 113.5v100t0.5 74t0.5 35.5z" />
    <glyph glyph-name="a" unicode="a" horiz-adv-x="354" 
d="M84 615q-14 0 -21 7.5t-7 16.5t7 17.5t21 10.5q13 2 42 3.5t60 0t57 -8t34 -19.5q13 -23 21 -71.5t12 -110t5 -130t0 -130.5t-2 -111.5t-1 -72.5q0 -9 -8.5 -12.5t-18 -2.5t-17.5 5t-7 10q2 13 2.5 20t-7.5 12q-3 1 -23 -7t-48.5 -16.5t-60.5 -13t-59 4.5t-44.5 36.5
t-15.5 82.5q1 40 19.5 62.5t45 32.5t58 11t59.5 -1.5t48 -6t24 -1.5q4 1 6 26.5t2 63t-2 81.5t-5.5 84t-8.5 70t-12 38q-10 13 -30 17.5t-43 5t-45.5 -1.5t-36.5 -2zM258 176q-4 2 -20 6.5t-38 8t-46.5 4.5t-45 -3.5t-34 -16t-13.5 -32.5q0 -36 14.5 -53.5t36.5 -22.5
t47.5 -0.5t48 13t38.5 17t18 12.5q3 6 5 15.5t1 20t-3.5 19t-8.5 12.5z" />
    <glyph glyph-name="m" unicode="m" horiz-adv-x="611" 
d="M71 668q0 -1 -0.5 -7t-1.5 -12.5t-1 -12t2 -5.5q3 -1 7.5 5.5t13.5 15.5t23.5 16.5t35.5 8.5q27 1 48 -6.5t37.5 -20.5t28 -30.5t19.5 -36.5l15.5 34t18.5 29t28 21t45 10q38 2 61 -12.5t36.5 -37t20 -49l12.5 -49.5q5 -21 12 -65t14.5 -97.5l15 -111t13 -105l9 -79
t3.5 -33.5q0 -14 -6.5 -19t-15.5 -3.5t-17 7t-9 12.5q-1 4 -4.5 36.5l-8.5 80.5l-11 104.5t-13 109t-14 95t-13 62.5l-11 34.5t-14 35t-19.5 28t-27.5 12.5q-26 1 -42 -8t-25.5 -25t-14 -38.5t-5.5 -48.5q-5 -84 -5.5 -139t-0.5 -88t0.5 -49.5t-0.5 -23.5q-2 -8 -10 -12.5
t-17.5 -5.5t-17.5 3t-8 15q-1 30 1 67.5t3.5 78.5t1 82.5t-7.5 79.5q-3 16 -10.5 35.5t-19 36.5t-27.5 28.5t-35 11.5q-26 1 -42.5 -8t-26.5 -25.5t-15 -38.5t-7 -48q-8 -99 -9 -185t1 -151t4 -106t1 -48q-2 -8 -10.5 -12.5t-18.5 -5.5t-17.5 3t-6.5 15l6 641q0 6 7 9
t15.5 3t16.5 -2.5t10 -5.5z" />
    <glyph glyph-name="n" unicode="n" horiz-adv-x="390" 
d="M14 661q0 4 6 6t13.5 2t15 -2t12.5 -6q4 -4 3 -17t-3 -27.5t-2.5 -26t3.5 -13.5q5 2 15 16t26 30t37.5 29.5t49.5 13.5q46 0 73 -16.5t42 -41.5t20 -54t8 -52q2 -16 4.5 -55.5t6 -90t7 -106.5t6 -104t4.5 -82t3 -41q1 -11 -7 -15t-17.5 -3t-18.5 5.5t-10 12.5
q-2 7 -3.5 46t-4.5 102.5t-8.5 147.5t-13.5 183q-5 52 -26 81.5t-62 27.5q-33 -2 -55 -20t-35 -42t-20 -49.5t-10 -41.5q-6 -26 -8.5 -64.5t-3.5 -82.5t-0.5 -90t1 -87t0.5 -74t-1 -51q0 -6 -6.5 -10t-15 -5t-16 2.5t-9.5 12.5q-1 4 -2 31.5t-1.5 70.5t-0.5 97.5t-0.5 112
t0 114t1 103t1.5 79.5t2 44z" />
    <glyph glyph-name="e" unicode="e" horiz-adv-x="333" 
d="M5 219v64.5t1 84.5t3 91.5t6.5 87t11.5 70.5t18 42q23 25 51.5 26.5t56 -12.5t52 -37.5t38.5 -47.5q26 -44 38.5 -99.5t15.5 -109t-2.5 -96t-16.5 -60.5q-8 -13 -26.5 -19t-41.5 -8.5t-48.5 -2.5h-47.5t-37 -0.5t-18 -5.5q-5 -7 -4.5 -24t7.5 -36.5t22 -37t41 -24.5
q18 -5 38.5 -5t39 4.5t32 12.5t18.5 18q4 10 14 8t18.5 -9.5t12 -18t-4.5 -17.5q-10 -9 -27 -21t-40.5 -21.5t-53 -13t-63.5 6.5q-36 10 -56.5 30t-31 47t-13.5 61t-3 72zM83 616q-10 -11 -16.5 -42.5t-10.5 -72t-6 -85t-2 -82t2.5 -62t6.5 -25.5t19 -1.5t35.5 0t43.5 1.5
t42.5 3.5t32.5 6t14 8.5q14 92 3.5 165.5t-36.5 122.5q-15 27 -32 45.5t-34.5 27t-33.5 6.5t-28 -16z" />
    <glyph glyph-name="glyph58" horiz-adv-x="908" 
d="M358 62q-44 -25 -87.5 -42t-83 -19.5t-73.5 12.5t-58.5 54.5t-37.5 106t-10 166.5q4 136 32.5 213.5t74 111.5t102.5 32.5t117 -23.5t118 -58t105.5 -70l80 -58.5t40.5 -25.5q16 -2 33.5 12t37.5 32t44 34t53 19q14 1 21.5 -30.5t9.5 -79.5t-1 -104t-10 -104.5t-17 -81.5
t-21 -33q-14 0 -29.5 11t-31 28.5t-31.5 38l-30 38t-26.5 28.5t-21.5 10q-7 -1 -26 -16l-48 -38l-22 31l65 56.5t35 24.5q19 -1 39.5 -22t39.5 -46l35 -46t28 -21q8 0 14 21.5t9.5 54t5 71t0.5 71t-4.5 54.5t-9.5 22q-15 0 -34 -16l-39 -34.5l-39 -34.5t-34 -16q-7 0 -37 24
l-73.5 57.5t-97 70t-108.5 61t-107.5 31t-94.5 -20t-68.5 -93t-30.5 -186.5q-4 -127 19.5 -192t63.5 -85.5t90 -6t100 47.5zM111 190q0 20 11.5 27.5t24.5 6t23.5 -10.5t9.5 -21q0 -12 -11.5 -21t-24.5 -11.5t-23.5 4t-9.5 26.5zM458 314q15 2 43 0t54 -11.5t43.5 -28.5
t10.5 -50q-5 -20 -18.5 -30.5t-28.5 -15t-26.5 -6t-12.5 -4.5q-2 -7 2 -13.5t7.5 -14.5t3.5 -17.5t-9 -21.5q-14 -18 -30 -19.5t-30.5 3t-25 10.5t-11.5 2q-2 -4 -1 -11.5t0 -17.5t-5.5 -21t-17.5 -21q-21 -17 -42.5 -5.5t-40 35.5t-30.5 52t-13 42t6.5 22.5t17 11.5
t17.5 -0.5t7 -14.5t4.5 -29t14.5 -34t19.5 -24.5t20.5 -1.5q6 4 5 14t-3.5 21.5t-3 21.5t5.5 14q7 5 21.5 -0.5l30.5 -12t30 -11t19 3.5q5 7 -1 17t-14 20.5l-14 19t0 12.5t19.5 4.5t28 2t27.5 6t17 15.5t-6 20t-26 14.5t-33 7t-27 -2.5t-17.5 2t-10 15.5t2.5 18.5t20 11z
" />
    <glyph glyph-name="l" unicode="l" 
d="M23 649q2 3 9 8t15.5 7t16 -1t9.5 -14q1 -6 0 -33l-2.5 -68t-4.5 -91.5t-5.5 -102.5l-5 -102t-3.5 -90t0 -65.5t4 -28.5q4 -5 18.5 -5t34 1.5t41 4t40 4t30.5 0t13 -7.5q2 -18 2 -28.5t-11 -10.5q-4 0 -20 -2l-38.5 -5t-48 -6t-48 -4.5t-38 -1.5t-17.5 4q-2 3 -2.5 31.5
t-0.5 73t0.5 101t1.5 115.5l2 115t2.5 100.5t3 72t2.5 29.5z" />
    <glyph glyph-name="L" unicode="L" 
d="M23 649q2 3 9 8t15.5 7t16 -1t9.5 -14q1 -6 0 -33l-2.5 -68t-4.5 -91.5t-5.5 -102.5l-5 -102t-3.5 -90t0 -65.5t4 -28.5q4 -5 18.5 -5t34 1.5t41 4t40 4t30.5 0t13 -7.5q2 -18 2 -28.5t-11 -10.5q-4 0 -20 -2l-38.5 -5t-48 -6t-48 -4.5t-38 -1.5t-17.5 4q-2 3 -2.5 31.5
t-0.5 73t0.5 101t1.5 115.5l2 115t2.5 100.5t3 72t2.5 29.5z" />
    <glyph glyph-name="y" unicode="y" horiz-adv-x="368" 
d="M0 640q-4 12 1.5 22t15 15t20 3.5t15.5 -12.5q3 -8 13.5 -40.5l24 -77.5l28 -95l27 -92l20.5 -69.5l8 -27.5l8.5 27l21.5 68l28.5 90.5l30 94.5l25 80t14.5 47q5 18 15 24t18.5 1.5t14 -17t1.5 -30.5q-3 -12 -15.5 -49l-29.5 -86.5l-37 -103.5l-36 -100l-27 -77t-10 -34
q1 -4 1.5 -28.5t1.5 -53.5t1.5 -55.5t0.5 -35.5t-7.5 -15.5t-16.5 -8t-17 4t-9 21.5t-1 42.5v52.5t0.5 46.5t0.5 23.5q0 2 -10.5 33.5l-26 78.5l-34.5 102l-35.5 103.5l-28.5 84t-15 43.5z" />
    <glyph glyph-name="Y" unicode="Y" horiz-adv-x="368" 
d="M0 640q-4 12 1.5 22t15 15t20 3.5t15.5 -12.5q3 -8 13.5 -40.5l24 -77.5l28 -95l27 -92l20.5 -69.5l8 -27.5l8.5 27l21.5 68l28.5 90.5l30 94.5l25 80t14.5 47q5 18 15 24t18.5 1.5t14 -17t1.5 -30.5q-3 -12 -15.5 -49l-29.5 -86.5l-37 -103.5l-36 -100l-27 -77t-10 -34
q1 -4 1.5 -28.5t1.5 -53.5t1.5 -55.5t0.5 -35.5t-7.5 -15.5t-16.5 -8t-17 4t-9 21.5t-1 42.5v52.5t0.5 46.5t0.5 23.5q0 2 -10.5 33.5l-26 78.5l-34.5 102l-35.5 103.5l-28.5 84t-15 43.5z" />
    <glyph glyph-name="zero" unicode="0" horiz-adv-x="410" 
d="M330 73q-22 -33 -62.5 -48t-83.5 -16.5t-80.5 8t-53.5 25.5q-18 19 -29 67t-15 109.5t-2 129.5t9 127t18 102t26 55q21 17 55.5 27t73.5 11.5t76.5 -6.5t64.5 -28q10 -7 19.5 -43.5t16.5 -89t10 -115t0.5 -123t-13 -111.5t-30.5 -81zM97 593q-14 -17 -23.5 -58.5t-15 -95
t-6 -112.5t3 -110.5t11.5 -89t21 -47.5q17 -14 46 -19.5t60 -2t59 15.5t44 33q9 12 15.5 50t10 89t3.5 108.5t-4 108t-12 88t-20 48.5q-17 15 -45 21.5t-57 5t-54 -9.5t-37 -23z" />
    <glyph glyph-name="two" unicode="2" horiz-adv-x="349" 
d="M68 531q2 -16 -5.5 -26t-17.5 -12t-18.5 4.5t-8.5 23.5q0 16 4 42t19 51t43.5 44t77.5 23q40 3 72.5 -18.5t49 -60.5t13.5 -91.5t-33 -112.5q-35 -68 -69 -127.5l-60.5 -104l-41.5 -71.5t-10 -30t34.5 -3t66 2t70.5 4.5t49 5.5t21 -7t6 -22t-5.5 -22t-15.5 -8q-6 1 -25 1
t-44.5 -0.5t-54.5 -1.5l-56 -2t-49.5 -2t-33.5 -1q-35 0 -41.5 14t7.5 39q4 8 18.5 31l33.5 54l41.5 67.5l44 73.5l40 70t29.5 58q16 35 22.5 72.5t1.5 69t-24.5 52.5t-56.5 22q-23 1 -41 -9t-30.5 -25t-18.5 -33t-4 -34z" />
    <glyph glyph-name="three" unicode="3" horiz-adv-x="318" 
d="M49 582q-12 -14 -23 -15.5t-17.5 5t-7 18.5t8.5 24q13 19 35 34.5t48 23t54.5 4.5t56.5 -21t47.5 -54t30 -79.5t11 -88.5t-11.5 -81q-10 -30 -19.5 -50t-17.5 -33.5l-13 -22.5t-5 -17q0 -5 13.5 -14t24.5 -28t11.5 -51t-25.5 -84q-20 -40 -54 -49.5t-68 -2.5t-61.5 22.5
t-36.5 24.5t-8 20.5t7 19t16 10t21 -6.5q10 -9 30.5 -20.5t43 -17t43 -1t31.5 28.5q21 48 13.5 72.5t-29 35t-49.5 11.5t-49 1q-7 0 -11 8t-4 18t5 17t17 6q35 -5 58 6t37.5 30.5t23 43.5t15.5 47q10 32 8 69.5t-13.5 72t-31 61.5t-44 39.5t-53 5t-58.5 -41.5z" />
    <glyph glyph-name="four" unicode="4" horiz-adv-x="358" 
d="M12 657q3 12 9.5 19.5t13.5 8t13 -5.5t7 -19q1 -9 0.5 -42.5t-2 -78.5t-2.5 -95.5t-1 -92.5t1 -70t4 -29q5 -1 25.5 -2.5t44.5 -1.5t45 2t26 7q3 3 5.5 32t4.5 70.5t3.5 91t2.5 93.5t1.5 77.5t0.5 43.5q0 15 8.5 22.5t18.5 7t18 -9t6 -23.5q-1 -10 -3 -43t-3.5 -77
t-3 -93t-2 -90.5t0.5 -70.5t4 -33q4 -6 10.5 -6.5t14 1t16.5 3t20 -0.5q10 -2 15.5 -10t5.5 -16.5t-5 -15.5t-15 -7q-20 0 -39 0.5t-21 -10.5t-3 -34.5t-1.5 -50t0 -50t2.5 -34.5t-6.5 -16t-19 -4.5t-19.5 7t-9 18.5v38t-0.5 53t-1.5 48.5t-3 26.5q-2 4 -27 4.5t-56.5 0
t-60 0t-36.5 5.5q-7 4 -11 37t-5 80.5t-1 102.5t2 104t4 84.5t4 43.5z" />
    <glyph glyph-name="five" unicode="5" horiz-adv-x="318" 
d="M258 672q14 -1 20 -9t5.5 -16.5t-6.5 -15t-16 -5.5q-7 1 -24.5 1t-40 -0.5t-47 -2t-45.5 -4t-35 -6t-15 -8.5t-1.5 -32t0 -65t2 -81.5t3.5 -80.5t5 -62t7 -27t21.5 -1t42 1t52 -4t51 -16t39 -34t16.5 -59t-14.5 -63t-40 -43t-54.5 -26t-58 -12.5t-50.5 -2t-32.5 6.5
q-15 7 -17.5 18t2.5 20.5t14.5 15t20.5 0.5q7 -3 23.5 -4.5t37.5 0t43 7t40 15.5t29.5 26t11.5 38t-13 35t-32 19t-42.5 7t-45.5 1t-40 -1t-27 2t-16.5 34t-13 77.5t-9 101t-5.5 102.5t-2 82.5t2 42.5q2 7 19 12.5t42 9t55 5t57.5 2t49.5 0.5t32 -1z" />
    <glyph glyph-name="six" unicode="6" horiz-adv-x="305" 
d="M72 653q4 16 15.5 28.5t22.5 14t16.5 -10.5t-1.5 -45l-13 -59.5l-16.5 -81t-16.5 -89t-13.5 -82.5t-7.5 -62t2 -27q6 -4 26 2t47 10t56.5 -0.5t53.5 -29.5t35 -62.5t5 -73t-31 -62t-73 -29.5t-83.5 11.5t-58 43.5t-31 71t-1.5 94l11 77l12.5 88.5l13 89.5l12.5 81.5
l10.5 64.5t7.5 38zM58 184q-8 -8 -10 -26t4.5 -39t23.5 -41t49 -31q40 -14 65 -3.5t35.5 32.5t8.5 49t-14 45q-17 25 -42 33.5t-49 6.5t-44 -10t-27 -16z" />
    <glyph glyph-name="seven" unicode="7" horiz-adv-x="314" 
d="M33 616q-16 2 -24 8t-8 13.5t7.5 14t22.5 9.5q11 2 33 4.5t48 3.5t54.5 1t53.5 -2.5t44 -7.5t27 -13q7 -8 2.5 -52t-16 -107.5t-27 -136l-30.5 -137.5t-27.5 -112.5t-16.5 -60.5q-7 -19 -16.5 -26.5t-17 -4.5t-11.5 17t1 37q3 15 13.5 59.5l24 102l28 121t25.5 118.5
t16 93.5t1 46.5q-7 11 -34 13.5t-60 1.5t-65 -3.5t-48 -0.5z" />
    <glyph glyph-name="eight" unicode="8" horiz-adv-x="352" 
d="M269 27q-15 -15 -43.5 -22t-60 -6t-59 8.5t-39.5 21.5q-17 19 -23.5 45.5t-6.5 52t6.5 47t15.5 30.5q7 7 8.5 10.5t0.5 6t-4.5 5.5t-7.5 9q-27 32 -41.5 81.5t-14.5 105.5t15.5 113.5t47.5 104.5q15 22 44 29.5t59.5 5t58 -13t40.5 -23.5q23 -24 36.5 -58t19 -72t4 -78
t-8 -76t-18 -65t-25.5 -46q-8 -10 -6.5 -13.5t9.5 -17.5q12 -20 18 -45.5t5.5 -51.5t-8 -49.5t-22.5 -38.5zM101 606q-26 -29 -38.5 -74.5t-14 -93.5t7.5 -92t27 -72q8 -12 30 -19t47.5 -7.5t48 6t31.5 20.5q20 33 31 78.5t11 92.5t-11.5 89t-35.5 66q-12 12 -31 18t-39 6.5
t-37.5 -4t-26.5 -14.5zM228 54q12 7 19 22t9.5 33t0 36.5t-10.5 30.5t-28.5 18.5t-44.5 6.5t-46 -6t-32 -19q-21 -26 -19 -56t24 -56q10 -12 27 -18t35.5 -6.5t36 3.5t29.5 11z" />
    <glyph glyph-name="nine" unicode="9" horiz-adv-x="303" 
d="M236 651q1 4 7.5 8.5t13.5 6t13 -1t8 -11.5q1 -5 0 -33.5t-3.5 -73t-6 -99.5l-7 -112t-7.5 -112.5l-7 -99.5t-5.5 -73t-3.5 -34q-2 -10 -9 -15t-14.5 -4.5t-13.5 6.5t-6 18q0 8 1.5 26t4 40.5t5.5 47t5 45t2.5 34.5t-0.5 17q-2 4 -9.5 0.5t-20.5 -8.5t-30 -9t-37 -1
q-30 4 -54 23t-39.5 50t-21.5 73.5t1 93.5q14 103 50 160t96 58q33 0 48.5 -9.5t22 -18t9 -9.5t8.5 17zM212 309q4 23 8 51.5t5.5 60t0.5 63.5t-7 61q-7 36 -22.5 54.5t-48.5 22.5q-19 2 -36.5 -14t-31.5 -43t-23 -61.5t-12 -69.5q-4 -52 4 -84.5t21.5 -51.5t29.5 -27.5
t28 -12.5t26 0t26.5 12.5t21 19t10.5 19.5z" />
    <glyph glyph-name="fraction" unicode="&#x2044;" horiz-adv-x="236" 
d="M175 669q3 3 10 3.5t15.5 -1.5t15.5 -6t10 -9q3 -6 1.5 -15.5t-5.5 -22.5t-10 -28.5l-12 -32.5q-4 -11 -16.5 -53.5l-29 -100l-35.5 -121.5l-35.5 -119l-28 -92.5t-14.5 -40.5q-3 -5 -9 -7.5t-11.5 -2t-9.5 5t-4 13.5t3 22.5t7.5 27l8.5 25.5t6 19q1 4 7.5 28.5
l16.5 62.5l22 85.5l24.5 96.5l25 95.5l22.5 83.5l16.5 60t8.5 24z" />
    <glyph glyph-name="quotedbl" unicode="&#x22;" horiz-adv-x="195" 
d="M20 663q0 17 8 25t17.5 8t18 -7.5t8.5 -21.5q0 -12 -0.5 -42t-1.5 -64t-2.5 -65t-2.5 -44q-1 -8 -6.5 -12t-12.5 -4t-13 3.5t-7 11.5q-2 14 -3.5 42.5t-2 60.5t-0.5 62v47zM110 663q0 17 8 25t17.5 8t18 -7.5t8.5 -21.5q0 -12 -0.5 -42t-1.5 -64t-2.5 -65t-2.5 -44
q-1 -8 -6.5 -12t-12.5 -4t-13 3.5t-7 11.5q-2 14 -3.5 42.5t-2 60.5t-0.5 62v47z" />
    <glyph glyph-name="quotesingle" unicode="'" horiz-adv-x="102" 
d="M20 663q0 17 8 25t17.5 8t18 -7.5t8.5 -21.5q0 -12 -0.5 -42t-1.5 -64t-2.5 -65t-2.5 -44q-1 -8 -6.5 -12t-12.5 -4t-13 3.5t-7 11.5q-2 14 -3.5 42.5t-2 60.5t-0.5 62v47z" />
    <glyph glyph-name="equal" unicode="=" horiz-adv-x="308" 
d="M9 180q2 4 22.5 9t49.5 9t62.5 7.5t62 4.5t48.5 -0.5t22 -7.5q13 -37 -5 -44q-3 -1 -23 -2t-48 -2t-60 -2t-59.5 -1t-45.5 1t-18 3q0 3 -2.5 5t-5 4.5t-3.5 6t3 9.5zM9 280q2 4 22.5 9t49.5 9t62.5 7.5t62 4.5t48.5 -0.5t22 -7.5q13 -37 -5 -44q-3 -1 -23 -2t-48 -2
t-60 -2t-59.5 -1t-45.5 1t-18 3q0 3 -2.5 5t-5 4.5t-3.5 6t3 9.5z" />
    <glyph glyph-name="minus" unicode="&#x2212;" horiz-adv-x="292" 
d="M8 227q2 4 21.5 9.5t47.5 11t60 10t60 6.5t47 1t21 -7q13 -37 -5 -44q-3 -1 -22 -3t-46 -4t-58 -3.5t-57 -2.5t-43.5 -1t-17.5 2q0 3 -2.5 5t-5 4.5t-3.5 6t3 9.5z" />
    <glyph glyph-name="plus" unicode="+" horiz-adv-x="278" 
d="M100 248q9 -1 8 21t1 65q0 17 8 25t17.5 8t18 -7.5t8.5 -21.5v-64v-6t1.5 -7t6 -5t13.5 0q26 2 48.5 3t24.5 -4q12 -35 -5 -41q-3 -2 -27.5 -2t-51.5 -2q-12 0 -13 -6t-1 -17l-3 -84q-1 -8 -6.5 -12t-12.5 -4t-13 3.5t-7 11.5q-2 11 -3 38t-2 51q-3 11 -6.5 12.5
t-6.5 1.5q-33 -2 -60.5 -3.5t-30.5 0.5q-5 2 -10.5 7.5t2.5 17.5q3 5 31.5 12t70.5 9z" />
    <glyph glyph-name="multiply" unicode="&#xd7;" horiz-adv-x="228" 
d="M141 236q-8 -5 7.5 -21t41.5 -51q11 -13 10.5 -24.5t-8 -17.5t-19 -5.5t-20.5 11.5l-42 48q-2 2 -4 5t-5.5 4.5t-7.5 0t-10 -9.5l-35 -33.5t-22 -12.5q-32 18 -22 34q1 3 19.5 19t37.5 36q9 8 6 13t-10 13l-52 66q-5 7 -3.5 13.5t7 11t12.5 5.5t13 -4q9 -7 27 -27l34 -37
q10 -7 13.5 -6t5.5 3l44 42t24 20q5 2 12.5 1t9.5 -15q1 -5 -16.5 -29.5t-47.5 -52.5z" />
    <glyph glyph-name="asterisk" unicode="*" horiz-adv-x="363" 
d="M302 337q-2 -4 -17.5 -22.5l-35.5 -42.5q-6 -7 -2 -10.5t9 -3.5q26 1 50.5 0t26.5 -5q12 -35 -5 -41q-2 -1 -17 -0.5t-33 1t-32 -0.5t-13 -5q-1 -4 5 -12t15 -18l19 -20.5t17 -19.5q11 -13 10 -25t-8.5 -19t-18.5 -7t-20 11q-14 14 -25 31.5t-18.5 30.5t-11 18t-1.5 -6
l-3 -103q-1 -8 -6.5 -12t-12.5 -4t-13 3.5t-7 11.5q-1 4 0 21t2.5 36t2.5 34.5t-2 15.5q-3 3 -14.5 -8.5l-25 -26l-25 -26.5t-14.5 -10q-14 11 -20.5 18.5t-1.5 15.5q1 2 18 19l36 36q3 9 -1.5 10t-10.5 1l-30 -2t-27 -1.5t-20 -1t-9 0.5q-5 2 -10.5 7.5t2.5 17.5q1 1 11 4
t25 6.5t33.5 6.5t37.5 5q5 1 8.5 3t-1.5 13l-55 71q-5 7 -3.5 13.5t7 11t12.5 5.5t13 -4q3 -2 12 -14.5l19 -25.5t18.5 -21.5t10.5 -3.5q2 0 2 8.5t-1.5 20.5t-2.5 24t-1 18q0 17 8 25t17.5 8t18 -7.5t8.5 -21.5l2 -68q2 -11 5 -11t5 3q10 11 21 21.5l20 19.5l15 15l7 7
q5 4 10.5 4.5t10 -2t6 -8.5t-0.5 -13z" />
    <glyph glyph-name="divide" unicode="&#xf7;" horiz-adv-x="290" 
d="M8 227q2 4 21.5 9.5t47.5 11t60 10t60 6.5t47 1t21 -7q13 -37 -5 -44q-3 -1 -21.5 -2.5t-45 -3t-57 -3t-56.5 -2.5t-44 -1.5t-20 0.5q-6 2 -11 7.5t3 17.5zM110 331q1 6 11 9.5t21 4t20.5 -3t9.5 -10.5v-11t-0.5 -7t-1.5 -7t-2 -10q-2 -6 -11 -9t-19.5 -3t-19 2t-8.5 7
q0 9 -1 17t1 21zM110 168q1 6 11 9.5t21 4t20.5 -3t9.5 -10.5v-11t-0.5 -7t-1.5 -7t-2 -10q-2 -6 -11 -9t-19.5 -3t-19 2t-8.5 7q0 9 -1 17t1 21z" />
    <glyph glyph-name="semicolon" unicode=";" horiz-adv-x="91" 
d="M16 359q17 19 38 1q8 -7 12 -15.5t-1 -20.5q-3 -6 -12 -10t-19 -4t-18.5 4t-9.5 14q-1 6 1 14.5t9 16.5zM5 140q-1 9 4.5 17t14 12t18 3.5t17.5 -6.5q9 -8 7 -23t-8.5 -29t-15.5 -23t-14 -6q-4 2 -1 7.5t5 17.5v3.5t-5 3.5q-8 1 -14.5 8t-7.5 15z" />
    <glyph glyph-name="comma" unicode="," horiz-adv-x="85" 
d="M6 25q-1 9 4.5 17t14 12t18 3.5t17.5 -6.5q9 -8 7 -23t-8.5 -29t-15.5 -23t-14 -6q-4 2 -1 7.5t5 17.5v3.5t-5 3.5q-8 1 -14.5 8t-7.5 15z" />
    <glyph glyph-name="less" unicode="&#x3c;" horiz-adv-x="279" 
d="M198 404q13 12 25 12.5t20 -6t10 -18t-7 -23.5q-2 -3 -17 -13l-36 -23.5l-45 -29t-44 -30t-33.5 -26t-13.5 -16.5q0 -6 13 -13t33 -15t43.5 -16l45 -15.5l37.5 -13t20 -8.5q7 -5 7.5 -15.5t-4 -20t-12.5 -15t-17 -1.5q-6 2 -21.5 9l-36.5 16l-44 19l-42.5 18.5
l-33.5 14.5t-17 7q-23 10 -25.5 34.5t14.5 44.5q13 15 39.5 36l55 42l53 39t33.5 26z" />
    <glyph glyph-name="greater" unicode="&#x3e;" horiz-adv-x="279" 
d="M60 404q9 -8 33.5 -26l53 -39l55 -42t39.5 -36q17 -20 14.5 -44.5t-25.5 -34.5q-3 -1 -17 -7l-33.5 -14.5l-42.5 -18.5l-44 -19l-37 -16t-21 -9q-9 -4 -17 1.5t-12.5 15t-4 20t7.5 15.5q4 3 20 8.5l37.5 13l45 15.5t43.5 16t33 15t13 13q0 5 -13.5 16.5t-33.5 26t-44 30
l-45 29l-36 23.5t-17 13q-9 12 -7 23.5t10 18t20 6t25 -12.5z" />
    <glyph glyph-name="question" unicode="?" horiz-adv-x="241" 
d="M13 648q-7 4 -6.5 13t5.5 17.5t12.5 13.5t15.5 2q6 -2 23 -10.5t38.5 -23.5t44 -36.5t40 -50t27 -64t5.5 -78.5q-5 -48 -18 -79t-30 -50.5t-36 -31.5l-36 -22t-30 -21t-17 -28q-4 -16 -4 -29.5t2 -24t4 -19t2 -14.5t-8 -10.5t-17.5 -5.5t-17 2t-7.5 13t-1 27t-1 36.5
t3.5 39t12.5 33.5t31.5 26t47 30t45 47.5t23.5 79.5q3 40 -6 71t-24.5 54t-34.5 39.5t-37 27.5t-32 17t-19 9zM61 34q1 15 -6.5 22.5t-18 8.5t-19.5 -5.5t-9 -21.5q0 -13 7.5 -20.5t17 -9t18 4.5t10.5 21z" />
    <glyph glyph-name="questiondown" unicode="&#xbf;" horiz-adv-x="241" 
d="M207 49q7 -5 6.5 -13.5t-5.5 -17t-12.5 -13.5t-15.5 -2q-7 2 -23.5 10.5t-38 23.5t-44 36.5t-40 50t-27.5 64t-5 78.5q5 48 18 79t30 50.5t36 31.5l36 22t30 20.5t17 28.5q4 16 4 29.5t-2 24t-4 19t-2 14.5t8 10.5t17.5 5.5t17 -2t7.5 -13t1 -27t1 -36.5t-3.5 -39
t-12.5 -33.5t-31.5 -26t-47 -30t-45 -47.5t-23.5 -79.5q-3 -40 6 -71t24.5 -54t34.5 -39.5t37 -27.5t32 -17t19 -9zM159 663q2 15 10.5 21t18 4.5t17 -9t7.5 -20.5q0 -15 -9 -21.5t-19.5 -6t-18.5 8.5t-6 23z" />
    <glyph glyph-name="parenleft" unicode="(" horiz-adv-x="191" 
d="M143 739q8 6 17.5 3.5t15.5 -9t7.5 -15t-6.5 -15.5q-37 -34 -65 -89.5t-44.5 -122t-21.5 -139t4 -140t33.5 -126t65.5 -96.5q10 -9 9 -18t-7 -15t-15.5 -8t-16.5 3q-36 26 -60 70t-37.5 98.5t-17.5 116t0 124t16 122.5t30 111t41.5 88.5t51.5 56.5z" />
    <glyph glyph-name="bracketleft" unicode="[" horiz-adv-x="177" 
d="M107 737q15 -2 21 -8.5t5 -14.5t-6.5 -14.5t-13.5 -7.5q-16 -2 -32 0.5t-24 -8.5q-2 -3 -2.5 -33t0 -77t2 -107l3 -122t4 -121.5t5.5 -106.5t5.5 -76.5t5.5 -31.5q11 -8 29 -8h35q8 0 13 -6.5t5.5 -14.5t-3.5 -14.5t-13 -6.5t-25.5 -3.5t-33 -5.5t-30 -0.5t-17.5 12.5
q-2 5 -4.5 38.5t-5.5 85l-6.5 116t-6.5 131.5l-6 131.5t-5 116t-3.5 85t-1.5 39.5q0 11 14 18t32 10t35.5 4t24.5 0z" />
    <glyph glyph-name="braceleft" unicode="{" horiz-adv-x="199" 
d="M141 740q16 0 22.5 -8t6 -17.5t-6.5 -17t-16 -5.5q-20 3 -37.5 -7t-22.5 -30q-7 -29 -4.5 -69.5t8 -85t11.5 -88.5t8 -78q1 -35 -3.5 -55t-10.5 -31.5t-11 -17t-4 -10.5t6 -10l11.5 -11.5t11.5 -16.5t6 -25t0 -35t-1.5 -40.5t0 -38.5t5.5 -29q4 -11 9.5 -14t11.5 -2.5
t13.5 2t16.5 0.5q9 -2 13 -9.5t4 -16.5t-4 -17.5t-11 -10.5q-8 -2 -23.5 -5.5t-32 -1.5t-30 13t-16.5 38t-2.5 52t1 46.5t1 38t-2.5 26.5q-6 20 -19.5 30.5t-25.5 5.5q-6 -2 -12 5.5t-9 18t-2 19.5t9 10q7 1 18 0.5t20.5 7t14 27.5t0.5 61q-5 41 -9 84l-8 85.5t-6 82.5
t-2 75q0 20 10.5 34.5t26 23.5t33.5 13t34 4z" />
    <glyph glyph-name="parenright" unicode=")" horiz-adv-x="205" 
d="M41 739q28 -19 51.5 -56.5t41.5 -88.5t30 -111t16 -122.5t0 -124t-17.5 -116t-37.5 -98.5t-60 -70q-7 -5 -16.5 -3t-15.5 8t-7 15t9 18q41 38 65.5 96.5t33.5 126t4 140t-21.5 139t-44.5 122t-65 89.5q-8 7 -6.5 15.5t7.5 15t15.5 9t17.5 -3.5z" />
    <glyph glyph-name="bracketright" unicode="]" horiz-adv-x="177" 
d="M55 737q7 1 24.5 0t35.5 -4t32 -10t14 -18q0 -6 -1.5 -39.5t-3.5 -85t-5 -116l-6 -131.5t-6.5 -131.5l-6.5 -116t-5.5 -85t-4.5 -38.5q-4 -11 -17.5 -12.5t-30 0.5t-33 5.5t-25.5 3.5t-13 6.5t-3.5 14.5t5.5 14.5t13 6.5h35t29 8q3 2 5.5 31.5t5.5 76.5t5.5 106.5
t4 121.5l3 122t2 107t0 77t-2.5 33q-8 11 -24 8.5t-32 -0.5q-8 1 -14 7.5t-6.5 14.5t5.5 14.5t21 8.5z" />
    <glyph glyph-name="braceright" unicode="}" horiz-adv-x="209" 
d="M49 740q16 0 34 -4t33.5 -13t26 -23.5t10.5 -34.5q0 -35 -2 -75t-6 -82.5t-8.5 -85.5l-8.5 -84q-5 -41 0 -61t14.5 -27.5t20 -7t18.5 -0.5q7 -1 8 -10t-2 -19.5t-8.5 -18t-11.5 -5.5q-12 5 -25.5 -5.5t-19.5 -30.5q-3 -10 -2.5 -26.5t1 -38t1 -46.5t-2.5 -52t-16.5 -38
t-30 -13t-32.5 1.5t-23 5.5q-8 2 -12 10.5t-4 17.5t4.5 16.5t13.5 9.5q9 1 16.5 -0.5t13.5 -2t11 2.5t10 14q4 11 5 29t0.5 38.5t-1.5 40.5t0 35t6 25t11.5 16.5l11.5 11.5t6 10t-4 10.5t-11 17t-11 31.5t-3 55q1 34 7.5 78t12 88.5t8 85t-4.5 69.5q-5 20 -22.5 30t-37.5 7
q-10 -2 -16 5.5t-6.5 17t6 17.5t22.5 8z" />
    <glyph glyph-name="numbersign" unicode="#" horiz-adv-x="348" 
d="M9 295q1 2 11.5 3.5t23 3t23 3.5t11.5 6v54q0 17 8 25t17.5 8t18 -7.5t8.5 -21.5l2 -36q-2 -11 2 -14t15 -2h32l13 1q3 3 2.5 5t1.5 7v35q0 17 8 25t17.5 8t18 -7.5t8.5 -21.5v-41q-2 -4 6.5 -5.5t19 -2t20 -1t10.5 -2.5q10 -16 6.5 -28.5t-11.5 -15.5q-1 0 -10.5 0.5
t-20 1t-18 -1t-5.5 -5.5l-2 -75q-2 -3 7.5 -4t21 -0.5t21.5 0.5t11 -2q6 -17 5 -30.5t-10 -13.5h-11h-20t-19.5 -1t-8.5 -4q-1 -1 -1 -8.5t0.5 -16.5l1 -17.5t0.5 -11.5q-1 -8 -6.5 -12t-12.5 -4t-13 3.5t-7 11.5q-2 5 -2 15t-1 24q0 4 -0.5 10t-8.5 6l-59 -2q-5 2 -7 -4.5
t-3 -16.5t-0.5 -19t0.5 -12q-1 -8 -6.5 -12t-12.5 -4t-13 3.5t-7 11.5q-1 3 0 11.5t1 18t-1.5 16.5t-6.5 7h-6q-8 0 -21.5 0.5t-24.5 3t-17 8.5t1 17q2 4 18 7.5t41 7.5q2 0 5 2t6 10q-1 15 -1 30.5v30.5v13q1 3 -12 4t-28 3t-25 7t-4 15zM191 187q9 2 9 4t2 10
q1 0 1.5 12.5t0 26t-1.5 24.5t-4 8q-2 1 -12.5 1.5t-43.5 0.5q-10 -4 -12 -7t-2 -7q-1 -14 -1 -33.5v-32.5q2 -10 4.5 -11t5.5 -1z" />
    <glyph glyph-name="bar" unicode="|" horiz-adv-x="93" 
d="M18 718q1 11 8 16.5t15.5 5.5t14.5 -5.5t5 -16.5q-1 -12 -2 -49.5t-1 -91t-0.5 -118l-1 -131l-1 -129.5t-1 -113t-1.5 -82.5t-3 -36.5q-5 -11 -18 -14.5t-18 14.5q-1 4 -1.5 36t-0.5 82v114t0.5 131l1 132t1.5 119t1.5 90.5t1.5 46.5z" />
    <glyph glyph-name="backslash" unicode="\" horiz-adv-x="240" 
d="M55 669q1 -1 8 -24t17 -60l22 -83.5l25 -95.5l25 -96.5l22 -85.5l16.5 -62.5t7.5 -28.5q2 -7 6 -19l8.5 -25.5t7.5 -27t3 -22.5t-4 -13.5t-9.5 -5t-11.5 2t-9 7.5q-3 3 -14.5 40.5l-28 92.5l-35.5 119l-35.5 121.5l-29 100t-16.5 53.5l-12 32.5t-10 28.5t-5.5 22.5
t1.5 15.5q3 5 10 9t15.5 6t15.5 1.5t10 -3.5z" />
    <glyph glyph-name="dollar" unicode="$" horiz-adv-x="266" 
d="M141 47q-5 1 -7 -5t-3 -13.5t-1.5 -14t-0.5 -7.5q-5 -11 -18 -14.5t-18 14.5q-2 6 -2 13.5t-0.5 15.5t-3.5 14t-9 9l-7 3q-29 12 -46.5 28.5t-20.5 21.5t1.5 14.5t12 17t15.5 10t13 -6.5q3 -8 11 -22.5t19 -21.5q4 -2 7 -2.5t8 8.5l1 108q0 6 -3 9.5t-9 7.5t-15 9t-20 13
q-17 12 -27.5 40t-14.5 64t-3 76.5t7 78t16.5 67.5t25.5 46q8 8 16 13t18 9t12 7.5t2 20.5q1 11 8 16.5t15 5.5t14.5 -5.5t5.5 -16.5q-2 -19 -1 -22t10 -5q35 -9 61.5 -37.5t28.5 -69.5q1 -19 -7 -28t-17.5 -10t-18 6.5t-8.5 21.5t-6 32t-21 29q-2 1 -6 1.5t-8 -0.5t-7 -4
t-3 -10l-2 -306q4 -14 13.5 -20.5t21 -11.5t24 -9.5t22.5 -13.5q20 -18 23 -47t-8 -57t-34 -48.5t-56 -21.5zM88 280q3 -2 5 15t2.5 45t1 63.5t0.5 70.5v65.5v49.5q-4 10 -7.5 8.5t-7.5 -6.5q-8 -10 -16 -33.5t-14 -54t-9 -64.5t0.5 -65.5t14 -56.5t30.5 -37zM133 104
q2 -11 8.5 -10.5t11.5 2.5q20 9 29 22.5t10.5 27t-3.5 25t-13 17.5q-3 1 -10 6t-14 8.5t-12.5 4t-5.5 -5.5z" />
    <glyph glyph-name="cent" unicode="&#xa2;" horiz-adv-x="292" 
d="M127 678q1 11 8 16.5t15.5 5.5t14.5 -5.5t5 -16.5q-1 -5 -1.5 -13t-0.5 -31q0 -8 8.5 -8.5t19 0.5l21 2t15.5 -3q14 -14 10 -28.5t-18 -17.5q-21 -5 -42 -2q-4 1 -10.5 -1t-4.5 -9q-1 -45 -1.5 -100t-0.5 -112t-0.5 -112.5t-1.5 -100.5q2 -12 3.5 -13t3.5 -2
q4 -2 13.5 -0.5t21 4t22.5 6t19 5.5q9 3 15 -3.5t8 -15.5t-1.5 -18t-13.5 -13q-14 -5 -31 -8.5t-31 -5.5t-23 -4.5t-7 -6.5q-2 -44 -3 -50q-5 -11 -18 -14.5t-18 14.5q-2 6 -2 55q0 8 -9.5 12t-26.5 14q-24 14 -41.5 48.5t-27.5 79.5t-12.5 96.5t3.5 100t20.5 90t38.5 67.5
q12 13 23 20t19 11.5t12.5 8t4.5 10.5v6q0 14 0.5 25.5t1.5 16.5zM112 136q3 -2 5 -2t4 9v95.5t0.5 107l1 108.5t1.5 99q0 4 -0.5 7t-5.5 4q-25 -21 -41.5 -57t-24.5 -79t-8 -88.5t7.5 -86t23 -72t37.5 -45.5z" />
    <glyph glyph-name="Euro" unicode="&#x20ac;" horiz-adv-x="353" 
d="M4 280q2 3 14 6.5t32 7.5q2 0 3 1.5t3 7.5q-1 55 2.5 110t11 101t18.5 79t25 44q52 41 104.5 35.5t105.5 -50.5q-1 -19 -9 -26.5t-17 -9t-16.5 1t-8.5 2.5l-38 18t-31.5 10t-28 -2t-26.5 -18q-12 -13 -21 -42.5t-14.5 -69.5t-7.5 -86.5t-1 -92.5q2 -4 3 -4h3q27 3 55 5
t51 2.5t38 -1.5t17 -7q13 -37 -5 -44q-2 -1 -14.5 -1h-30h-37t-36.5 -1t-28 -3t-11 -6v-34q0 -6 1 -8t7 -2q26 3 53 5t48.5 2.5t36 -1.5t16.5 -7q13 -37 -5 -44q-2 -1 -14.5 -2t-31.5 -2t-42.5 -2t-47.5 -1q-11 0 -12 -4t1 -12q5 -23 11.5 -39t15.5 -21q35 -23 73.5 -19
t66.5 45q7 10 19.5 12t21 -3t9 -17t-16.5 -31q-18 -20 -42.5 -34.5t-52 -19.5t-56 1t-55.5 28q-7 6 -15 20t-15 30.5t-12 32.5t-7 27q0 2 -11 2t-23.5 2t-21.5 8t-4 21q1 4 16 7t37 8q6 0 5.5 2t-0.5 7l-3 33q0 4 -1 9t-5 5q-6 0 -17 0.5t-20 3.5t-13.5 9t1.5 16z" />
    <glyph glyph-name="sterling" unicode="&#xa3;" horiz-adv-x="347" 
d="M5 231q3 4 13 7l20.5 6t18.5 6.5t8 10.5q-5 52 -4 106t8 102.5t20.5 88t33.5 62.5q26 30 53 40.5t50 10.5t40 -5.5t23 -8.5q9 -5 13 -12t3 -14t-6.5 -12.5t-17.5 -7.5t-25 0t-27 3t-28 -1.5t-26 -12.5q-23 -20 -37.5 -56t-21.5 -81t-7.5 -95.5t4.5 -97.5q4 -11 6 -12
t4 -1q22 3 42.5 5t37 2.5t27 -1t12.5 -5.5q13 -37 -5 -44q-4 -2 -33 -4.5l-65 -5.5q-4 0 -7.5 -2t-5.5 -11q8 -33 17.5 -59.5t21.5 -40.5q15 -19 35.5 -20t41 4t37 11t24.5 1q15 -11 21 -22t-13 -23q-11 -7 -37.5 -13.5t-56.5 -5.5t-57.5 12t-41.5 38q-2 4 -4 6.5t-4 -7.5
q-3 -11 -8.5 -23t-13 -22.5t-17 -18t-19.5 -10.5q-13 -2 -21.5 3.5t-11 14t2 17t16.5 13.5q16 7 25.5 23t14 35.5t4 40.5t-5.5 38q-2 7 -9.5 10.5t-17 5.5t-19.5 2.5t-17 0.5q-2 0 -5 2t-5 6t-2 9.5t4 11.5z" />
    <glyph glyph-name="mu" unicode="&#xb5;" horiz-adv-x="392" 
d="M367 -3q0 -4 -6 -6t-13.5 -2t-15.5 1.5t-12 6.5q-4 4 -3 23t3 41t2.5 40t-3.5 20q-5 -2 -12.5 -21t-21.5 -41t-36.5 -40t-57.5 -18q-24 0 -43.5 12t-34.5 27.5t-25 32.5l-16.5 27.5t-9.5 12t-2 -13.5q0 -44 -0.5 -84t-1 -72t-1.5 -52.5t-2 -23.5q-2 -6 -8 -10t-12.5 -4.5
t-12.5 2.5t-8 12q-2 8 -2.5 56.5t-1 120t0 158t0.5 169t0.5 153t0.5 111.5q-1 10 7.5 14.5t19 3.5t20 -6t11.5 -12q1 -8 -0.5 -32t-3 -68.5t-2.5 -111t2 -159.5q1 -26 12.5 -62.5t29 -69.5t39 -56t41.5 -22q22 1 39 15.5t29.5 35.5t21.5 47t15 51t9.5 45.5l5.5 31.5
q8 40 10.5 92t2.5 104.5t-1.5 99t0.5 73.5q0 6 6.5 10t15 5t16 -2.5t9.5 -12.5q1 -4 2 -31.5t1.5 -70.5t0.5 -97.5t0.5 -112t0 -114t-1 -103t-1.5 -79.5t-2 -44z" />
    <glyph glyph-name="mu" unicode="&#x3bc;" horiz-adv-x="392" 
d="M367 -3q0 -4 -6 -6t-13.5 -2t-15.5 1.5t-12 6.5q-4 4 -3 23t3 41t2.5 40t-3.5 20q-5 -2 -12.5 -21t-21.5 -41t-36.5 -40t-57.5 -18q-24 0 -43.5 12t-34.5 27.5t-25 32.5l-16.5 27.5t-9.5 12t-2 -13.5q0 -44 -0.5 -84t-1 -72t-1.5 -52.5t-2 -23.5q-2 -6 -8 -10t-12.5 -4.5
t-12.5 2.5t-8 12q-2 8 -2.5 56.5t-1 120t0 158t0.5 169t0.5 153t0.5 111.5q-1 10 7.5 14.5t19 3.5t20 -6t11.5 -12q1 -8 -0.5 -32t-3 -68.5t-2.5 -111t2 -159.5q1 -26 12.5 -62.5t29 -69.5t39 -56t41.5 -22q22 1 39 15.5t29.5 35.5t21.5 47t15 51t9.5 45.5l5.5 31.5
q8 40 10.5 92t2.5 104.5t-1.5 99t0.5 73.5q0 6 6.5 10t15 5t16 -2.5t9.5 -12.5q1 -4 2 -31.5t1.5 -70.5t0.5 -97.5t0.5 -112t0 -114t-1 -103t-1.5 -79.5t-2 -44z" />
    <glyph glyph-name="currency" unicode="&#xa4;" horiz-adv-x="363" 
d="M80 686q8 -21 15 -31.5t18 -5.5q49 12 102 0q15 -6 18.5 -4.5t9.5 13.5l15 31q2 3 7.5 5t11.5 2t11.5 -2.5t8.5 -7.5q5 -6 1 -19t-12 -30q-3 -14 -1.5 -17.5t3.5 -5.5q23 -22 34.5 -61t14 -86.5t-3 -98.5t-15 -98t-22.5 -85.5t-26 -59.5l-5 -8q-4 -6 2 -21.5t13.5 -32.5
t13.5 -32t3 -19q-3 -5 -8.5 -7t-11.5 -2t-11.5 1.5t-7.5 4.5q-11 17 -29 64q-1 3 -3 5.5t-8 3.5q-24 -13 -51.5 -17t-55.5 2h-8q-2 0 -5.5 -8.5l-7.5 -18.5t-6.5 -18.5t-3.5 -8.5q-3 -4 -9.5 -5t-13 1t-11 6.5t-4.5 12.5q0 2 4 11.5l8.5 20.5t7 21t-1.5 14q-19 19 -31 59.5
t-18 91.5t-5.5 107.5t5.5 108t15.5 92t24.5 60.5q2 2 3 5.5t1 13.5q-5 18 -10 28t-5 15q0 7 5.5 11.5t13 6t14 -0.5t7.5 -7zM95 592q-15 -14 -24.5 -52t-14 -87.5t-4 -104.5t5 -102.5t13.5 -81.5t22 -41q30 -18 63 -18q20 2 39 11t33 29q8 11 20 42.5t22.5 74t17 91.5
t5.5 94t-12 82t-37 56q-17 12 -38 19.5t-41 8.5t-38.5 -4t-31.5 -17z" />
    <glyph glyph-name="yen" unicode="&#xa5;" horiz-adv-x="368" 
d="M39 180q3 5 32 11t67 11q3 1 8 2.5t4 10.5v6.5t-3.5 13.5t-11.5 12.5t-23 3.5h-24.5t-28.5 2.5t-20.5 8.5t0.5 18q2 3 18 7t39 8q25 3 19 19l-34 98.5l-36 101.5l-29.5 83l-15.5 43q-4 12 1.5 22t15 15t20 3.5t15.5 -12.5q3 -6 10.5 -29l17.5 -55l22 -70l23.5 -75l21 -70
t16.5 -54q6 -9 10 -9t10 11l17.5 52.5l23 67.5l25 73.5l23.5 70.5t18.5 57.5l10.5 34.5q5 18 15 24t18.5 1.5t14 -17t1.5 -30.5q-3 -12 -16.5 -49.5l-32 -86.5l-39.5 -102l-37 -97q-2 -10 3.5 -10h9.5q26 1 46 0t22 -6q12 -36 -5 -42q-9 -5 -26.5 -5.5t-34.5 0t-29 0
t-11 -5.5q-3 -8 -2.5 -18.5t1.5 -12.5q0 -8 15.5 -9.5t35 -0.5t37 1t19.5 -5q12 -36 -5 -42q-3 -2 -25.5 -2.5t-54.5 -2.5q-5 0 -14.5 -1.5t-8.5 -9.5q0 -18 0.5 -36.5t1 -35t0.5 -28.5v-16q0 -9 -7.5 -15.5t-16.5 -8t-17 4t-9 21.5q0 8 0.5 29t0.5 42t-2 36.5t-8 13.5
q-24 -3 -45.5 -3t-36.5 3t-21 10t1 19z" />
    <glyph glyph-name="florin" unicode="&#x192;" horiz-adv-x="264" 
d="M88 202q-2 4 -11 4.5t-20.5 0.5t-23 -0.5t-18.5 1.5t-11 9.5t-4 15.5t4 14.5t14 6.5t21 -0.5t21.5 -0.5t18.5 1.5t11 4.5q2 2 2 27t-0.5 62.5t-1 82t0.5 85.5t3.5 73t8.5 45q9 19 22.5 29t28 13.5t28.5 3.5h25q10 0 15.5 -9t5.5 -19t-4 -18t-13 -8q-17 1 -34.5 -0.5
t-28.5 -16.5q-4 -5 -6 -32t-3 -64.5t-1 -80.5v-79.5t1 -62t2 -28.5q2 -6 13.5 -8t25.5 -2t27.5 0.5t19.5 0.5q5 0 8 -9t2.5 -19t-5.5 -18t-15 -7l-23 2t-23 1.5t-19.5 0t-11.5 -2.5q-2 -2 -2 -8v-10q0 -14 -0.5 -34t-2 -40t-4 -37.5t-6.5 -26.5q-9 -19 -22.5 -29t-28 -13.5
t-29 -3.5h-24.5q-11 0 -16 9t-5 19t4 18t13 8q17 -1 34.5 0.5t28.5 16.5q3 5 5.5 24.5t4 41.5t1 41t-2.5 25z" />
    <glyph glyph-name="paragraph" unicode="&#xb6;" horiz-adv-x="328" 
d="M292 654q-1 -9 -1 -40v-75t0.5 -96.5t2.5 -106.5q2 -86 3 -145t0.5 -97t-2 -57t-4.5 -25q-5 -11 -18 -8.5t-18 15.5q-3 6 -4 30t-2 51t-2 49.5t-4 25.5q-5 6 -15 7.5t-27 3.5q-4 0 -7 -1t-7 -10q-1 -33 -2 -62.5t-1.5 -51.5t-1.5 -36t-2 -16q-5 -11 -18 -14.5t-18 14.5
q-2 9 -2.5 22.5t0 28t1.5 27t1 20.5q0 2 1 16t1.5 30.5t-0.5 30t-5 14.5l-9 3q-25 8 -47.5 25t-40 46t-28.5 71t-13 101q-2 63 14 105.5t41.5 69t57 40.5t59.5 19.5t48.5 5t25.5 -1.5q7 -2 15 -3t14.5 -3.5t10.5 -7.5t3 -14zM251 606q0 8 -2 11.5t-22 3.5h-15q-8 -3 -9.5 -6
t-1.5 -7q-2 -27 -4 -68t-3.5 -89l-3 -101t-2.5 -104q0 -11 2.5 -12t4.5 -1q11 -2 18.5 -3t11.5 -1q8 -1 12 2t5.5 7t2 9t0.5 8q0 2 0.5 28t1.5 64t1.5 82t1 82.5t1 65t0.5 29.5z" />
    <glyph glyph-name="guilsinglleft" unicode="&#x2039;" horiz-adv-x="267" 
d="M187 434q13 12 25 12.5t20 -6t10 -18t-7 -23.5q-3 -4 -25.5 -20.5l-51 -38.5t-56.5 -46t-41 -43q-8 -12 -7 -23t22 -24q19 -12 45 -25l50.5 -25l43 -21.5t23.5 -12.5q7 -5 7.5 -15.5t-4 -20t-12.5 -15t-17 -1.5q-7 3 -30.5 16.5l-51.5 30l-55.5 33.5t-43.5 26
q-16 10 -23 24t-6.5 29.5t7 30t17.5 25.5l42.5 41.5l48 45.5l43 39.5z" />
    <glyph glyph-name="guillemotleft" unicode="&#xab;" horiz-adv-x="375" 
d="M169 449q13 12 25 12.5t20 -6t10 -18t-7 -23.5q-3 -4 -22.5 -22.5l-45 -43.5l-50.5 -51.5t-38 -45.5q-8 -12 -6 -21.5t21 -25.5q18 -16 37.5 -31l36.5 -27l29.5 -21t17.5 -12q7 -5 7.5 -15.5t-4 -20t-12.5 -15t-17 -1.5q-7 3 -24.5 16t-38.5 30.5l-42 35.5l-35 31
q-32 30 -29 59t24 50q18 18 39.5 43.5l42 50.5l37 45t24.5 27zM297 444q13 12 25 12.5t20 -6t10 -18t-7 -23.5q-3 -4 -21.5 -18.5l-42 -34.5l-47.5 -42.5t-37 -41.5q-4 -6 -9.5 -11.5t-8 -11.5t-0.5 -12t13 -12l44 -27l48 -29l41 -25l23 -14q7 -5 7.5 -15.5t-4 -20
t-12.5 -15t-17 -1.5q-7 3 -29.5 18l-49.5 34l-53.5 37.5t-42.5 27.5q-16 10 -19.5 24t0.5 29.5t13.5 30t20.5 25.5l38.5 39.5l39 41.5l34 36t23.5 23z" />
    <glyph glyph-name="guilsinglright" unicode="&#x203a;" horiz-adv-x="267" 
d="M59 434l27.5 -24.5l43 -39.5l48 -45.5l42.5 -41.5q10 -11 17 -25.5t7.5 -30t-6.5 -29.5t-23 -24q-16 -9 -43.5 -26l-55.5 -33.5l-51.5 -30t-30.5 -16.5q-9 -4 -17 1.5t-12.5 15t-4 20t7.5 15.5q5 3 23.5 12.5l43 21.5l50.5 25t45 25q21 13 22 24t-7 23q-13 19 -41 43
t-56.5 46l-51 38.5t-25.5 20.5q-9 12 -7 23.5t10 18t20 6t25 -12.5z" />
    <glyph glyph-name="guillemotright" unicode="&#xbb;" horiz-adv-x="378" 
d="M187 449q8 -7 24.5 -27l37 -45l42 -50.5t39.5 -43.5q21 -21 24 -50t-29 -59l-35 -31l-42 -35.5t-38.5 -30.5t-24.5 -16q-9 -4 -17 1.5t-12.5 15t-4 20t7.5 15.5q5 3 17.5 12l29.5 21l36.5 27t37.5 31q19 16 21 25.5t-6 21.5q-13 19 -38 45.5l-50.5 51.5l-45 43.5
t-22.5 22.5q-9 12 -7 23.5t10 18t20 6t25 -12.5zM59 444q8 -7 23.5 -23l34 -36l39 -41.5l38.5 -39.5q10 -11 20 -25.5t14 -30t0.5 -29.5t-19.5 -24q-16 -9 -42.5 -27.5l-53.5 -37.5l-49.5 -34t-29.5 -18q-9 -4 -17 1.5t-12.5 15t-4 20t7.5 15.5l22.5 14l41 25l48.5 29l44 27
q10 6 12.5 12t0 12t-8 11.5t-9.5 11.5q-13 19 -37 41.5l-47.5 42.5l-42 34.5t-21.5 18.5q-9 12 -7 23.5t10 18t20 6t25 -12.5z" />
    <glyph glyph-name="percent" unicode="%" horiz-adv-x="399" 
d="M311 624q3 2 10 1t14.5 -4.5t14 -9t8.5 -11.5q4 -12 -12.5 -36t-34.5 -54q-6 -10 -27.5 -48.5l-51 -91l-61.5 -111.5l-60.5 -109l-48 -83.5t-22.5 -36.5q-5 -4 -11 -5t-11.5 1t-8.5 7t0 14q2 9 8 21t13 24l13.5 23l10.5 18q2 3 13.5 26l29.5 57.5l40 78l45.5 88.5
l45.5 88l40 76.5l29.5 54.5t13.5 22zM86 577q87 2 91 -81q1 -21 -3 -40.5t-13 -35t-23.5 -25t-33.5 -10.5q-20 -1 -38 2t-32 12.5t-22.5 25.5t-8.5 41q-1 50 19.5 80t63.5 31zM95 540q-26 2 -36.5 -14t-12.5 -42t9 -43t34 -17t35 16t12 40t-7.5 41t-33.5 19zM287 319
q87 2 91 -81q1 -21 -3 -40.5t-13 -35t-23.5 -25t-33.5 -10.5q-20 -1 -38 2t-32 12.5t-22.5 25.5t-8.5 41q-1 50 19.5 80t63.5 31zM296 282q-26 2 -36.5 -14t-12.5 -42t9 -43t34 -17t35 16t12 40t-7.5 41t-33.5 19z" />
    <glyph glyph-name="perthousand" unicode="&#x2030;" horiz-adv-x="508" 
d="M441 573q4 1 10 -2.5t11.5 -10t9.5 -14t3 -13.5q-1 -13 -25 -29l-52 -36q-10 -7 -40 -31l-69.5 -56l-84 -67l-82 -65l-64 -50t-30.5 -21q-6 -2 -12 -1t-10.5 4.5t-5.5 9.5t5 14q2 1 21 17l49 41.5l68 58l77 66.5l77.5 66.5l69 58.5l50.5 42.5t24 17.5zM131 577
q87 2 91 -81q1 -21 -3 -40.5t-13 -35t-23.5 -25t-33.5 -10.5q-20 -1 -38 2t-32 12.5t-22.5 25.5t-8.5 41q-1 50 19.5 80t63.5 31zM140 540q-26 2 -36.5 -14t-12.5 -42t9 -43t34 -17t35 16t12 40t-7.5 41t-33.5 19zM242 289q87 2 91 -81q1 -21 -3 -40.5t-13 -35t-23.5 -25
t-33.5 -10.5q-20 -1 -38 2t-32 12.5t-22.5 25.5t-8.5 41q-1 50 19.5 80t63.5 31zM251 252q-26 2 -36.5 -14t-12.5 -42t9 -43t34 -17t35 16t12 40t-7.5 41t-33.5 19zM392 319q87 2 91 -81q1 -21 -3 -40.5t-13 -35t-23.5 -25t-33.5 -10.5q-20 -1 -38 2t-32 12.5t-22.5 25.5
t-8.5 41q-1 50 19.5 80t63.5 31zM401 282q-26 2 -36.5 -14t-12.5 -42t9 -43t34 -17t35 16t12 40t-7.5 41t-33.5 19z" />
    <glyph glyph-name="exclamdown" unicode="&#xa1;" horiz-adv-x="97" 
d="M56 15q1 9 2.5 49t3 96t2.5 121t1.5 124t0 105.5t-1.5 65.5q-1 9 -6 12.5t-11 2.5t-11.5 -5t-7.5 -10q-2 -4 -4 -29t-4 -62.5t-4 -85l-4 -97.5t-3 -99t-2 -89.5t-1 -69t1 -37.5q1 -6 9 -9t17.5 -2t16.5 5.5t6 13.5zM67 624q-17 -19 -38 -1q-8 7 -12 15.5t1 20.5
q3 6 12 10t19 4t18.5 -4t9.5 -14q1 -6 -1 -14.5t-9 -16.5z" />
    <glyph glyph-name="at" unicode="@" horiz-adv-x="481" 
d="M261 349q1 16 9.5 20t18 0t17.5 -14t9 -22t-1 -32t-3 -41.5t0.5 -41.5t9.5 -33q6 -11 17.5 -11t25.5 25q11 20 20.5 64t12 96.5t-6.5 106.5t-36 95q-27 40 -64 58.5t-74.5 18t-69 -17.5t-47.5 -47q-11 -20 -20 -60t-15.5 -89.5t-9 -104t1 -102.5t14 -85t29.5 -53
q29 -23 63.5 -29t67 -2.5t57.5 13.5t36 18q10 8 22.5 6t21 -9t10 -16.5t-9.5 -16.5q-8 -5 -27 -13t-45 -15.5t-57 -12.5t-62 -3t-60 12.5t-51 33.5t-36 64.5t-20.5 92.5t-6 108t7.5 111t20 101.5t31 80.5q27 49 74 68.5t97 15.5t95 -29t69 -65q22 -36 34 -90t13.5 -112
t-8.5 -114t-32 -97q-17 -33 -32 -46.5t-28 -14.5t-24.5 7t-23.5 18l-15.5 14t-6.5 4t-4.5 -4t-9.5 -11t-21.5 -15.5t-32.5 -13t-37.5 -2.5t-37.5 17t-25.5 40t-7.5 51t6 49t15 34q14 18 34.5 23t41 3.5t38 -6.5t26.5 -6q5 -1 3 4t0 24zM263 264q-1 4 -16.5 10t-35.5 9.5
t-38 2.5t-23 -10t-8.5 -23.5t-3.5 -30.5t4 -30t14 -21q10 -8 24 -7.5t28.5 5.5t27 14t19.5 18t9 18.5t2 18t-1 15t-2 11.5z" />
    <glyph glyph-name="section" unicode="&#xa7;" horiz-adv-x="283" 
d="M242 584q1 -19 -7.5 -28t-19.5 -10t-20 6.5t-9 21.5t-9 31.5t-23.5 27.5t-33 8t-38.5 -26q-10 -12 -17.5 -48.5t-10.5 -81.5q2 -29 8 -50t15 -28q15 -11 33.5 -16.5t37.5 -10.5t37.5 -13.5t33.5 -25.5q10 -12 17.5 -29.5t10 -37t0 -40.5t-10.5 -40q9 -21 11.5 -46
t-3.5 -50t-20.5 -47t-40.5 -36t-55.5 -9t-55 18t-44 28t-21.5 20t1.5 14.5t12 17t15.5 10t13 -6.5q4 -9 16 -19.5t27 -18t32.5 -10t33.5 4.5q20 9 29.5 25t10.5 34t-4.5 35.5t-14.5 29.5q-8 11 -23.5 16.5t-34 10.5t-38.5 12t-37 22q-14 12 -23 43.5t-13.5 73t-3.5 88t6 89
t15.5 76t24.5 49.5q22 24 54 27.5t61.5 -9.5t51 -39.5t23.5 -62.5zM55 351q3 -23 8.5 -40.5t13.5 -23.5q12 -9 26 -14t28.5 -9l29.5 -8.5t29 -11.5q2 -1 3.5 0.5t3.5 12.5q-2 15 -6.5 28t-11.5 23q-8 9 -20.5 14t-28.5 9.5l-33.5 9.5t-33.5 15z" />
    <glyph glyph-name="logicalnot" unicode="&#xac;" horiz-adv-x="292" 
d="M8 227q2 4 21 8.5t46 8.5t58.5 6.5t58.5 3.5t46.5 -1t22.5 -7q4 -6 5 -22.5t1 -34.5t-1 -34t-2 -22q-2 -8 -7.5 -12t-12.5 -4t-12.5 3.5t-6.5 11.5q-1 5 0 16.5t1 23.5t-2 21.5t-8 9.5h-5q-20 0 -44.5 -1.5t-49.5 -2.5t-47.5 -1t-38.5 2.5t-23 9t0 17.5z" />
    <glyph glyph-name="fi" unicode="&#xfb01;" horiz-adv-x="377" 
d="M92 28q1 10 0.5 35.5t-1.5 54t-2.5 52t-3.5 29.5t-10.5 7t-19.5 1t-22 -0.5t-18 1.5t-11 9.5t-4 15.5t4 14.5t14 6.5t21 -0.5t21.5 -0.5t18.5 1.5t11 4.5q2 2 2 28t-0.5 64.5t-1 84.5t0.5 88t3.5 75t8.5 46q9 19 22.5 29t28 13.5t28.5 3.5h25q10 0 15.5 -9t5.5 -19
t-4 -18t-13 -8q-17 1 -34.5 -0.5t-28.5 -16.5q-3 -5 -5.5 -32.5t-3.5 -66.5t-1 -83.5t0.5 -82.5t1 -64t1.5 -29q1 -5 13 -7t29.5 -2.5t37.5 0t38.5 0.5t32.5 -1t18 -4t5.5 -21t1 -43t-2 -53.5t-3.5 -54t-4 -44.5t-4 -23q-5 -11 -18 -14.5t-18 14.5q-2 6 -2 23t0.5 39
t0.5 45.5t-1 43.5t-3.5 32t-7.5 11q-14 1 -32.5 1.5t-36 0.5t-30 -1t-15.5 -3t-1.5 -24.5t4.5 -51t6.5 -56.5t3.5 -41t-10 -18.5t-21.5 -4.5t-21 7t-8.5 16zM257 330q1 6 11 9.5t21 4t20.5 -3t9.5 -10.5v-11t-0.5 -7t-1.5 -7t-2 -10q-2 -6 -11 -9t-19.5 -3t-19 2t-8.5 7
q0 9 -1 17t1 21z" />
    <glyph glyph-name="fl" unicode="&#xfb02;" horiz-adv-x="532" 
d="M92 28q1 10 0.5 35.5t-1.5 54t-2.5 52t-3.5 29.5t-10.5 7t-19.5 1t-22 -0.5t-18 1.5t-11 9.5t-4 15.5t4 14.5t14 6.5t21 -0.5t21.5 -0.5t18.5 1.5t11 4.5q2 2 2 28t-0.5 64.5t-1 84.5t0.5 88t3.5 75t8.5 46q9 19 39.5 28t65.5 11.5t66 1.5t42 -1q12 -1 17.5 -12.5
t3.5 -22.5v-1q1 -6 0 -33l-2.5 -68t-4.5 -91.5t-5.5 -102.5l-5 -102t-3.5 -90t0 -65.5t4 -28.5q4 -5 18.5 -5t34 1.5t41 4t40 4t30.5 0t13 -7.5q2 -18 2 -28.5t-11 -10.5q-4 0 -20 -2l-38.5 -5t-48 -6t-48 -4.5t-38 -1.5t-17.5 4q-1 1 -1.5 15.5t-0.5 35.5t-1 45.5t-2 45
t-3 34.5t-5 14l-11 1q-16 1 -35 2t-35.5 1t-28.5 -1t-15 -3t-1.5 -24.5t4.5 -51t6.5 -56.5t3.5 -41t-10 -18.5t-21.5 -4.5t-21 7t-8.5 16zM141 262q1 -4 22.5 -6.5t46 -2.5t45 2.5t20.5 7.5q0 52 1 106t2 102.5t2.5 88t3.5 62.5q0 3 -0.5 5.5t-8.5 4.5q-18 1 -39 1t-39.5 -1
t-32 -4t-16.5 -8t-5.5 -32.5t-3.5 -66.5t-1 -83.5v-82.5t1 -64t2 -29z" />
    <glyph glyph-name="ampersand" unicode="&#x26;" horiz-adv-x="250" 
d="M193 600q-49 4 -81 -17.5t-48.5 -56t-16.5 -77.5t15.5 -82t45.5 -69t75 -38q14 -3 18 -12.5t2.5 -21t-7 -20.5t-11.5 -10q-66 -11 -90 -30t-15.5 -37t44 -30t89.5 -10q10 0 12.5 -7.5t0.5 -16.5t-7 -17t-9 -8q-26 -2 -48 0q-3 0 -6 -1t-6 -10l-1 -17q-1 -8 -6.5 -12
t-12.5 -4t-13 3.5t-7 11.5l-3 27q0 3 -1.5 6.5t-8.5 8.5q-36 12 -55 33.5t-17.5 45.5t24 49t68.5 45q5 4 3.5 5.5l-3.5 3.5q-50 28 -80.5 80t-36.5 110t14.5 112.5t71.5 86.5q4 3 7.5 5t6 6.5t3 13t-2.5 24.5q-1 17 7 25t17.5 8t18.5 -7.5t9 -21.5q2 -19 1.5 -22.5t2.5 -3.5
l34 4q12 0 16 -9t3.5 -19.5t-5.5 -19t-11 -7.5z" />
    <glyph glyph-name="agrave" unicode="&#xe0;" horiz-adv-x="354" 
d="M84 615q-14 0 -21 7.5t-7 16.5t7 17.5t21 10.5q13 2 42 3.5t60 0t57 -8t34 -19.5q13 -23 21 -71.5t12 -110t5 -130t0 -130.5t-2 -111.5t-1 -72.5q0 -9 -8.5 -12.5t-18 -2.5t-17.5 5t-7 10q2 13 2.5 20t-7.5 12q-3 1 -23 -7t-48.5 -16.5t-60.5 -13t-59 4.5t-44.5 36.5
t-15.5 82.5q1 40 19.5 62.5t45 32.5t58 11t59.5 -1.5t48 -6t24 -1.5q4 1 6 26.5t2 63t-2 81.5t-5.5 84t-8.5 70t-12 38q-10 13 -30 17.5t-43 5t-45.5 -1.5t-36.5 -2zM258 176q-4 2 -20 6.5t-38 8t-46.5 4.5t-45 -3.5t-34 -16t-13.5 -32.5q0 -36 14.5 -53.5t36.5 -22.5
t47.5 -0.5t48 13t38.5 17t18 12.5q3 6 5 15.5t1 20t-3.5 19t-8.5 12.5zM135 845l34 -49.5l36 -52.5q7 -11 5 -20t-9 -13.5t-16 -3t-15 11.5l-77 96q-8 9 -5.5 20t10 17.5t18 6.5t19.5 -13z" />
    <glyph glyph-name="aacute" unicode="&#xe1;" horiz-adv-x="354" 
d="M84 615q-14 0 -21 7.5t-7 16.5t7 17.5t21 10.5q13 2 42 3.5t60 0t57 -8t34 -19.5q13 -23 21 -71.5t12 -110t5 -130t0 -130.5t-2 -111.5t-1 -72.5q0 -9 -8.5 -12.5t-18 -2.5t-17.5 5t-7 10q2 13 2.5 20t-7.5 12q-3 1 -23 -7t-48.5 -16.5t-60.5 -13t-59 4.5t-44.5 36.5
t-15.5 82.5q1 40 19.5 62.5t45 32.5t58 11t59.5 -1.5t48 -6t24 -1.5q4 1 6 26.5t2 63t-2 81.5t-5.5 84t-8.5 70t-12 38q-10 13 -30 17.5t-43 5t-45.5 -1.5t-36.5 -2zM258 176q-4 2 -20 6.5t-38 8t-46.5 4.5t-45 -3.5t-34 -16t-13.5 -32.5q0 -36 14.5 -53.5t36.5 -22.5
t47.5 -0.5t48 13t38.5 17t18 12.5q3 6 5 15.5t1 20t-3.5 19t-8.5 12.5zM196 845q9 13 19.5 13t18 -6.5t9.5 -17.5t-5 -20l-77 -96q-6 -10 -15 -11.5t-16 3t-9.5 13.5t5.5 20l36 52.5z" />
    <glyph glyph-name="acircumflex" unicode="&#xe2;" horiz-adv-x="354" 
d="M84 615q-14 0 -21 7.5t-7 16.5t7 17.5t21 10.5q13 2 42 3.5t60 0t57 -8t34 -19.5q13 -23 21 -71.5t12 -110t5 -130t0 -130.5t-2 -111.5t-1 -72.5q0 -9 -8.5 -12.5t-18 -2.5t-17.5 5t-7 10q2 13 2.5 20t-7.5 12q-3 1 -23 -7t-48.5 -16.5t-60.5 -13t-59 4.5t-44.5 36.5
t-15.5 82.5q1 40 19.5 62.5t45 32.5t58 11t59.5 -1.5t48 -6t24 -1.5q4 1 6 26.5t2 63t-2 81.5t-5.5 84t-8.5 70t-12 38q-10 13 -30 17.5t-43 5t-45.5 -1.5t-36.5 -2zM258 176q-4 2 -20 6.5t-38 8t-46.5 4.5t-45 -3.5t-34 -16t-13.5 -32.5q0 -36 14.5 -53.5t36.5 -22.5
t47.5 -0.5t48 13t38.5 17t18 12.5q3 6 5 15.5t1 20t-3.5 19t-8.5 12.5zM196 827l13.5 -17t17.5 -24l17 -24.5t11 -18.5t-0.5 -14.5t-11 -11.5t-16.5 -2t-17 15q-17 25 -27.5 42.5t-15.5 17.5q-3 0 -8 -7.5t-10 -17.5l-10.5 -20.5t-8.5 -17.5q-4 -7 -13.5 -9t-18.5 1
t-13.5 10.5t1.5 18.5t14 23.5l16 24l14.5 21t10.5 13.5q18 20 31 16t24 -19z" />
    <glyph glyph-name="atilde" unicode="&#xe3;" horiz-adv-x="354" 
d="M84 615q14 0 36.5 2t45.5 1.5t43 -5t30 -17.5q7 -9 12 -38.5t8.5 -69.5t5.5 -84t2 -81.5t-2 -63t-6 -26.5q-4 -2 -24 1.5t-48 6t-59.5 1.5t-58 -11t-45 -32.5t-19.5 -62.5q-2 -55 15.5 -82.5t44.5 -36.5t59 -4.5t60.5 13t48.5 17t23 6.5q8 -5 7.5 -12t-2.5 -20
q-1 -6 7 -10t17.5 -5t18 2.5t8.5 12.5q0 23 1 72.5t2 111.5t0 130.5t-5 130t-12 110.5t-21 71q-8 13 -34 19.5t-57 8t-60 0t-42 -3.5q-14 -2 -21 -10.5t-7 -17.5t7 -16.5t21 -7.5zM258 176q6 -4 8.5 -12.5t3.5 -19t-1 -20t-5 -15.5q-2 -4 -18 -12.5t-38.5 -17t-48 -13
t-47.5 0.5t-36.5 22.5t-14.5 53.5q0 21 13.5 32.5t34 16t45 3.5t46.5 -4.5t38 -8t20 -6.5zM154 825q9 0 18 -8t16.5 -18.5l13 -18.5t8.5 -8q11 2 20 17.5t20 28.5q6 6 13 6t13 -4t8.5 -11t-0.5 -14t-12 -20.5t-19.5 -26.5t-21.5 -22.5t-19 -9.5q-12 0 -20.5 9t-15.5 19
t-12 18t-10 7q-7 -2 -12.5 -8t-10 -13.5l-9 -15.5t-8.5 -12q-4 -5 -12.5 -3.5t-15.5 6.5t-9.5 13t4.5 17t15 21t17 23.5t19.5 19.5t21.5 8z" />
    <glyph glyph-name="adieresis" unicode="&#xe4;" horiz-adv-x="354" 
d="M84 615q-14 0 -21 7.5t-7 16.5t7 17.5t21 10.5q13 2 42 3.5t60 0t57 -8t34 -19.5q13 -23 21 -71.5t12 -110t5 -130t0 -130.5t-2 -111.5t-1 -72.5q0 -9 -8.5 -12.5t-18 -2.5t-17.5 5t-7 10q2 13 2.5 20t-7.5 12q-3 1 -23 -7t-48.5 -16.5t-60.5 -13t-59 4.5t-44.5 36.5
t-15.5 82.5q1 40 19.5 62.5t45 32.5t58 11t59.5 -1.5t48 -6t24 -1.5q4 1 6 26.5t2 63t-2 81.5t-5.5 84t-8.5 70t-12 38q-10 13 -30 17.5t-43 5t-45.5 -1.5t-36.5 -2zM258 176q-4 2 -20 6.5t-38 8t-46.5 4.5t-45 -3.5t-34 -16t-13.5 -32.5q0 -36 14.5 -53.5t36.5 -22.5
t47.5 -0.5t48 13t38.5 17t18 12.5q3 6 5 15.5t1 20t-3.5 19t-8.5 12.5zM144 739q-8 -9 -18 -7.5t-18.5 9t-12.5 18t0 19.5q3 6 12 10t19 4t18.5 -4t9.5 -14q1 -6 -1 -16.5t-9 -18.5zM244 739q-8 -9 -18 -7.5t-18.5 9t-12.5 18t0 19.5q3 6 12 10t19 4t18.5 -4t9.5 -14
q1 -6 -1 -16.5t-9 -18.5z" />
    <glyph glyph-name="aring" unicode="&#xe5;" horiz-adv-x="354" 
d="M84 615q-14 0 -21 7.5t-7 16.5t7 17.5t21 10.5q13 2 42 3.5t60 0t57 -8t34 -19.5q13 -23 21 -71.5t12 -110t5 -130t0 -130.5t-2 -111.5t-1 -72.5q0 -9 -8.5 -12.5t-18 -2.5t-17.5 5t-7 10q2 13 2.5 20t-7.5 12q-3 1 -23 -7t-48.5 -16.5t-60.5 -13t-59 4.5t-44.5 36.5
t-15.5 82.5q1 40 19.5 62.5t45 32.5t58 11t59.5 -1.5t48 -6t24 -1.5q4 1 6 26.5t2 63t-2 81.5t-5.5 84t-8.5 70t-12 38q-10 13 -30 17.5t-43 5t-45.5 -1.5t-36.5 -2zM258 176q-4 2 -20 6.5t-38 8t-46.5 4.5t-45 -3.5t-34 -16t-13.5 -32.5q0 -36 14.5 -53.5t36.5 -22.5
t47.5 -0.5t48 13t38.5 17t18 12.5q3 6 5 15.5t1 20t-3.5 19t-8.5 12.5zM164 858q27 2 44.5 -8t26 -25.5t9 -34.5t-7 -35.5t-22 -28.5t-36.5 -14q-42 -3 -64.5 18t-24.5 49t16.5 52t58.5 27zM173 819q-23 0 -32.5 -10.5t-8 -23.5t11 -23t23.5 -10q16 1 25 11.5t10 23t-6 22.5
t-23 10z" />
    <glyph glyph-name="ae" unicode="&#xe6;" horiz-adv-x="585" 
d="M84 615q-14 0 -21 7.5t-7 16.5t7 17.5t21 10.5q13 2 41.5 3.5t59.5 -0.5t57 -8.5t35 -18.5q8 -11 8 -22t5 -13q5 2 4 10.5t11 20.5q24 24 53 25t56.5 -12.5t51 -36.5t37.5 -47q26 -44 38.5 -99.5t15.5 -109t-2.5 -96t-16.5 -60.5q-8 -13 -26 -19t-41.5 -8.5t-48.5 -2.5
h-47t-37 -1t-18 -5q-5 -7 -4.5 -21t7 -29.5t21.5 -30t41 -21.5q18 -5 38.5 -5t39 4.5t32 12.5t18.5 18q4 10 14 8t18.5 -9.5t12 -18t-4.5 -17.5q-10 -9 -27 -20.5t-40.5 -20.5t-53 -12.5t-63.5 4.5q-13 3 -24 9t-18.5 11l-11 7.5t-3.5 -0.5v-19q0 -9 -8.5 -12.5t-18 -2.5
t-17.5 5t-7 10q2 13 2.5 20t-7.5 12q-3 1 -23 -7t-48.5 -16.5t-60.5 -13t-59 4.5t-44.5 36.5t-15.5 82.5q1 40 19.5 62.5t45 32.5t58 11t59.5 -1.5t48 -6t24 -1.5q3 1 6 29v52.5t1 58.5q-1 35 -3.5 71.5t-5.5 68t-7.5 54t-10.5 29.5q-10 13 -30 17.5t-43 5t-45.5 -1.5
t-36.5 -2zM343 596q-6 -7 -11 -23t-9 -38t-6.5 -48t-4.5 -54q2 -50 2.5 -101.5t0.5 -101.5q0 -3 2 -3q4 -1 19 -1.5t35.5 0t43.5 1.5t42.5 3.5t32.5 6t14 8.5q14 92 3.5 165.5t-36.5 122.5q-15 27 -32 45.5t-34.5 27t-33.5 6.5t-28 -16zM258 176q-4 2 -20 6.5t-38 8
t-46.5 4.5t-45 -3.5t-34 -16t-13.5 -32.5q0 -36 14.5 -53.5t36.5 -22.5t47.5 -0.5t48 13t38.5 17t18 12.5q3 5 5 13q-2 11 -2.5 21.5t-1.5 22.5q-4 8 -7 10z" />
    <glyph glyph-name="grave" unicode="`" horiz-adv-x="139" 
d="M49 365l34 -49.5l36 -52.5q7 -11 5 -20t-9 -13.5t-16 -3t-15 11.5l-77 96q-8 9 -5.5 20t10 17.5t18 6.5t19.5 -13z" />
    <glyph glyph-name="acute" unicode="&#xb4;" horiz-adv-x="137" 
d="M77 375q9 13 19.5 13t18 -6.5t9.5 -17.5t-5 -20l-77 -96q-6 -10 -15 -11.5t-16 3t-9.5 13.5t5.5 20l36 52.5z" />
    <glyph glyph-name="circumflex" unicode="&#x2c6;" horiz-adv-x="193" 
d="M113 347l13.5 -17t17.5 -24l17 -24.5t11 -18.5t-0.5 -14.5t-11 -11.5t-16.5 -2t-17 15q-17 25 -27.5 42.5t-15.5 17.5q-3 0 -8 -7.5t-10 -17.5l-10.5 -20.5t-8.5 -17.5q-4 -7 -13.5 -9t-18.5 1t-13.5 10.5t1.5 18.5t14 23.5l16 24l14.5 21t10.5 13.5q18 20 31 16t24 -19z
" />
    <glyph glyph-name="caron" unicode="&#x2c7;" horiz-adv-x="191" 
d="M113 256q-11 -15 -24 -19t-31 16q-4 4 -10.5 13.5l-14.5 21l-16 24t-14 23.5t-1.5 18.5t13.5 10.5t18.5 1t13.5 -9q3 -7 8.5 -17.5l10.5 -20.5t10 -17.5t8 -7.5q5 0 15.5 17.5t27.5 42.5q8 13 17 15t16.5 -2t11 -11.5t0.5 -14.5t-11 -18.5l-17 -24.5t-17.5 -24z" />
    <glyph glyph-name="dieresis" unicode="&#xa8;" horiz-adv-x="183" 
d="M51 259q-8 -9 -18 -7.5t-18.5 9t-12.5 18t0 19.5q3 6 12 10t19 4t18.5 -4t9.5 -14q1 -6 -1 -16.5t-9 -18.5zM151 259q-8 -9 -18 -7.5t-18.5 9t-12.5 18t0 19.5q3 6 12 10t19 4t18.5 -4t9.5 -14q1 -6 -1 -16.5t-9 -18.5z" />
    <glyph glyph-name="tilde" unicode="&#x2dc;" horiz-adv-x="230" 
d="M79 345q9 0 18 -8t16.5 -18.5l13 -18.5t8.5 -8q11 2 20 17.5t20 28.5q6 6 13 6t13 -4t8.5 -11t-0.5 -14t-12 -20.5t-19.5 -26.5t-21.5 -22.5t-19 -9.5q-12 0 -20.5 9t-15.5 19t-12 18t-10 7q-7 -2 -12.5 -8t-10 -13.5l-9 -15.5t-8.5 -12q-4 -5 -12.5 -3.5t-15.5 6.5
t-9.5 13t4.5 17t15 21t17 23.5t19.5 19.5t21.5 8z" />
    <glyph glyph-name="brokenbar" unicode="&#xa6;" horiz-adv-x="93" 
d="M60 271q1 -6 -6.5 -12t-17 -8t-17 2.5t-7.5 20.5q0 73 1 147t1.5 136.5t1.5 106t2 54.5t8.5 16.5t16.5 5.5t16 -5.5t6 -16.5q-1 -13 -2 -57.5t-1.5 -107t-1 -136.5t-0.5 -146zM12 188q0 14 8 18.5t17.5 2.5t16.5 -9.5t6 -17.5q0 -44 -0.5 -81.5t-1.5 -66t-2 -46.5t-2 -21
q-2 -6 -8 -10t-12 -4.5t-12 2.5t-8 12q-1 3 -1.5 21t-0.5 47.5v68.5v84z" />
    <glyph glyph-name="OE" unicode="&#x152;" horiz-adv-x="514" 
d="M57 632q13 10 39.5 18.5t62 14.5t75 10t78 5t72 -1t55.5 -8q3 -1 6 -5.5t4.5 -10t0 -11t-8.5 -7.5t-29 -3t-47 -2t-47.5 -3.5t-30.5 -6.5q-5 -3 -8.5 -30.5t-6 -67t-2.5 -85t0.5 -85t3 -66.5t6.5 -29q6 -3 30 -1t52 5t51.5 3.5t27.5 -6.5q8 -12 5 -26.5t-14 -19.5
q-6 -2 -28.5 -1t-48 1.5t-47 -1.5t-24.5 -9q-3 -8 -5.5 -29.5t-2.5 -45t2.5 -43t8.5 -22.5t34 -3t60 0.5t59 0t33 -4.5q6 -5 9 -12t3.5 -14t-1.5 -12.5t-8 -6.5q-25 -4 -62.5 -8t-79.5 -6t-86 -1.5t-82.5 5t-69.5 14.5t-46 26q-18 19 -29 67t-15 109.5t-2 129.5t9 127
t18 102t26 55zM88 80q11 -10 35 -15.5t48 -7t42.5 0.5t18.5 8q2 1 2.5 24.5t0.5 61.5t-0.5 86.5t-1.5 99t-2.5 99.5t-3 88t-3 64t-3.5 28q-1 3 -18 3t-38 -3t-41 -9t-27 -15q-14 -17 -23.5 -58.5t-15 -95t-6 -112.5t3 -110.5t11.5 -89t21 -47.5z" />
    <glyph glyph-name="oe" unicode="&#x153;" horiz-adv-x="552" 
d="M331 9q-38 10 -62 34l-6 6t-10 1q-19 -17 -42.5 -28.5t-49.5 -15t-52.5 3.5t-50.5 27q-15 13 -26 43t-18 71.5t-10 90.5t-2.5 99.5t4.5 99.5t11.5 89t17.5 68.5t23 38.5q43 34 98 35.5t104 -24.5q4 8 7 11q23 25 51.5 26.5t56 -12.5t52 -37.5t38.5 -47.5
q26 -44 38.5 -99.5t15.5 -109t-2.5 -96t-16.5 -60.5q-8 -13 -26.5 -19t-41.5 -8.5t-48.5 -2.5h-47.5t-37 -1t-18 -5q-5 -7 -4.5 -24t7.5 -36.5t22 -37t41 -24.5q18 -5 38.5 -5t39 4.5t32 12.5t18.5 18q4 10 14 8t18.5 -9.5t12 -18t-4.5 -17.5q-10 -9 -27 -21t-40.5 -21.5
t-53 -13t-63.5 6.5zM227 219q-3 79 -0.5 148.5t5.5 121.5t3.5 82t-5.5 31q-17 10 -36.5 15.5t-38 5.5t-34.5 -6.5t-28 -18.5q-15 -16 -25 -58.5t-14.5 -97.5t-4.5 -116t5 -113.5t14 -90.5t23 -47q17 -12 41 -13.5t46 3.5t37.5 14.5t15.5 21.5q-2 35 -2.5 62.5t-1.5 55.5z
M305 616q-10 -11 -16.5 -42.5t-10.5 -72t-6 -85t-2 -82t2.5 -62t6.5 -25.5t19 -1.5t35.5 0t43.5 1.5t42.5 3.5t32.5 6t14 8.5q14 92 3.5 165.5t-36.5 122.5q-15 27 -32 45.5t-34.5 27t-33.5 6.5t-28 -16z" />
    <glyph glyph-name="AE" unicode="&#xc6;" horiz-adv-x="502" 
d="M220 676q18 0 50 1t66 1.5t63 -1t40 -6.5q3 -1 6 -5.5t4.5 -10t0 -11t-8.5 -7.5t-29 -3t-47 -2t-47.5 -3.5t-30.5 -6.5q-5 -3 -9 -31.5t-7 -69.5t-4 -88.5t-1 -88.5t2 -69t6 -30q6 -3 31 -1t54 5t53.5 3.5t28.5 -6.5q8 -12 5 -26.5t-14 -19.5q-6 -2 -29.5 -1t-50 1.5
t-49 -1.5t-25.5 -9q-3 -8 -4.5 -24.5t-0.5 -34.5t4.5 -33t9.5 -18t34 -4.5t60 -3t59 -4t33 -6.5q6 -5 9 -12.5t3.5 -15t-2 -14t-7.5 -8.5q-3 -1 -20.5 -2.5t-41.5 -2.5t-51.5 -1.5t-52 0t-42.5 2t-23 4.5t-9.5 49.5t-8.5 115.5q0 5 -4 9.5t-26 8.5q-38 -3 -68.5 -6t-31.5 -8
l-18 -70.5t-7 -24.5l-8.5 -24.5t-13.5 -29.5t-18.5 -23t-22.5 -6q-8 2 -10 11.5t0.5 24.5t8 33t13.5 37q4 9 18 50l33 97l40 119l39.5 117.5l30.5 92.5t14 43q5 16 9 32t15 16zM116 244q-2 -3 5 -4.5t19 -1t28 1.5t33 3q17 5 19.5 8.5t2.5 7.5q-3 63 -4 127t-1 121
q-2 17 -4.5 17t-5.5 -6q-8 -15 -19 -44.5t-23.5 -67t-25 -80z" />
    <glyph glyph-name="bullet" unicode="&#x2022;" horiz-adv-x="141" 
d="M22 266q16 17 35.5 15.5t34.5 -13.5t22.5 -31t-0.5 -37q-5 -11 -22 -18.5t-36 -8t-35 7.5t-18 27q-2 11 2 27.5t17 30.5z" />
    <glyph glyph-name="quoteleft" unicode="&#x2018;" horiz-adv-x="123" 
d="M46 689q3 6 10 7t14 -2t12.5 -9t4.5 -13q-1 -8 -8 -28.5t-14 -45t-11 -47t1 -34.5q4 -11 10 -16.5t11.5 -9t10.5 -6t9 -6.5q6 -6 5 -17.5t-9 -19t-23 -6t-38 22.5q-15 14 -20.5 35t-4.5 45.5t6.5 49.5t12.5 45.5t13 35.5t8 19z" />
    <glyph glyph-name="quotedblleft" unicode="&#x201c;" horiz-adv-x="225" 
d="M46 689q3 6 10 7t14 -2t12.5 -9t4.5 -13q-1 -8 -8 -28.5t-14 -45t-11 -47t1 -34.5q4 -11 10 -16.5t11.5 -9t10.5 -6t9 -6.5q6 -6 5 -17.5t-9 -19t-23 -6t-38 22.5q-15 14 -20.5 35t-4.5 45.5t6.5 49.5t12.5 45.5t13 35.5t8 19zM146 689q3 6 10 7t14 -2t12.5 -9t4.5 -13
q-1 -8 -8 -28.5t-14 -45t-11 -47t1 -34.5q4 -11 10 -16.5t11.5 -9t10.5 -6t9 -6.5q6 -6 5 -17.5t-9 -19t-23 -6t-38 22.5q-15 14 -20.5 35t-4.5 45.5t6.5 49.5t12.5 45.5t13 35.5t8 19z" />
    <glyph glyph-name="quotedblright" unicode="&#x201d;" horiz-adv-x="225" 
d="M157 442q-3 -6 -10 -7t-14 2t-12.5 8.5t-4.5 13.5q1 7 8 28t14 45.5t11 47t-1 34.5q-5 10 -10.5 16t-11 9.5t-10.5 6t-9 6.5q-6 6 -5 17.5t9 19t23 6t38 -22.5q15 -14 20.5 -35t4.5 -45.5t-6.5 -49.5t-12.5 -45.5t-13 -35.5t-8 -19zM57 442q-3 -6 -10 -7t-14 2t-12.5 8.5
t-4.5 13.5q1 7 8 28t14 45.5t11 47t-1 34.5q-5 10 -10.5 16t-11 9.5t-10.5 6t-9 6.5q-6 6 -5 17.5t9 19t23 6t38 -22.5q15 -14 20.5 -35t4.5 -45.5t-6.5 -49.5t-12.5 -45.5t-13 -35.5t-8 -19z" />
    <glyph glyph-name="quoteright" unicode="&#x2019;" horiz-adv-x="124" 
d="M57 442q-3 -6 -10 -7t-14 2t-12.5 8.5t-4.5 13.5q1 7 8 28t14 45.5t11 47t-1 34.5q-5 10 -10.5 16t-11 9.5t-10.5 6t-9 6.5q-6 6 -5 17.5t9 19t23 6t38 -22.5q15 -14 20.5 -35t4.5 -45.5t-6.5 -49.5t-12.5 -45.5t-13 -35.5t-8 -19z" />
    <glyph glyph-name="ring" unicode="&#x2da;" horiz-adv-x="176" 
d="M75 378q27 2 44.5 -8t26 -25.5t9 -34.5t-7 -35.5t-22 -28.5t-36.5 -14q-42 -3 -64.5 18t-24.5 49t16.5 52t58.5 27zM84 339q-23 0 -32.5 -10.5t-8 -23.5t11 -23t23.5 -10q16 1 25 11.5t10 23t-6 22.5t-23 10z" />
    <glyph glyph-name="dotaccent" unicode="&#x2d9;" horiz-adv-x="108" 
d="M54 339q16 0 23 -10t6 -22.5t-10 -23t-25 -11.5q-14 0 -23.5 10t-11 23t8 23.5t32.5 10.5z" />
    <glyph glyph-name="breve" unicode="&#x2d8;" horiz-adv-x="232" 
d="M5 341q2 6 9.5 9t16.5 3t16 -3t8 -9t-0.5 -12t-2.5 -12t-0.5 -11.5t6.5 -9.5q7 -5 18.5 -7t24.5 -1t25.5 4.5t20.5 9.5q10 7 10.5 18t2.5 24q1 6 9 9.5t17 3t16 -5.5t6 -14q-2 -19 -5 -34.5t-24 -33.5q-10 -9 -31.5 -14t-44.5 -6t-44 1.5t-30 8.5q-14 9 -20 21t-7.5 23.5
t0 21.5t3.5 16z" />
    <glyph glyph-name="periodcentered" unicode="&#xb7;" horiz-adv-x="99" 
d="M54 265q16 0 23 -10t6 -22.5t-10 -23t-25 -11.5q-14 0 -23.5 10t-11 23t8 23.5t32.5 10.5z" />
    <glyph glyph-name="hungarumlaut" unicode="&#x2dd;" horiz-adv-x="232" 
d="M77 365q9 13 19.5 13t18 -6.5t9.5 -17.5t-5 -20l-77 -96q-6 -10 -15 -11.5t-16 3t-9.5 13.5t5.5 20l36 52.5zM164 365q9 13 19.5 13t18 -6.5t9.5 -17.5t-5 -20l-77 -96q-6 -10 -15 -11.5t-16 3t-9.5 13.5t5.5 20l36 52.5z" />
    <glyph glyph-name="macron" unicode="&#xaf;" horiz-adv-x="227" 
d="M9 290q2 4 16 7t34 4.5t43 1.5t43.5 -1t35.5 -3t20 -6q5 -5 3.5 -14t-9.5 -12q-6 -2 -23.5 -4.5t-41 -3.5t-48 -0.5t-43 3.5t-28 9.5t-2.5 18.5z" />
    <glyph glyph-name="Aogonek" unicode="&#x104;" horiz-adv-x="401" 
d="M220 676q6 0 12.5 -1.5t12 -6.5t9.5 -15t4 -28q0 -9 5 -37t13 -67.5l18.5 -87.5l21.5 -97l22 -95.5l19.5 -83t13.5 -60t6 -26.5q1 -5 2 -11.5t1 -12.5q2 -9 -5 -20t-16.5 -23.5t-17.5 -27t-8 -30.5q0 -4 4.5 -5t9.5 -2t10.5 -2.5t8.5 -5.5q7 -8 7 -16.5t-4.5 -14.5
t-12 -8.5t-15.5 -0.5q-2 -1 -10.5 2t-13.5 5q-30 14 -33 43q-3 23 4.5 39t16 29t14.5 25t1 28q-1 3 -3 15.5l-5 31l-7 42.5l-8 49q0 1 -9 1t-23 -0.5t-32 -2.5t-36 -3q-38 -3 -68.5 -6t-31.5 -8l-18 -70.5t-7 -24.5l-8.5 -24.5t-13.5 -29.5t-18.5 -23t-22.5 -6
q-8 2 -10 11.5t0.5 24.5t8 33t13.5 37q4 9 18 50l33 97l40 119l39.5 117.5l30.5 92.5t14 43q5 16 9 32t15 16zM116 244q-2 -3 5 -4.5t19 -1t28 1.5t33 3q35 3 61 5.5t24 6.5l-18.5 100.5t-18.5 88.5t-17 63.5t-13 24.5q-6 0 -17.5 -27t-26 -68.5t-30 -92.5z" />
    <glyph glyph-name="ogonek" unicode="&#x2db;" horiz-adv-x="121" 
d="M40 62q10 15 22 18t21 -2.5t11.5 -17t-7.5 -26.5q-17 -25 -27.5 -43.5t-8.5 -44.5q2 -6 6.5 -7.5t10 -1.5t10.5 -1t8 -5q13 -16 2.5 -25.5t-28.5 -10t-36 10t-20 35.5q-2 23 0.5 40.5t8.5 31t13 25.5z" />
    <glyph glyph-name="Ccedilla" unicode="&#xc7;" horiz-adv-x="292" 
d="M131 54q0 4 8 6t16.5 2t15 -2.5t5.5 -8.5l-5 -14.5l-6 -16.5t-3.5 -14t2.5 -8t14 -4.5t23.5 -6.5t23 -11.5t13.5 -19.5q3 -18 -9.5 -39.5t-30.5 -29.5q-23 -11 -48 -4.5t-43 16.5q-9 5 -9 12t5.5 13t12.5 10t11 3q14 -5 28 -8t21 -3q3 0 7.5 3t7.5 6t3 6t-5 5
q-17 6 -35.5 7.5t-29.5 15.5q-5 6 -5 19t2.5 26.5t6 24.5t3.5 15zM232 657q9 -5 13 -12t3 -14t-6.5 -12.5t-17.5 -7.5t-25 0t-27 3t-28 -1.5t-26 -12.5q-25 -21 -40 -61.5t-21 -90t-5 -104.5t8.5 -104.5t19.5 -89t28 -59.5q15 -19 35.5 -20t41 4t37 11t24.5 1q15 -11 21 -22
t-13 -23q-10 -6 -30 -13t-45 -10t-51.5 1t-48.5 21t-38 59t-25 97.5t-11 118.5t4 121.5t20 107t37 75.5q26 30 53 40.5t50 10.5t40 -5.5t23 -8.5z" />
    <glyph glyph-name="cedilla" unicode="&#xb8;" horiz-adv-x="161" 
d="M34 41q0 4 8 6t16.5 2t15 -2.5t5.5 -8.5l-5 -14.5l-6 -16.5t-3.5 -14t2.5 -8t14 -4.5t23.5 -6.5t23 -11.5t13.5 -19.5q3 -18 -9.5 -39.5t-30.5 -29.5q-23 -11 -48 -4.5t-43 16.5q-9 5 -9 12t5.5 13t12.5 10t11 3q14 -5 28 -8t21 -3q3 0 7.5 3t7.5 6t3 6t-5 5
q-17 6 -35.5 7.5t-29.5 15.5q-5 6 -5 19t2.5 26.5t6 24.5t3.5 15z" />
    <glyph glyph-name="Dcroat" unicode="&#x110;" horiz-adv-x="385" 
d="M5 227q2 4 17.5 9.5t36.5 11t45.5 10t45.5 6.5t35.5 1t16.5 -7q13 -37 -5 -44q-5 -2 -23 -5t-42 -5.5t-49.5 -4t-45.5 0.5t-30 8.5t-2 18.5zM73 623q-2 27 8.5 35t24.5 8t41 -6.5t76 -29.5q46 -21 75 -61t43.5 -90t16.5 -106t-6.5 -109.5t-25.5 -99.5t-41 -77
q-22 -29 -52 -45.5t-59 -25.5t-52.5 -11t-30.5 -1q-15 2 -25 7.5t-11 24.5q0 4 1.5 46.5t3.5 105l4.5 134.5t4.5 136t3 110t1 55zM130 599q-3 -2 -6.5 -41.5t-6 -97.5t-5 -125t-3 -125.5t0 -99t3.5 -44.5q4 -6 17 -6t31 5.5t37.5 17t37.5 28.5q29 27 47.5 79.5t23.5 113
t-6.5 122t-42.5 108.5q-14 21 -34 35.5t-39.5 22t-34.5 9t-20 -1.5z" />
    <glyph glyph-name="Eogonek" unicode="&#x118;" horiz-adv-x="308" 
d="M17 670q8 7 40 9.5t69 1.5t67.5 -4t35.5 -6q3 -2 6 -6.5t4.5 -10t0 -10.5t-8.5 -7t-29 -3t-47 -2t-47.5 -3.5t-30.5 -6.5q-5 -3 -9 -30.5t-7 -67t-4 -85t-1 -85t2 -66.5t6 -29q6 -3 31 -1t54 5t53.5 3.5t28.5 -6.5q8 -12 5 -26.5t-14 -19.5q-6 -2 -29.5 -1t-50 1.5
t-49 -1.5t-25.5 -9q-3 -8 -4.5 -27t-0.5 -39.5t4.5 -37.5t9.5 -20t34 -4.5t60 -3t59 -4t33 -6.5q0 -1 1 -1q14 -8 11 -30q-1 -9 -8 -18.5t-14.5 -21.5t-13.5 -27t-6 -35q2 -6 6.5 -7.5t10 -1.5t10.5 -1t8 -5q8 -10 6 -18t-11 -12.5t-21.5 -5t-24.5 4t-21 14.5t-10 27t3 32.5
t8.5 26.5l7 17.5t-1.5 6.5q-23 1 -50.5 0.5t-52 -0.5t-42.5 1t-23 4q-4 2 -7.5 31t-6.5 74.5t-6 103t-4.5 117.5t-2.5 118t0 104.5t3 76t6 33.5z" />
    <glyph glyph-name="commaaccent" horiz-adv-x="90" 
d="M10 -44q-1 9 4.5 17t14 12t18 3.5t17.5 -6.5q9 -8 7 -23t-8.5 -29t-15.5 -23t-14 -6q-4 2 -1 7.5t5 17.5v3.5t-5 3.5q-8 1 -14.5 8t-7.5 15z" />
    <glyph glyph-name="Iogonek" unicode="&#x12e;" horiz-adv-x="267" 
d="M9 26q1 2 15.5 6t30.5 8t28 7.5t10 6.5q0 32 1.5 85t4 114t4.5 123.5t2.5 114t-1 84.5t-5.5 35q-8 3 -20.5 2t-25.5 -2.5t-24 -2.5t-17 4q-11 9 -9 25.5t9 22.5q2 2 18 4t39 4t49 3.5t49 2t39.5 0t19.5 -2.5q9 -7 14 -21t-8 -23q-7 -5 -17 -5.5t-21.5 -1t-21.5 -2.5
t-17 -9q-4 -4 -6 -37t-2 -83t0.5 -110.5l1 -120t1 -112t-0.5 -85.5q10 0 31.5 1t38.5 -2t22.5 -13.5t-14.5 -33.5q-17 -24 -27 -42.5t-8 -44.5q2 -6 6.5 -7.5t10 -1.5t10.5 -1t8 -5q13 -16 2.5 -25.5t-28.5 -10t-36 10t-20 35.5q-3 31 2.5 51t13.5 36q-23 -2 -47.5 -3
t-45.5 -2t-35 -1h-16t-4.5 2t-4.5 5t-2.5 7.5t3.5 10.5z" />
    <glyph glyph-name="Ocircumflex" unicode="&#xd4;" horiz-adv-x="410" 
d="M330 73q20 30 30.5 81t13 111.5t-0.5 123t-10 115t-16.5 89t-19.5 43.5q-27 20 -64.5 28t-76.5 6.5t-73.5 -11.5t-55.5 -27q-15 -12 -26 -55t-18 -102t-9 -127t2 -129.5t15 -109.5t29 -67q16 -16 53.5 -25.5t80.5 -8t83.5 16.5t62.5 48zM97 593q12 15 37 23t54 9.5t57 -5
t45 -21.5q12 -11 20 -48.5t12 -88t4 -108t-3.5 -108.5t-10 -89t-15.5 -50q-16 -21 -44 -33t-59 -15.5t-60 2t-46 19.5q-13 10 -21 47.5t-11.5 89t-3 110.5t6 112.5t15 95t23.5 58.5zM234 823l13.5 -17t17.5 -24l17 -24.5t11 -18.5t-0.5 -14.5t-11 -11.5t-16.5 -2t-17 15
q-17 25 -27.5 42.5t-15.5 17.5q-3 0 -8 -7.5t-10 -17.5l-10.5 -20.5t-8.5 -17.5q-4 -7 -13.5 -9t-18.5 1t-13.5 10.5t1.5 18.5t14 23.5l16 24l14.5 21t10.5 13.5q18 20 31 16t24 -19z" />
    <glyph glyph-name="Breve" horiz-adv-x="113" 
d="M14 661q2 3 9 5.5t15 2.5t16 -2t13 -6q4 -5 5 -14.5t0.5 -23t-2.5 -29.5t-3 -34q-1 -12 -2 -56t-2.5 -104t-3 -127.5t-3 -124.5t-3.5 -96t-3 -43q-5 -11 -18 -14.5t-18 14.5q-2 9 -2.5 22.5t0 28t1.5 27t1 20.5v29.5t-0.5 64.5t-1 88l-1 99.5t-0.5 98.5t0.5 86.5t1 62
t1.5 25.5z" />
    <glyph glyph-name="undercommaaccent" horiz-adv-x="0" 
 />
    <glyph glyph-name="Aacute" unicode="&#xc1;" horiz-adv-x="401" 
d="M220 676q6 0 12.5 -1.5t12 -6.5t9.5 -15t4 -28q0 -9 5 -37t13 -67.5l18.5 -87.5l21.5 -97l22 -95.5l19.5 -83t13.5 -60t6 -26.5q1 -6 2.5 -12.5t0.5 -13t-4 -12.5t-11 -9t-15 -0.5t-13 8.5t-10.5 14t-6.5 16q-1 3 -3 15.5l-5 31l-7 42.5l-8 49q0 1 -9 1t-23 -0.5
t-32 -2.5t-36 -3q-38 -3 -68.5 -6t-31.5 -8l-18 -70.5t-7 -24.5l-8.5 -24.5t-13.5 -29.5t-18.5 -23t-22.5 -6q-8 2 -10 11.5t0.5 24.5t8 33t13.5 37q4 9 18 50l33 97l40 119l39.5 117.5l30.5 92.5t14 43q5 16 9 32t15 16zM116 244q-2 -3 5 -4.5t19 -1t28 1.5t33 3
q35 3 61 5.5t24 6.5l-18.5 100.5t-18.5 88.5t-17 63.5t-13 24.5q-6 0 -17.5 -27t-26 -68.5t-30 -92.5zM235 851q9 13 19.5 13t18 -6.5t9.5 -17.5t-5 -20l-77 -96q-6 -10 -15 -11.5t-16 3t-9.5 13.5t5.5 20l36 52.5z" />
    <glyph glyph-name="Abreve" unicode="&#x102;" horiz-adv-x="401" 
d="M220 676q-11 0 -15 -16t-9 -32q-2 -5 -14 -43l-30.5 -92.5l-39.5 -117.5l-40 -119l-33 -97t-18 -50q-8 -19 -13.5 -37t-8 -33t-0.5 -24.5t10 -11.5q12 -3 22.5 6t18.5 23t13.5 29.5l8.5 24.5q1 2 7 24.5l18 70.5q1 5 31.5 8t68.5 6q18 1 36 3t32 2.5t23 0.5t9 -1l8 -49
l7 -42.5l5 -31t3 -15.5q2 -8 6.5 -16t10.5 -14t13 -8.5t15 0.5t11 9t4 12.5t-0.5 13t-2.5 12.5q-1 3 -6 26.5t-13.5 60l-19.5 83l-22 95.5l-21.5 97l-18.5 87.5t-13 67.5t-5 37q0 18 -4 28t-9.5 15t-12 6.5t-12.5 1.5zM116 244l29.5 100t30 92.5t26 68.5t17.5 27
q5 0 13 -24.5t17 -63.5t18.5 -88.5l18.5 -100.5q2 -4 -24 -6.5t-61 -5.5q-17 -2 -33 -3t-28 -1.5t-19 1t-5 4.5zM126 817q2 6 9.5 9t16.5 3t16 -3t8 -9t-0.5 -12t-2.5 -12t-0.5 -11.5t6.5 -9.5q7 -5 18.5 -7t24.5 -1t25.5 4.5t20.5 9.5q10 7 10.5 18t2.5 24q1 6 9 9.5t17 3
t16 -5.5t6 -14q-2 -19 -5 -34.5t-24 -33.5q-10 -9 -31.5 -14t-44.5 -6t-44 1.5t-30 8.5q-14 9 -20 21t-7.5 23.5t0 21.5t3.5 16z" />
    <glyph glyph-name="Acircumflex" unicode="&#xc2;" horiz-adv-x="401" 
d="M220 676q-11 0 -15 -16t-9 -32q-2 -5 -14 -43l-30.5 -92.5l-39.5 -117.5l-40 -119l-33 -97t-18 -50q-8 -19 -13.5 -37t-8 -33t-0.5 -24.5t10 -11.5q12 -3 22.5 6t18.5 23t13.5 29.5l8.5 24.5q1 2 7 24.5l18 70.5q1 5 31.5 8t68.5 6q18 1 36 3t32 2.5t23 0.5t9 -1l8 -49
l7 -42.5l5 -31t3 -15.5q2 -8 6.5 -16t10.5 -14t13 -8.5t15 0.5t11 9t4 12.5t-0.5 13t-2.5 12.5q-1 3 -6 26.5t-13.5 60l-19.5 83l-22 95.5l-21.5 97l-18.5 87.5t-13 67.5t-5 37q0 18 -4 28t-9.5 15t-12 6.5t-12.5 1.5zM116 244l29.5 100t30 92.5t26 68.5t17.5 27
q5 0 13 -24.5t17 -63.5t18.5 -88.5l18.5 -100.5q2 -4 -24 -6.5t-61 -5.5q-17 -2 -33 -3t-28 -1.5t-19 1t-5 4.5zM260 823l13.5 -17t17.5 -24l17 -24.5t11 -18.5t-0.5 -14.5t-11 -11.5t-16.5 -2t-17 15q-17 25 -27.5 42.5t-15.5 17.5q-3 0 -8 -7.5t-10 -17.5l-10.5 -20.5
t-8.5 -17.5q-4 -7 -13.5 -9t-18.5 1t-13.5 10.5t1.5 18.5t14 23.5l16 24l14.5 21t10.5 13.5q18 20 31 16t24 -19z" />
    <glyph glyph-name="Agrave" unicode="&#xc0;" horiz-adv-x="401" 
d="M220 676q6 0 12.5 -1.5t12 -6.5t9.5 -15t4 -28q0 -9 5 -37t13 -67.5l18.5 -87.5l21.5 -97l22 -95.5l19.5 -83t13.5 -60t6 -26.5q1 -6 2.5 -12.5t0.5 -13t-4 -12.5t-11 -9t-15 -0.5t-13 8.5t-10.5 14t-6.5 16q-1 3 -3 15.5l-5 31l-7 42.5l-8 49q0 1 -9 1t-23 -0.5
t-32 -2.5t-36 -3q-38 -3 -68.5 -6t-31.5 -8l-18 -70.5t-7 -24.5l-8.5 -24.5t-13.5 -29.5t-18.5 -23t-22.5 -6q-8 2 -10 11.5t0.5 24.5t8 33t13.5 37q4 9 18 50l33 97l40 119l39.5 117.5l30.5 92.5t14 43q5 16 9 32t15 16zM116 244q-2 -3 5 -4.5t19 -1t28 1.5t33 3
q35 3 61 5.5t24 6.5l-18.5 100.5t-18.5 88.5t-17 63.5t-13 24.5q-6 0 -17.5 -27t-26 -68.5t-30 -92.5zM224 841l34 -49.5l36 -52.5q7 -11 5 -20t-9 -13.5t-16 -3t-15 11.5l-77 96q-8 9 -5.5 20t10 17.5t18 6.5t19.5 -13z" />
    <glyph glyph-name="Adieresis" unicode="&#xc4;" horiz-adv-x="401" 
d="M220 676q-11 0 -15 -16t-9 -32q-2 -5 -14 -43l-30.5 -92.5l-39.5 -117.5l-40 -119l-33 -97t-18 -50q-8 -19 -13.5 -37t-8 -33t-0.5 -24.5t10 -11.5q12 -3 22.5 6t18.5 23t13.5 29.5l8.5 24.5q1 2 7 24.5l18 70.5q1 5 31.5 8t68.5 6q18 1 36 3t32 2.5t23 0.5t9 -1l8 -49
l7 -42.5l5 -31t3 -15.5q2 -8 6.5 -16t10.5 -14t13 -8.5t15 0.5t11 9t4 12.5t-0.5 13t-2.5 12.5q-1 3 -6 26.5t-13.5 60l-19.5 83l-22 95.5l-21.5 97l-18.5 87.5t-13 67.5t-5 37q0 18 -4 28t-9.5 15t-12 6.5t-12.5 1.5zM116 244l29.5 100t30 92.5t26 68.5t17.5 27
q5 0 13 -24.5t17 -63.5t18.5 -88.5l18.5 -100.5q2 -4 -24 -6.5t-61 -5.5q-17 -2 -33 -3t-28 -1.5t-19 1t-5 4.5zM202 735q-8 -9 -18 -7.5t-18.5 9t-12.5 18t0 19.5q3 6 12 10t19 4t18.5 -4t9.5 -14q1 -6 -1 -16.5t-9 -18.5zM302 735q-8 -9 -18 -7.5t-18.5 9t-12.5 18t0 19.5
q3 6 12 10t19 4t18.5 -4t9.5 -14q1 -6 -1 -16.5t-9 -18.5z" />
    <glyph glyph-name="Amacron" unicode="&#x100;" horiz-adv-x="401" 
d="M220 676q-11 0 -15 -16t-9 -32q-2 -5 -14 -43l-30.5 -92.5l-39.5 -117.5l-40 -119l-33 -97t-18 -50q-8 -19 -13.5 -37t-8 -33t-0.5 -24.5t10 -11.5q12 -3 22.5 6t18.5 23t13.5 29.5l8.5 24.5q1 2 7 24.5l18 70.5q1 5 31.5 8t68.5 6q18 1 36 3t32 2.5t23 0.5t9 -1l8 -49
l7 -42.5l5 -31t3 -15.5q2 -8 6.5 -16t10.5 -14t13 -8.5t15 0.5t11 9t4 12.5t-0.5 13t-2.5 12.5q-1 3 -6 26.5t-13.5 60l-19.5 83l-22 95.5l-21.5 97l-18.5 87.5t-13 67.5t-5 37q0 18 -4 28t-9.5 15t-12 6.5t-12.5 1.5zM116 244l29.5 100t30 92.5t26 68.5t17.5 27
q5 0 13 -24.5t17 -63.5t18.5 -88.5l18.5 -100.5q2 -4 -24 -6.5t-61 -5.5q-17 -2 -33 -3t-28 -1.5t-19 1t-5 4.5zM133 766q2 4 16 7t34 4.5t43 1.5t43.5 -1t36 -3t19.5 -6q5 -5 3.5 -14t-9.5 -12q-6 -2 -23.5 -4.5t-41 -3.5t-48 -0.5t-43 3.5t-28 9.5t-2.5 18.5z" />
    <glyph glyph-name="Aring" unicode="&#xc5;" horiz-adv-x="401" 
d="M220 676q-11 0 -15 -16t-9 -32q-2 -5 -14 -43l-30.5 -92.5l-39.5 -117.5l-40 -119l-33 -97t-18 -50q-8 -19 -13.5 -37t-8 -33t-0.5 -24.5t10 -11.5q12 -3 22.5 6t18.5 23t13.5 29.5l8.5 24.5q1 2 7 24.5l18 70.5q1 5 31.5 8t68.5 6q18 1 36 3t32 2.5t23 0.5t9 -1l8 -49
l7 -42.5l5 -31t3 -15.5q2 -8 6.5 -16t10.5 -14t13 -8.5t15 0.5t11 9t4 12.5t-0.5 13t-2.5 12.5q-1 3 -6 26.5t-13.5 60l-19.5 83l-22 95.5l-21.5 97l-18.5 87.5t-13 67.5t-5 37q0 18 -4 28t-9.5 15t-12 6.5t-12.5 1.5zM116 244l29.5 100t30 92.5t26 68.5t17.5 27
q5 0 13 -24.5t17 -63.5t18.5 -88.5l18.5 -100.5q2 -4 -24 -6.5t-61 -5.5q-17 -2 -33 -3t-28 -1.5t-19 1t-5 4.5zM223 854q27 2 44.5 -8t26 -25.5t9 -34.5t-7 -35.5t-22 -28.5t-36.5 -14q-42 -3 -64.5 18t-24.5 49t16.5 52t58.5 27zM232 815q-23 0 -32.5 -10.5t-8 -23.5
t11 -23t23.5 -10q16 1 25 11.5t10 23t-6 22.5t-23 10z" />
    <glyph glyph-name="Atilde" unicode="&#xc3;" horiz-adv-x="401" 
d="M220 676q-11 0 -15 -16t-9 -32q-2 -5 -14 -43l-30.5 -92.5l-39.5 -117.5l-40 -119l-33 -97t-18 -50q-8 -19 -13.5 -37t-8 -33t-0.5 -24.5t10 -11.5q12 -3 22.5 6t18.5 23t13.5 29.5l8.5 24.5q1 2 7 24.5l18 70.5q1 5 31.5 8t68.5 6q18 1 36 3t32 2.5t23 0.5t9 -1l8 -49
l7 -42.5l5 -31t3 -15.5q2 -8 6.5 -16t10.5 -14t13 -8.5t15 0.5t11 9t4 12.5t-0.5 13t-2.5 12.5q-1 3 -6 26.5t-13.5 60l-19.5 83l-22 95.5l-21.5 97l-18.5 87.5t-13 67.5t-5 37q0 18 -4 28t-9.5 15t-12 6.5t-12.5 1.5zM116 244l29.5 100t30 92.5t26 68.5t17.5 27
q5 0 13 -24.5t17 -63.5t18.5 -88.5l18.5 -100.5q2 -4 -24 -6.5t-61 -5.5q-17 -2 -33 -3t-28 -1.5t-19 1t-5 4.5zM204 821q9 0 18 -8t16.5 -18.5l13 -18.5t8.5 -8q11 2 20 17.5t20 28.5q6 6 13 6t13 -4t8.5 -11t-0.5 -14t-12 -20.5t-19.5 -26.5t-21.5 -22.5t-19 -9.5
q-12 0 -20.5 9t-15.5 19t-12 18t-10 7q-7 -2 -12.5 -8t-10 -13.5l-9 -15.5t-8.5 -12q-4 -5 -12.5 -3.5t-15.5 6.5t-9.5 13t4.5 17t15 21t17 23.5t19.5 19.5t21.5 8z" />
    <glyph glyph-name="AEacute" unicode="&#x1fc;" horiz-adv-x="502" 
d="M220 676q18 0 50 1t66 1.5t63 -1t40 -6.5q3 -1 6 -5.5t4.5 -10t0 -11t-8.5 -7.5t-29 -3t-47 -2t-47.5 -3.5t-30.5 -6.5q-5 -3 -9 -31.5t-7 -69.5t-4 -88.5t-1 -88.5t2 -69t6 -30q6 -3 31 -1t54 5t53.5 3.5t28.5 -6.5q8 -12 5 -26.5t-14 -19.5q-6 -2 -29.5 -1t-50 1.5
t-49 -1.5t-25.5 -9q-3 -8 -4.5 -24.5t-0.5 -34.5t4.5 -33t9.5 -18t34 -4.5t60 -3t59 -4t33 -6.5q6 -5 9 -12.5t3.5 -15t-2 -14t-7.5 -8.5q-3 -1 -20.5 -2.5t-41.5 -2.5t-51.5 -1.5t-52 0t-42.5 2t-23 4.5t-9.5 49.5t-8.5 115.5q0 5 -4 9.5t-26 8.5q-38 -3 -68.5 -6t-31.5 -8
l-18 -70.5t-7 -24.5l-8.5 -24.5t-13.5 -29.5t-18.5 -23t-22.5 -6q-8 2 -10 11.5t0.5 24.5t8 33t13.5 37q4 9 18 50l33 97l40 119l39.5 117.5l30.5 92.5t14 43q5 16 9 32t15 16zM116 244q-2 -3 5 -4.5t19 -1t28 1.5t33 3q17 5 19.5 8.5t2.5 7.5q-3 63 -4 127t-1 121
q-2 17 -4.5 17t-5.5 -6q-8 -15 -19 -44.5t-23.5 -67t-25 -80zM352 851q9 13 19.5 13t18 -6.5t9.5 -17.5t-5 -20l-77 -96q-6 -10 -15 -11.5t-16 3t-9.5 13.5t5.5 20l36 52.5z" />
    <glyph glyph-name="Cacute" unicode="&#x106;" horiz-adv-x="292" 
d="M232 657q9 -5 13 -12t3 -14t-6.5 -12.5t-17.5 -7.5t-25 0t-27 3t-28 -1.5t-26 -12.5q-25 -21 -40 -61.5t-21 -90t-5 -104.5t8.5 -104.5t19.5 -89t28 -59.5q15 -19 35.5 -20t41 4t37 11t24.5 1q15 -11 21 -22t-13 -23q-10 -6 -30 -13t-45 -10t-51.5 1t-48.5 21t-38 59
t-25 97.5t-11 118.5t4 121.5t20 107t37 75.5q26 30 53 40.5t50 10.5t40 -5.5t23 -8.5zM169 851q9 13 19.5 13t18 -6.5t9.5 -17.5t-5 -20l-77 -96q-6 -10 -15 -11.5t-16 3t-9.5 13.5t5.5 20l36 52.5z" />
    <glyph glyph-name="Ccaron" unicode="&#x10c;" horiz-adv-x="292" 
d="M232 657q9 -5 13 -12t3 -14t-6.5 -12.5t-17.5 -7.5t-25 0t-27 3t-28 -1.5t-26 -12.5q-25 -21 -40 -61.5t-21 -90t-5 -104.5t8.5 -104.5t19.5 -89t28 -59.5q15 -19 35.5 -20t41 4t37 11t24.5 1q15 -11 21 -22t-13 -23q-10 -6 -30 -13t-45 -10t-51.5 1t-48.5 21t-38 59
t-25 97.5t-11 118.5t4 121.5t20 107t37 75.5q26 30 53 40.5t50 10.5t40 -5.5t23 -8.5zM188 732q-11 -15 -24 -19t-31 16q-4 4 -10.5 13.5l-14.5 21l-16 24t-14 23.5t-1.5 18.5t13.5 10.5t18.5 1t13.5 -9q3 -7 8.5 -17.5l10.5 -20.5t10 -17.5t8 -7.5q5 0 15.5 17.5t27.5 42.5
q8 13 17 15t16.5 -2t11 -11.5t0.5 -14.5t-11 -18.5l-17 -24.5t-17.5 -24z" />
    <glyph glyph-name="Ccircumflex" unicode="&#x108;" horiz-adv-x="292" 
d="M232 657q9 -5 13 -12t3 -14t-6.5 -12.5t-17.5 -7.5t-25 0t-27 3t-28 -1.5t-26 -12.5q-25 -21 -40 -61.5t-21 -90t-5 -104.5t8.5 -104.5t19.5 -89t28 -59.5q15 -19 35.5 -20t41 4t37 11t24.5 1q15 -11 21 -22t-13 -23q-10 -6 -30 -13t-45 -10t-51.5 1t-48.5 21t-38 59
t-25 97.5t-11 118.5t4 121.5t20 107t37 75.5q26 30 53 40.5t50 10.5t40 -5.5t23 -8.5zM177 823l13.5 -17t17.5 -24l17 -24.5t11 -18.5t-0.5 -14.5t-11 -11.5t-16.5 -2t-17 15q-17 25 -27.5 42.5t-15.5 17.5q-3 0 -8 -7.5t-10 -17.5l-10.5 -20.5t-8.5 -17.5q-4 -7 -13.5 -9
t-18.5 1t-13.5 10.5t1.5 18.5t14 23.5l16 24l14.5 21t10.5 13.5q18 20 31 16t24 -19z" />
    <glyph glyph-name="Cdotaccent" unicode="&#x10a;" horiz-adv-x="292" 
d="M232 657q9 -5 13 -12t3 -14t-6.5 -12.5t-17.5 -7.5t-25 0t-27 3t-28 -1.5t-26 -12.5q-25 -21 -40 -61.5t-21 -90t-5 -104.5t8.5 -104.5t19.5 -89t28 -59.5q15 -19 35.5 -20t41 4t37 11t24.5 1q15 -11 21 -22t-13 -23q-10 -6 -30 -13t-45 -10t-51.5 1t-48.5 21t-38 59
t-25 97.5t-11 118.5t4 121.5t20 107t37 75.5q26 30 53 40.5t50 10.5t40 -5.5t23 -8.5zM157 815q16 0 23 -10t6 -22.5t-10 -23t-25 -11.5q-14 0 -23.5 10t-11 23t8 23.5t32.5 10.5z" />
    <glyph glyph-name="Dcaron" unicode="&#x10e;" horiz-adv-x="354" 
d="M26 623q-2 27 8.5 35t24.5 8t41 -6.5t76 -29.5q46 -21 75 -61t43.5 -90t16.5 -106t-6.5 -109.5t-26 -99.5t-40.5 -77q-22 -29 -52 -45.5t-59 -25.5t-52.5 -11t-30.5 -1q-15 2 -25 7.5t-11 24.5q0 4 1.5 46.5t3.5 105l4.5 134.5t4.5 136l3.5 110t0.5 55zM83 599
q-3 -2 -6.5 -41.5t-6 -97.5t-5 -125t-3 -125.5t0 -99t3.5 -44.5q4 -6 17 -6t31 5.5t37.5 17t37.5 28.5q29 27 47.5 79.5t23.5 113t-6.5 122t-42.5 108.5q-14 21 -34 35.5t-39.5 22t-34.5 9t-20 -1.5zM152 732q-11 -15 -24 -19t-31 16q-4 4 -10.5 13.5l-14.5 21l-16 24
t-14 23.5t-1.5 18.5t13.5 10.5t18.5 1t13.5 -9q3 -7 8.5 -17.5l10.5 -20.5t10 -17.5t8 -7.5q5 0 15.5 17.5t27.5 42.5q8 13 17 15t16.5 -2t11 -11.5t0.5 -14.5t-11 -18.5l-17 -24.5t-17.5 -24z" />
    <glyph glyph-name="Eacute" unicode="&#xc9;" horiz-adv-x="308" 
d="M17 670q8 7 40 9.5t69 1.5t67.5 -4t35.5 -6q3 -2 6 -6.5t4.5 -10t0 -10.5t-8.5 -7t-29 -3t-47 -2t-47.5 -3.5t-30.5 -6.5q-5 -3 -9 -30.5t-7 -67t-4 -85t-1 -85t2 -66.5t6 -29q6 -3 31 -1t54 5t53.5 3.5t28.5 -6.5q8 -12 5 -26.5t-14 -19.5q-6 -2 -29.5 -1t-50 1.5
t-49 -1.5t-25.5 -9q-3 -8 -4.5 -27t-0.5 -39.5t4.5 -37.5t9.5 -20t34 -4.5t60 -3t59 -4t33 -6.5q6 -5 9 -12.5t3.5 -15t-2 -14t-7.5 -8.5q-4 -1 -21 -2.5t-41 -2.5t-51.5 -1.5t-52 0t-42.5 2t-23 4.5q-4 2 -7.5 31t-6.5 74.5t-6 103t-4.5 117.5t-2.5 118t0 104.5t3 76
t6 33.5zM144 851q9 13 19.5 13t18 -6.5t9.5 -17.5t-5 -20l-77 -96q-6 -10 -15 -11.5t-16 3t-9.5 13.5t5.5 20l36 52.5z" />
    <glyph glyph-name="Ebreve" unicode="&#x114;" horiz-adv-x="308" 
d="M17 670q-4 -4 -6 -33.5t-3 -76t0 -104.5t2.5 -118t4.5 -117.5t6 -103t6.5 -74.5t7.5 -31q5 -3 23 -4.5t42.5 -2t52 0t51.5 1.5t41 2.5t21 2.5q5 2 7.5 8.5t2 14t-3.5 15t-9 12.5q-6 4 -33 6.5t-59 4t-60 3t-34 4.5t-9.5 20t-4.5 37.5t0.5 39.5t4.5 27q3 7 25.5 9t49 1.5
t50 -1.5t29.5 1q11 5 14 19.5t-5 26.5q-4 7 -28.5 6.5t-53.5 -3.5t-54 -5t-31 1q-4 2 -6 29t-2 66.5t1 85t4 85t7 67t9 30.5q8 4 30.5 6.5t47.5 3.5t47 2t29 3t8.5 7t0 10.5t-4.5 10t-6 6.5q-5 3 -35.5 6t-67.5 4t-69 -1.5t-40 -9.5zM32 817q2 6 9.5 9t16.5 3t16 -3t8 -9
t-0.5 -12t-2.5 -12t-0.5 -11.5t6.5 -9.5q7 -5 18.5 -7t24.5 -1t25.5 4.5t20.5 9.5q10 7 10.5 18t2.5 24q1 6 9 9.5t17 3t16 -5.5t6 -14q-2 -19 -5 -34.5t-24 -33.5q-10 -9 -31.5 -14t-44.5 -6t-44 1.5t-30 8.5q-14 9 -20 21t-7.5 23.5t0 21.5t3.5 16z" />
    <glyph glyph-name="Ecaron" unicode="&#x11a;" horiz-adv-x="308" 
d="M17 670q-4 -4 -6 -33.5t-3 -76t0 -104.5t2.5 -118t4.5 -117.5t6 -103t6.5 -74.5t7.5 -31q5 -3 23 -4.5t42.5 -2t52 0t51.5 1.5t41 2.5t21 2.5q5 2 7.5 8.5t2 14t-3.5 15t-9 12.5q-6 4 -33 6.5t-59 4t-60 3t-34 4.5t-9.5 20t-4.5 37.5t0.5 39.5t4.5 27q3 7 25.5 9t49 1.5
t50 -1.5t29.5 1q11 5 14 19.5t-5 26.5q-4 7 -28.5 6.5t-53.5 -3.5t-54 -5t-31 1q-4 2 -6 29t-2 66.5t1 85t4 85t7 67t9 30.5q8 4 30.5 6.5t47.5 3.5t47 2t29 3t8.5 7t0 10.5t-4.5 10t-6 6.5q-5 3 -35.5 6t-67.5 4t-69 -1.5t-40 -9.5zM151 732q-11 -15 -24 -19t-31 16
q-4 4 -10.5 13.5l-14.5 21l-16 24t-14 23.5t-1.5 18.5t13.5 10.5t18.5 1t13.5 -9q3 -7 8.5 -17.5l10.5 -20.5t10 -17.5t8 -7.5q5 0 15.5 17.5t27.5 42.5q8 13 17 15t16.5 -2t11 -11.5t0.5 -14.5t-11 -18.5l-17 -24.5t-17.5 -24z" />
    <glyph glyph-name="Ecircumflex" unicode="&#xca;" horiz-adv-x="308" 
d="M17 670q-4 -4 -6 -33.5t-3 -76t0 -104.5t2.5 -118t4.5 -117.5t6 -103t6.5 -74.5t7.5 -31q5 -3 23 -4.5t42.5 -2t52 0t51.5 1.5t41 2.5t21 2.5q5 2 7.5 8.5t2 14t-3.5 15t-9 12.5q-6 4 -33 6.5t-59 4t-60 3t-34 4.5t-9.5 20t-4.5 37.5t0.5 39.5t4.5 27q3 7 25.5 9t49 1.5
t50 -1.5t29.5 1q11 5 14 19.5t-5 26.5q-4 7 -28.5 6.5t-53.5 -3.5t-54 -5t-31 1q-4 2 -6 29t-2 66.5t1 85t4 85t7 67t9 30.5q8 4 30.5 6.5t47.5 3.5t47 2t29 3t8.5 7t0 10.5t-4.5 10t-6 6.5q-5 3 -35.5 6t-67.5 4t-69 -1.5t-40 -9.5zM151 823l13.5 -17t17.5 -24l17 -24.5
t11 -18.5t-0.5 -14.5t-11 -11.5t-16.5 -2t-17 15q-17 25 -27.5 42.5t-15.5 17.5q-3 0 -8 -7.5t-10 -17.5l-10.5 -20.5t-8.5 -17.5q-4 -7 -13.5 -9t-18.5 1t-13.5 10.5t1.5 18.5t14 23.5l16 24l14.5 21t10.5 13.5q18 20 31 16t24 -19z" />
    <glyph glyph-name="Edieresis" unicode="&#xcb;" horiz-adv-x="308" 
d="M17 670q-4 -4 -6 -33.5t-3 -76t0 -104.5t2.5 -118t4.5 -117.5t6 -103t6.5 -74.5t7.5 -31q5 -3 23 -4.5t42.5 -2t52 0t51.5 1.5t41 2.5t21 2.5q5 2 7.5 8.5t2 14t-3.5 15t-9 12.5q-6 4 -33 6.5t-59 4t-60 3t-34 4.5t-9.5 20t-4.5 37.5t0.5 39.5t4.5 27q3 7 25.5 9t49 1.5
t50 -1.5t29.5 1q11 5 14 19.5t-5 26.5q-4 7 -28.5 6.5t-53.5 -3.5t-54 -5t-31 1q-4 2 -6 29t-2 66.5t1 85t4 85t7 67t9 30.5q8 4 30.5 6.5t47.5 3.5t47 2t29 3t8.5 7t0 10.5t-4.5 10t-6 6.5q-5 3 -35.5 6t-67.5 4t-69 -1.5t-40 -9.5zM95 735q-8 -9 -18 -7.5t-18.5 9
t-12.5 18t0 19.5q3 6 12 10t19 4t18.5 -4t9.5 -14q1 -6 -1 -16.5t-9 -18.5zM195 735q-8 -9 -18 -7.5t-18.5 9t-12.5 18t0 19.5q3 6 12 10t19 4t18.5 -4t9.5 -14q1 -6 -1 -16.5t-9 -18.5z" />
    <glyph glyph-name="Edotaccent" unicode="&#x116;" horiz-adv-x="308" 
d="M17 670q8 7 40 9.5t69 1.5t67.5 -4t35.5 -6q3 -2 6 -6.5t4.5 -10t0 -10.5t-8.5 -7t-29 -3t-47 -2t-47.5 -3.5t-30.5 -6.5q-5 -3 -9 -30.5t-7 -67t-4 -85t-1 -85t2 -66.5t6 -29q6 -3 31 -1t54 5t53.5 3.5t28.5 -6.5q8 -12 5 -26.5t-14 -19.5q-6 -2 -29.5 -1t-50 1.5
t-49 -1.5t-25.5 -9q-3 -8 -4.5 -27t-0.5 -39.5t4.5 -37.5t9.5 -20t34 -4.5t60 -3t59 -4t33 -6.5q6 -5 9 -12.5t3.5 -15t-2 -14t-7.5 -8.5q-4 -1 -21 -2.5t-41 -2.5t-51.5 -1.5t-52 0t-42.5 2t-23 4.5q-4 2 -7.5 31t-6.5 74.5t-6 103t-4.5 117.5t-2.5 118t0 104.5t3 76
t6 33.5zM135 815q16 0 23 -10t6 -22.5t-10 -23t-25 -11.5q-14 0 -23.5 10t-11 23t8 23.5t32.5 10.5z" />
    <glyph glyph-name="Egrave" unicode="&#xc8;" horiz-adv-x="308" 
d="M17 670q8 7 40 9.5t69 1.5t67.5 -4t35.5 -6q3 -2 6 -6.5t4.5 -10t0 -10.5t-8.5 -7t-29 -3t-47 -2t-47.5 -3.5t-30.5 -6.5q-5 -3 -9 -30.5t-7 -67t-4 -85t-1 -85t2 -66.5t6 -29q6 -3 31 -1t54 5t53.5 3.5t28.5 -6.5q8 -12 5 -26.5t-14 -19.5q-6 -2 -29.5 -1t-50 1.5
t-49 -1.5t-25.5 -9q-3 -8 -4.5 -27t-0.5 -39.5t4.5 -37.5t9.5 -20t34 -4.5t60 -3t59 -4t33 -6.5q6 -5 9 -12.5t3.5 -15t-2 -14t-7.5 -8.5q-4 -1 -21 -2.5t-41 -2.5t-51.5 -1.5t-52 0t-42.5 2t-23 4.5q-4 2 -7.5 31t-6.5 74.5t-6 103t-4.5 117.5t-2.5 118t0 104.5t3 76
t6 33.5zM111 841l34 -49.5l36 -52.5q7 -11 5 -20t-9 -13.5t-16 -3t-15 11.5l-77 96q-8 9 -5.5 20t10 17.5t18 6.5t19.5 -13z" />
    <glyph glyph-name="Emacron" unicode="&#x112;" horiz-adv-x="308" 
d="M17 670q-4 -4 -6 -33.5t-3 -76t0 -104.5t2.5 -118t4.5 -117.5t6 -103t6.5 -74.5t7.5 -31q5 -3 23 -4.5t42.5 -2t52 0t51.5 1.5t41 2.5t21 2.5q5 2 7.5 8.5t2 14t-3.5 15t-9 12.5q-6 4 -33 6.5t-59 4t-60 3t-34 4.5t-9.5 20t-4.5 37.5t0.5 39.5t4.5 27q3 7 25.5 9t49 1.5
t50 -1.5t29.5 1q11 5 14 19.5t-5 26.5q-4 7 -28.5 6.5t-53.5 -3.5t-54 -5t-31 1q-4 2 -6 29t-2 66.5t1 85t4 85t7 67t9 30.5q8 4 30.5 6.5t47.5 3.5t47 2t29 3t8.5 7t0 10.5t-4.5 10t-6 6.5q-5 3 -35.5 6t-67.5 4t-69 -1.5t-40 -9.5zM29 766q2 4 16 7t34 4.5t43 1.5t43.5 -1
t36 -3t19.5 -6q5 -5 3.5 -14t-9.5 -12q-6 -2 -23.5 -4.5t-41 -3.5t-48 -0.5t-43 3.5t-28 9.5t-2.5 18.5z" />
    <glyph glyph-name="Gbreve" unicode="&#x11e;" horiz-adv-x="349" 
d="M271 661q13 -14 9 -20.5t-13 -12.5q-10 -6 -23 -2t-28.5 8t-32 3t-33.5 -17q-27 -25 -47 -67t-32 -93t-15.5 -106t2.5 -106t22.5 -93t43.5 -68q19 -17 38 -23t35.5 -5.5t28.5 5t17 7.5q12 8 18.5 25t8.5 35.5t0 34t-7 19.5t-25.5 5t-43 1t-41.5 0.5t-21 3.5q-4 7 -8.5 14
t6.5 15q6 4 28.5 8.5t49.5 7.5t52 2.5t34 -7.5q6 -5 10.5 -20t5.5 -36.5t-0.5 -45.5t-6.5 -46t-14.5 -39.5t-23.5 -24.5q-32 -17 -73.5 -17t-83.5 21q-38 19 -60.5 66t-32.5 108t-7.5 130t16 132t37 114.5t55.5 76.5q26 21 51 27t46 4t36.5 -9.5t21.5 -14.5zM78 817
q2 6 9.5 9t16.5 3t16 -3t8 -9t-0.5 -12t-2.5 -12t-0.5 -11.5t6.5 -9.5q7 -5 18.5 -7t24.5 -1t25.5 4.5t20.5 9.5q10 7 10.5 18t2.5 24q1 6 9 9.5t17 3t16 -5.5t6 -14q-2 -19 -5 -34.5t-24 -33.5q-10 -9 -31.5 -14t-44.5 -6t-44 1.5t-30 8.5q-14 9 -20 21t-7.5 23.5t0 21.5
t3.5 16z" />
    <glyph glyph-name="Gcircumflex" unicode="&#x11c;" horiz-adv-x="349" 
d="M271 661q13 -14 9 -20.5t-13 -12.5q-10 -6 -23 -2t-28.5 8t-32 3t-33.5 -17q-27 -25 -47 -67t-32 -93t-15.5 -106t2.5 -106t22.5 -93t43.5 -68q19 -17 38 -23t35.5 -5.5t28.5 5t17 7.5q12 8 18.5 25t8.5 35.5t0 34t-7 19.5t-25.5 5t-43 1t-41.5 0.5t-21 3.5q-4 7 -8.5 14
t6.5 15q6 4 28.5 8.5t49.5 7.5t52 2.5t34 -7.5q6 -5 10.5 -20t5.5 -36.5t-0.5 -45.5t-6.5 -46t-14.5 -39.5t-23.5 -24.5q-32 -17 -73.5 -17t-83.5 21q-38 19 -60.5 66t-32.5 108t-7.5 130t16 132t37 114.5t55.5 76.5q26 21 51 27t46 4t36.5 -9.5t21.5 -14.5zM204 823
l13.5 -17t17.5 -24l17 -24.5t11 -18.5t-0.5 -14.5t-11 -11.5t-16.5 -2t-17 15q-17 25 -27.5 42.5t-15.5 17.5q-3 0 -8 -7.5t-10 -17.5l-10.5 -20.5t-8.5 -17.5q-4 -7 -13.5 -9t-18.5 1t-13.5 10.5t1.5 18.5t14 23.5l16 24l14.5 21t10.5 13.5q18 20 31 16t24 -19z" />
    <glyph glyph-name="Gcommaaccent" unicode="&#x122;" horiz-adv-x="349" 
d="M271 661q13 -14 9 -20.5t-13 -12.5q-10 -6 -23 -2t-28.5 8t-32 3t-33.5 -17q-27 -25 -47 -67t-32 -93t-15.5 -106t2.5 -106t22.5 -93t43.5 -68q19 -17 38 -23t35.5 -5.5t28.5 5t17 7.5q12 8 18.5 25t8.5 35.5t0 34t-7 19.5t-25.5 5t-43 1t-41.5 0.5t-21 3.5q-4 7 -8.5 14
t6.5 15q6 4 28.5 8.5t49.5 7.5t52 2.5t34 -7.5q6 -5 10.5 -20t5.5 -36.5t-0.5 -45.5t-6.5 -46t-14.5 -39.5t-23.5 -24.5q-32 -17 -73.5 -17t-83.5 21q-38 19 -60.5 66t-32.5 108t-7.5 130t16 132t37 114.5t55.5 76.5q26 21 51 27t46 4t36.5 -9.5t21.5 -14.5zM137 -44
q1 -8 7.5 -15t14.5 -8q5 -2 5 -3.5v-3.5q-2 -12 -5 -17.5t1 -7.5q5 -3 14 6t15.5 23t8.5 29t-7 23q-8 6 -17.5 6.5t-18 -3.5t-14 -12t-4.5 -17z" />
    <glyph glyph-name="Gdotaccent" unicode="&#x120;" horiz-adv-x="349" 
d="M271 661q13 -14 9 -20.5t-13 -12.5q-10 -6 -23 -2t-28.5 8t-32 3t-33.5 -17q-27 -25 -47 -67t-32 -93t-15.5 -106t2.5 -106t22.5 -93t43.5 -68q19 -17 38 -23t35.5 -5.5t28.5 5t17 7.5q12 8 18.5 25t8.5 35.5t0 34t-7 19.5t-25.5 5t-43 1t-41.5 0.5t-21 3.5q-4 7 -8.5 14
t6.5 15q6 4 28.5 8.5t49.5 7.5t52 2.5t34 -7.5q6 -5 10.5 -20t5.5 -36.5t-0.5 -45.5t-6.5 -46t-14.5 -39.5t-23.5 -24.5q-32 -17 -73.5 -17t-83.5 21q-38 19 -60.5 66t-32.5 108t-7.5 130t16 132t37 114.5t55.5 76.5q26 21 51 27t46 4t36.5 -9.5t21.5 -14.5zM184 815
q16 0 23 -10t6 -22.5t-10 -23t-25 -11.5q-14 0 -23.5 10t-11 23t8 23.5t32.5 10.5z" />
    <glyph glyph-name="Hbar" unicode="&#x126;" horiz-adv-x="374" 
d="M4 307q2 4 28.5 9.5t64.5 11t81.5 10t81 6.5t63.5 1t28 -7q13 -37 -5 -44q-3 -1 -28.5 -3t-63 -4t-80 -3.5t-78.5 -2.5t-60 -1t-24 2q0 3 -2.5 5t-5 4.5t-3.5 6t3 9.5zM277 635q3 12 12 17.5t19 6.5t17.5 -2t9.5 -9q1 -4 0.5 -38t-2.5 -84.5l-4.5 -109.5t-4.5 -112.5
l-3.5 -94.5t-2.5 -55q-2 -42 0 -70t2 -41q0 -6 -8 -13t-17 -9t-15.5 4.5t-4.5 26.5q1 6 1.5 30.5t0.5 52t-0.5 50.5t-1.5 27q1 2 -13 2t-36.5 -1t-49 -3t-48.5 -4t-36 -4t-12 -3q-2 -2 -2 -15t0.5 -31.5t2 -39.5t2 -39.5t1.5 -31t0 -14.5q-2 -4 -10 -7.5t-17 -5t-17.5 -0.5
t-9.5 7q-1 4 -1 33.5t1 72t2 92.5t2 94.5t2 77.5t1 42q0 14 -1.5 46t-3.5 67t-3.5 65t-0.5 40t9 15t17.5 6t17.5 -2.5t8 -10.5v-27.5t-0.5 -55.5t-0.5 -72.5t-0.5 -76t-0.5 -67v-45.5v-30.5t1 -40.5q0 -1 15 0.5t37.5 3.5t48.5 5t47.5 6t35.5 6t12 4l-2 119.5t-1 112t1 87.5
t4 46z" />
    <glyph glyph-name="Hcircumflex" unicode="&#x124;" horiz-adv-x="345" 
d="M254 635q3 12 12 17.5t19 6.5t17.5 -2t9.5 -9q1 -4 0.5 -38t-2.5 -84.5l-4.5 -109.5t-4.5 -112.5t-4 -94.5t-2 -55q-2 -42 0 -70t2 -41q0 -6 -8 -13t-17 -9t-15.5 4.5t-4.5 26.5q1 6 1.5 30.5t0.5 52t-0.5 50.5t-1.5 27q1 2 -13 2t-36.5 -1t-49 -3t-48.5 -4t-36 -4
t-12 -3q-2 -2 -2 -15t0.5 -31.5t2 -39.5t2 -39.5t1 -31t0.5 -14.5q-2 -4 -10 -7.5t-17 -5t-17.5 -0.5t-9.5 7q-1 4 -1 33.5t1 72t2 92.5t2 94.5t2 77.5t1 42q0 14 -1.5 46t-3.5 67t-3.5 65t-0.5 40t9 15t17.5 6t17.5 -2.5t8 -10.5v-27.5t-0.5 -55.5t-0.5 -72.5t-0.5 -76
t-0.5 -67v-45.5v-30.5t1 -40.5q0 -1 15 0.5t37.5 3.5t48.5 5t47.5 6t35.5 6t12 4l-2 119.5t-1 112t1 87.5t4 46zM184 823l13.5 -17t17.5 -24l17 -24.5t11 -18.5t-0.5 -14.5t-11 -11.5t-16.5 -2t-17 15q-17 25 -27.5 42.5t-15.5 17.5q-3 0 -8 -7.5t-10 -17.5l-10.5 -20.5
t-8.5 -17.5q-4 -7 -13.5 -9t-18.5 1t-13.5 10.5t1.5 18.5t14 23.5l16 24l14.5 21t10.5 13.5q18 20 31 16t24 -19z" />
    <glyph glyph-name="Jcircumflex" unicode="&#x134;" horiz-adv-x="316" 
d="M224 654q1 7 10 12t18.5 6t17.5 -3.5t7 -14.5q-1 -7 -1 -41.5t0.5 -84t0.5 -107t-0.5 -109.5t-1 -92.5t-2.5 -55.5q-3 -23 -9 -51t-20 -52t-39.5 -41.5t-67.5 -19.5q-33 -2 -56 9.5t-37.5 30.5t-22.5 43t-11.5 46.5t-3.5 41.5t1 28q1 14 8.5 18t16.5 2t16 -9t7 -14
q0 -8 0.5 -32t6.5 -50.5t20 -47.5t42 -22q25 -1 42.5 8t29 25.5t17.5 38.5t8 48q8 99 9 185t-1 151t-4.5 105.5t-0.5 48.5zM277 823l13.5 -17t17.5 -24l17 -24.5t11 -18.5t-0.5 -14.5t-11 -11.5t-16.5 -2t-17 15q-17 25 -27.5 42.5t-15.5 17.5q-3 0 -8 -7.5t-10 -17.5
l-10.5 -20.5t-8.5 -17.5q-4 -7 -13.5 -9t-18.5 1t-13.5 10.5t1.5 18.5t14 23.5l16 24l14.5 21t10.5 13.5q18 20 31 16t24 -19z" />
    <glyph glyph-name="Kcommaaccent" unicode="&#x136;" horiz-adv-x="328" 
d="M252 649q7 12 20 11t24 -9t16 -21t-4 -25q-2 -3 -19.5 -31l-41.5 -69l-52 -88l-52 -87.5l-39.5 -68.5t-15.5 -30q0 -4 13 -18t33 -33l43.5 -40.5l45 -40.5l37.5 -32.5t20 -16.5q7 -5 7.5 -15.5t-4 -20t-12.5 -15t-17 -1.5q-6 2 -21.5 17l-36.5 35.5l-44 44l-42.5 43.5
t-33.5 32.5t-17 11.5t-4 -14t-1.5 -31.5t0 -40.5t1.5 -41t1 -32v-14q-2 -6 -8 -10t-13 -4.5t-13 2.5t-8 12t-2.5 22.5t0 28t1.5 27t1 20.5v29.5t-0.5 64.5t-1 88l-1 99.5t-0.5 98.5t0.5 86.5t1 62t1.5 25.5q2 3 9 5.5t15 2.5t16 -2t13 -6q4 -5 5 -14.5t0.5 -23t-2.5 -29.5
t-3 -34q-1 -6 -2 -29.5t-3 -55.5l-4 -67t-3 -65t-1 -50.5t2 -21.5q3 -2 17 23.5l34.5 65l44 87l44.5 90l36.5 74t19.5 38.5zM100 -44q-1 9 4.5 17t14 12t18 3.5t17.5 -6.5q9 -8 7 -23t-8.5 -29t-15.5 -23t-14 -6q-4 2 -1 7.5t5 17.5v3.5t-5 3.5q-8 1 -14.5 8t-7.5 15z" />
    <glyph glyph-name="Lacute" unicode="&#x139;" 
d="M23 649q2 3 9 8t15.5 7t16 -1t9.5 -14q1 -6 0 -33l-2.5 -68t-4.5 -91.5t-5.5 -102.5l-5 -102t-3.5 -90t0 -65.5t4 -28.5q4 -5 18.5 -5t34 1.5t41 4t40 4t30.5 0t13 -7.5q2 -18 2 -28.5t-11 -10.5q-4 0 -20 -2l-38.5 -5t-48 -6t-48 -4.5t-38 -1.5t-17.5 4q-2 3 -2.5 31.5
t-0.5 73t0.5 101t1.5 115.5l2 115t2.5 100.5t3 72t2.5 29.5zM58 851q9 13 19.5 13t18 -6.5t9.5 -17.5t-5 -20l-77 -96q-6 -10 -15 -11.5t-16 3t-9.5 13.5t5.5 20l36 52.5z" />
    <glyph glyph-name="Lcaron" unicode="&#x13d;" 
d="M23 649q-1 -2 -2.5 -29.5t-3 -72t-2.5 -100.5l-2 -115t-1.5 -115.5t-0.5 -101t0.5 -73t2.5 -31.5q2 -4 17.5 -4t38 1.5t48 4.5t48 6l38.5 5t20 2q11 0 11 10.5t-2 28.5q-1 6 -13 7.5t-30.5 0t-40 -4t-41 -4t-34 -1.5t-18.5 5q-3 3 -4 28.5t0 65.5t3.5 90l5 102t5.5 102.5
t4.5 91.5l2.5 68t0 33q-2 11 -9.5 14t-16 1t-15.5 -7t-9 -8zM78 732q-11 -15 -24 -19t-31 16q-4 4 -10.5 13.5l-14.5 21l-16 24t-14 23.5t-1.5 18.5t13.5 10.5t18.5 1t13.5 -9q3 -7 8.5 -17.5l10.5 -20.5t10 -17.5t8 -7.5q5 0 15.5 17.5t27.5 42.5q8 13 17 15t16.5 -2
t11 -11.5t0.5 -14.5t-11 -18.5l-17 -24.5t-17.5 -24z" />
    <glyph glyph-name="Ncaron" unicode="&#x147;" horiz-adv-x="366" 
d="M19 661q-2 -2 -3 -30t-1 -72t0.5 -100t2 -114.5t3.5 -114.5t4 -100.5t4.5 -72.5t4.5 -31q9 -11 22 -12t18 19q1 7 0 48.5t-3.5 101l-5.5 126.5t-5 124.5t-2 96.5t3 41q2 2 11.5 -20.5t24 -61l32.5 -87.5l36.5 -101.5l37 -103l33.5 -90.5t26 -66t15 -29q16 -11 26 -9.5
t19 15.5q2 3 4 32.5t3.5 76t3 104.5t1.5 118.5t-0.5 118.5t-2 104.5t-4 76t-6.5 32.5q-16 13 -26 7.5t-14 -12.5q-1 -2 -1 -27t1 -65.5t2 -91.5t2.5 -104t2.5 -104t1.5 -90.5t-0.5 -64t-3 -25.5t-11.5 22t-23.5 61l-31 87l-35 100.5l-35 102l-31.5 91.5l-24 68t-12.5 32
q-6 10 -14.5 12t-18 -1t-18 -8.5t-12.5 -9.5zM205 732q-11 -15 -24 -19t-31 16q-4 4 -10.5 13.5l-14.5 21l-16 24t-14 23.5t-1.5 18.5t13.5 10.5t18.5 1t13.5 -9q3 -7 8.5 -17.5l10.5 -20.5t10 -17.5t8 -7.5q5 0 15.5 17.5t27.5 42.5q8 13 17 15t16.5 -2t11 -11.5t0.5 -14.5
t-11 -18.5l-17 -24.5t-17.5 -24z" />
    <glyph glyph-name="Lcommaaccent" unicode="&#x13b;" 
d="M23 649q2 3 9 8t15.5 7t16 -1t9.5 -14q1 -6 0 -33l-2.5 -68t-4.5 -91.5t-5.5 -102.5l-5 -102t-3.5 -90t0 -65.5t4 -28.5q4 -5 18.5 -5t34 1.5t41 4t40 4t30.5 0t13 -7.5q2 -18 2 -28.5t-11 -10.5q-4 0 -20 -2l-38.5 -5t-48 -6t-48 -4.5t-38 -1.5t-17.5 4q-2 3 -2.5 31.5
t-0.5 73t0.5 101t1.5 115.5l2 115t2.5 100.5t3 72t2.5 29.5zM96 -44q-1 9 4.5 17t14 12t18 3.5t17.5 -6.5q9 -8 7 -23t-8.5 -29t-15.5 -23t-14 -6q-4 2 -1 7.5t5 17.5v3.5t-5 3.5q-8 1 -14.5 8t-7.5 15z" />
    <glyph glyph-name="Ldot" unicode="&#x13f;" 
d="M158 339q16 0 23 -10t6 -22.5t-10 -23t-25 -11.5q-14 0 -23.5 10t-11 23t8 23.5t32.5 10.5zM23 649q2 3 9 8t15.5 7t16 -1t9.5 -14q1 -6 0 -33l-2.5 -68t-4.5 -91.5t-5.5 -102.5l-5 -102t-3.5 -90t0 -65.5t4 -28.5q4 -5 18.5 -5t34 1.5t41 4t40 4t30.5 0t13 -7.5
q2 -18 2 -28.5t-11 -10.5q-4 0 -20 -2l-38.5 -5t-48 -6t-48 -4.5t-38 -1.5t-17.5 4q-2 3 -2.5 31.5t-0.5 73t0.5 101t1.5 115.5l2 115t2.5 100.5t3 72t2.5 29.5z" />
    <glyph glyph-name="Lslash" unicode="&#x141;" horiz-adv-x="384" 
d="M8 128q0 4 17.5 24t45 47l60 56.5l61.5 53.5t50.5 38.5t26.5 11.5q32 -22 22 -39q-1 -3 -21 -19.5l-48.5 -40l-62 -50.5l-62 -49l-48 -36.5t-20.5 -12.5q-2 3 -5 3t-6.5 0.5t-6.5 3t-3 9.5zM143 649q2 3 9 8t15.5 7t16 -1t9.5 -14q1 -6 0 -33l-2.5 -68t-4.5 -91.5
t-5.5 -102.5l-5 -102t-3.5 -90t0 -65.5t4 -28.5q4 -5 18.5 -5t34 1.5t41 4t40 4t30.5 0t13 -7.5q2 -18 2 -28.5t-11 -10.5q-4 0 -20 -2l-38.5 -5t-48 -6t-48 -4.5t-38 -1.5t-17.5 4q-2 3 -2.5 31.5t-0.5 73t0.5 101t1.5 115.5l2 115t2.5 100.5t3 72t2.5 29.5z" />
    <glyph glyph-name="lslash" unicode="&#x142;" horiz-adv-x="384" 
d="M8 128q0 4 17.5 24t45 47l60 56.5l61.5 53.5t50.5 38.5t26.5 11.5q32 -22 22 -39q-1 -3 -21 -19.5l-48.5 -40l-62 -50.5l-62 -49l-48 -36.5t-20.5 -12.5q-2 3 -5 3t-6.5 0.5t-6.5 3t-3 9.5zM143 649q2 3 9 8t15.5 7t16 -1t9.5 -14q1 -6 0 -33l-2.5 -68t-4.5 -91.5
t-5.5 -102.5l-5 -102t-3.5 -90t0 -65.5t4 -28.5q4 -5 18.5 -5t34 1.5t41 4t40 4t30.5 0t13 -7.5q2 -18 2 -28.5t-11 -10.5q-4 0 -20 -2l-38.5 -5t-48 -6t-48 -4.5t-38 -1.5t-17.5 4q-2 3 -2.5 31.5t-0.5 73t0.5 101t1.5 115.5l2 115t2.5 100.5t3 72t2.5 29.5z" />
    <glyph glyph-name="Zcaron" unicode="&#x17d;" horiz-adv-x="344" 
d="M42 621q-19 -2 -29 6.5t-12.5 20t2.5 20.5t17 8q8 -1 30 -1.5t51 -1t61.5 -1t61.5 -1t50 -1.5t28 -2q10 -2 13.5 -6.5t3 -11.5t-4 -15l-7.5 -17q-5 -10 -19.5 -46l-34.5 -86l-42 -107l-42.5 -109.5l-36.5 -94.5l-23 -61l-9.5 -28t-2.5 -14t7.5 -4t20.5 1q7 1 31 2
t51.5 2.5t53.5 2.5t37 2q15 1 20 -7.5t3 -19t-9 -19.5t-17 -10q-6 -1 -25 -1.5t-44 -2t-53 -2.5t-52 -1.5t-41 0t-21 1.5q-10 3 -17.5 19t-0.5 38q2 6 16 42l35 87.5l45.5 113l47 118.5l40.5 103.5t26 69.5q5 16 -1.5 17.5t-21.5 1.5q-20 1 -46 1t-52.5 -1t-50 -2.5
t-37.5 -2.5zM201 732q-11 -15 -24 -19t-31 16q-4 4 -10.5 13.5l-14.5 21l-16 24t-14 23.5t-1.5 18.5t13.5 10.5t18.5 1t13.5 -9q3 -7 8.5 -17.5l10.5 -20.5t10 -17.5t8 -7.5q5 0 15.5 17.5t27.5 42.5q8 13 17 15t16.5 -2t11 -11.5t0.5 -14.5t-11 -18.5l-17 -24.5t-17.5 -24z
" />
    <glyph glyph-name="Nacute" unicode="&#x143;" horiz-adv-x="366" 
d="M19 661q4 4 12.5 9.5t18 8.5t18 1t14.5 -12q3 -5 12.5 -32l24 -68l31.5 -91.5l35 -102l35 -100.5l31 -87t23.5 -61t11.5 -22t3 25.5t0.5 64t-1.5 90.5t-2.5 104t-2.5 104t-2 91.5t-1 65.5t1 27q4 7 14 12.5t26 -7.5q4 -3 6.5 -32.5t4 -76t2 -104.5t0.5 -118.5
t-1.5 -118.5t-3 -104.5t-3.5 -76t-4 -32.5q-9 -14 -19 -15.5t-26 9.5q-4 3 -15 29t-26 66l-33.5 90.5l-37 103l-36.5 101.5l-32.5 87.5t-24 61t-11.5 20.5q-3 -2 -3 -41t2 -96.5t5 -124.5l5.5 -126.5t3.5 -101t0 -48.5q-5 -20 -18 -19t-22 12q-2 3 -4.5 31t-4.5 72.5
t-4 100.5t-3.5 114.5t-2 114.5t-0.5 100t1 72t3 30zM197 851q9 13 19.5 13t18 -6.5t9.5 -17.5t-5 -20l-77 -96q-6 -10 -15 -11.5t-16 3t-9.5 13.5t5.5 20l36 52.5z" />
    <glyph glyph-name="Ncommaaccent" unicode="&#x145;" horiz-adv-x="366" 
d="M19 661q4 4 12.5 9.5t18 8.5t18 1t14.5 -12q3 -5 12.5 -32l24 -68l31.5 -91.5l35 -102l35 -100.5l31 -87t23.5 -61t11.5 -22t3 25.5t0.5 64t-1.5 90.5t-2.5 104t-2.5 104t-2 91.5t-1 65.5t1 27q4 7 14 12.5t26 -7.5q4 -3 6.5 -32.5t4 -76t2 -104.5t0.5 -118.5
t-1.5 -118.5t-3 -104.5t-3.5 -76t-4 -32.5q-9 -14 -19 -15.5t-26 9.5q-4 3 -15 29t-26 66l-33.5 90.5l-37 103l-36.5 101.5l-32.5 87.5t-24 61t-11.5 20.5q-3 -2 -3 -41t2 -96.5t5 -124.5l5.5 -126.5t3.5 -101t0 -48.5q-5 -20 -18 -19t-22 12q-2 3 -4.5 31t-4.5 72.5
t-4 100.5t-3.5 114.5t-2 114.5t-0.5 100t1 72t3 30zM143 -44q-1 9 4.5 17t14 12t18 3.5t17.5 -6.5q9 -8 7 -23t-8.5 -29t-15.5 -23t-14 -6q-4 2 -1 7.5t5 17.5v3.5t-5 3.5q-8 1 -14.5 8t-7.5 15z" />
    <glyph glyph-name="Ntilde" unicode="&#xd1;" horiz-adv-x="366" 
d="M19 661q-2 -2 -3 -30t-1 -72t0.5 -100t2 -114.5t3.5 -114.5t4 -100.5t4.5 -72.5t4.5 -31q9 -11 22 -12t18 19q1 7 0 48.5t-3.5 101l-5.5 126.5t-5 124.5t-2 96.5t3 41q2 2 11.5 -20.5t24 -61l32.5 -87.5l36.5 -101.5l37 -103l33.5 -90.5t26 -66t15 -29q16 -11 26 -9.5
t19 15.5q2 3 4 32.5t3.5 76t3 104.5t1.5 118.5t-0.5 118.5t-2 104.5t-4 76t-6.5 32.5q-16 13 -26 7.5t-14 -12.5q-1 -2 -1 -27t1 -65.5t2 -91.5t2.5 -104t2.5 -104t1.5 -90.5t-0.5 -64t-3 -25.5t-11.5 22t-23.5 61l-31 87l-35 100.5l-35 102l-31.5 91.5l-24 68t-12.5 32
q-6 10 -14.5 12t-18 -1t-18 -8.5t-12.5 -9.5zM157 821q9 0 18 -8t16.5 -18.5l13 -18.5t8.5 -8q11 2 20 17.5t20 28.5q6 6 13 6t13 -4t8.5 -11t-0.5 -14t-12 -20.5t-19.5 -26.5t-21.5 -22.5t-19 -9.5q-12 0 -20.5 9t-15.5 19t-12 18t-10 7q-7 -2 -12.5 -8t-10 -13.5l-9 -15.5
t-8.5 -12q-4 -5 -12.5 -3.5t-15.5 6.5t-9.5 13t4.5 17t15 21t17 23.5t19.5 19.5t21.5 8z" />
    <glyph glyph-name="Oacute" unicode="&#xd3;" horiz-adv-x="410" 
d="M330 73q-22 -33 -62.5 -48t-83.5 -16.5t-80.5 8t-53.5 25.5q-18 19 -29 67t-15 109.5t-2 129.5t9 127t18 102t26 55q21 17 55.5 27t73.5 11.5t76.5 -6.5t64.5 -28q10 -7 19.5 -43.5t16.5 -89t10 -115t0.5 -123t-13 -111.5t-30.5 -81zM97 593q-14 -17 -23.5 -58.5t-15 -95
t-6 -112.5t3 -110.5t11.5 -89t21 -47.5q17 -14 46 -19.5t60 -2t59 15.5t44 33q9 12 15.5 50t10 89t3.5 108.5t-4 108t-12 88t-20 48.5q-17 15 -45 21.5t-57 5t-54 -9.5t-37 -23zM219 851q9 13 19.5 13t18 -6.5t9.5 -17.5t-5 -20l-77 -96q-6 -10 -15 -11.5t-16 3t-9.5 13.5
t5.5 20l36 52.5z" />
    <glyph glyph-name="Obreve" unicode="&#x14e;" horiz-adv-x="410" 
d="M330 73q20 30 30.5 81t13 111.5t-0.5 123t-10 115t-16.5 89t-19.5 43.5q-27 20 -64.5 28t-76.5 6.5t-73.5 -11.5t-55.5 -27q-15 -12 -26 -55t-18 -102t-9 -127t2 -129.5t15 -109.5t29 -67q16 -16 53.5 -25.5t80.5 -8t83.5 16.5t62.5 48zM97 593q12 15 37 23t54 9.5t57 -5
t45 -21.5q12 -11 20 -48.5t12 -88t4 -108t-3.5 -108.5t-10 -89t-15.5 -50q-16 -21 -44 -33t-59 -15.5t-60 2t-46 19.5q-13 10 -21 47.5t-11.5 89t-3 110.5t6 112.5t15 95t23.5 58.5zM108 817q2 6 9.5 9t16.5 3t16 -3t8 -9t-0.5 -12t-2.5 -12t-0.5 -11.5t6.5 -9.5
q7 -5 18.5 -7t24.5 -1t25.5 4.5t20.5 9.5q10 7 10.5 18t2.5 24q1 6 9 9.5t17 3t16 -5.5t6 -14q-2 -19 -5 -34.5t-24 -33.5q-10 -9 -31.5 -14t-44.5 -6t-44 1.5t-30 8.5q-14 9 -20 21t-7.5 23.5t0 21.5t3.5 16z" />
    <glyph glyph-name="Odieresis" unicode="&#xd6;" horiz-adv-x="410" 
d="M330 73q20 30 30.5 81t13 111.5t-0.5 123t-10 115t-16.5 89t-19.5 43.5q-27 20 -64.5 28t-76.5 6.5t-73.5 -11.5t-55.5 -27q-15 -12 -26 -55t-18 -102t-9 -127t2 -129.5t15 -109.5t29 -67q16 -16 53.5 -25.5t80.5 -8t83.5 16.5t62.5 48zM97 593q12 15 37 23t54 9.5t57 -5
t45 -21.5q12 -11 20 -48.5t12 -88t4 -108t-3.5 -108.5t-10 -89t-15.5 -50q-16 -21 -44 -33t-59 -15.5t-60 2t-46 19.5q-13 10 -21 47.5t-11.5 89t-3 110.5t6 112.5t15 95t23.5 58.5zM179 735q-8 -9 -18 -7.5t-18.5 9t-12.5 18t0 19.5q3 6 12 10t19 4t18.5 -4t9.5 -14
q1 -6 -1 -16.5t-9 -18.5zM279 735q-8 -9 -18 -7.5t-18.5 9t-12.5 18t0 19.5q3 6 12 10t19 4t18.5 -4t9.5 -14q1 -6 -1 -16.5t-9 -18.5z" />
    <glyph glyph-name="Ograve" unicode="&#xd2;" horiz-adv-x="410" 
d="M330 73q-22 -33 -62.5 -48t-83.5 -16.5t-80.5 8t-53.5 25.5q-18 19 -29 67t-15 109.5t-2 129.5t9 127t18 102t26 55q21 17 55.5 27t73.5 11.5t76.5 -6.5t64.5 -28q10 -7 19.5 -43.5t16.5 -89t10 -115t0.5 -123t-13 -111.5t-30.5 -81zM97 593q-14 -17 -23.5 -58.5t-15 -95
t-6 -112.5t3 -110.5t11.5 -89t21 -47.5q17 -14 46 -19.5t60 -2t59 15.5t44 33q9 12 15.5 50t10 89t3.5 108.5t-4 108t-12 88t-20 48.5q-17 15 -45 21.5t-57 5t-54 -9.5t-37 -23zM191 841l34 -49.5l36 -52.5q7 -11 5 -20t-9 -13.5t-16 -3t-15 11.5l-77 96q-8 9 -5.5 20
t10 17.5t18 6.5t19.5 -13z" />
    <glyph glyph-name="Ohungarumlaut" unicode="&#x150;" horiz-adv-x="410" 
d="M330 73q-22 -33 -62.5 -48t-83.5 -16.5t-80.5 8t-53.5 25.5q-18 19 -29 67t-15 109.5t-2 129.5t9 127t18 102t26 55q21 17 55.5 27t73.5 11.5t76.5 -6.5t64.5 -28q10 -7 19.5 -43.5t16.5 -89t10 -115t0.5 -123t-13 -111.5t-30.5 -81zM97 593q-14 -17 -23.5 -58.5t-15 -95
t-6 -112.5t3 -110.5t11.5 -89t21 -47.5q17 -14 46 -19.5t60 -2t59 15.5t44 33q9 12 15.5 50t10 89t3.5 108.5t-4 108t-12 88t-20 48.5q-17 15 -45 21.5t-57 5t-54 -9.5t-37 -23zM175 841q9 13 19.5 13t18 -6.5t9.5 -17.5t-5 -20l-77 -96q-6 -10 -15 -11.5t-16 3t-9.5 13.5
t5.5 20l36 52.5zM262 841q9 13 19.5 13t18 -6.5t9.5 -17.5t-5 -20l-77 -96q-6 -10 -15 -11.5t-16 3t-9.5 13.5t5.5 20l36 52.5z" />
    <glyph glyph-name="Omacron" unicode="&#x14c;" horiz-adv-x="410" 
d="M330 73q20 30 30.5 81t13 111.5t-0.5 123t-10 115t-16.5 89t-19.5 43.5q-27 20 -64.5 28t-76.5 6.5t-73.5 -11.5t-55.5 -27q-15 -12 -26 -55t-18 -102t-9 -127t2 -129.5t15 -109.5t29 -67q16 -16 53.5 -25.5t80.5 -8t83.5 16.5t62.5 48zM97 593q12 15 37 23t54 9.5t57 -5
t45 -21.5q12 -11 20 -48.5t12 -88t4 -108t-3.5 -108.5t-10 -89t-15.5 -50q-16 -21 -44 -33t-59 -15.5t-60 2t-46 19.5q-13 10 -21 47.5t-11.5 89t-3 110.5t6 112.5t15 95t23.5 58.5zM106 766q2 4 16 7t34 4.5t43 1.5t43.5 -1t36 -3t19.5 -6q5 -5 3.5 -14t-9.5 -12
q-6 -2 -23.5 -4.5t-41 -3.5t-48 -0.5t-43 3.5t-28 9.5t-2.5 18.5z" />
    <glyph glyph-name="Oslash" unicode="&#xd8;" horiz-adv-x="410" 
d="M283 715q3 3 10 3.5t15.5 -1.5t15.5 -6t10 -9q3 -6 1.5 -15.5t-5.5 -22.5t-10 -28.5l-12 -32.5q-3 -8 -12.5 -40l-24 -79l-32 -104.5l-35 -116.5l-35 -115l-31 -100t-23 -72t-11.5 -30q-3 -5 -9 -7.5t-11.5 -2t-9.5 5t-4 13.5t3 22.5t7.5 27l8.5 25.5t6 19q1 4 9.5 34
l21.5 77.5l29 106.5l33 120l33.5 119.5l29.5 104.5l21.5 74.5t10.5 29.5zM330 73q-22 -33 -62.5 -48t-83.5 -16.5t-80.5 8t-53.5 25.5q-18 19 -29 67t-15 109.5t-2 129.5t9 127t18 102t26 55q21 17 55.5 27t73.5 11.5t76.5 -6.5t64.5 -28q10 -7 19.5 -43.5t16.5 -89t10 -115
t0.5 -123t-13 -111.5t-30.5 -81zM97 593q-14 -17 -23.5 -58.5t-15 -95t-6 -112.5t3 -110.5t11.5 -89t21 -47.5q17 -14 46 -19.5t60 -2t59 15.5t44 33q9 12 15.5 50t10 89t3.5 108.5t-4 108t-12 88t-20 48.5q-17 15 -45 21.5t-57 5t-54 -9.5t-37 -23z" />
    <glyph glyph-name="Oslashacute" unicode="&#x1fe;" horiz-adv-x="410" 
d="M283 715q3 3 10 3.5t15.5 -1.5t15.5 -6t10 -9q3 -6 1.5 -15.5t-5.5 -22.5t-10 -28.5l-12 -32.5q-3 -8 -12.5 -40l-24 -79l-32 -104.5l-35 -116.5l-35 -115l-31 -100t-23 -72t-11.5 -30q-3 -5 -9 -7.5t-11.5 -2t-9.5 5t-4 13.5t3 22.5t7.5 27l8.5 25.5t6 19q1 4 9.5 34
l21.5 77.5l29 106.5l33 120l33.5 119.5l29.5 104.5l21.5 74.5t10.5 29.5zM330 73q-22 -33 -62.5 -48t-83.5 -16.5t-80.5 8t-53.5 25.5q-18 19 -29 67t-15 109.5t-2 129.5t9 127t18 102t26 55q21 17 55.5 27t73.5 11.5t76.5 -6.5t64.5 -28q10 -7 19.5 -43.5t16.5 -89t10 -115
t0.5 -123t-13 -111.5t-30.5 -81zM97 593q-14 -17 -23.5 -58.5t-15 -95t-6 -112.5t3 -110.5t11.5 -89t21 -47.5q17 -14 46 -19.5t60 -2t59 15.5t44 33q9 12 15.5 50t10 89t3.5 108.5t-4 108t-12 88t-20 48.5q-17 15 -45 21.5t-57 5t-54 -9.5t-37 -23zM219 851q9 13 19.5 13
t18 -6.5t9.5 -17.5t-5 -20l-77 -96q-6 -10 -15 -11.5t-16 3t-9.5 13.5t5.5 20l36 52.5z" />
    <glyph glyph-name="Otilde" unicode="&#xd5;" horiz-adv-x="410" 
d="M330 73q20 30 30.5 81t13 111.5t-0.5 123t-10 115t-16.5 89t-19.5 43.5q-27 20 -64.5 28t-76.5 6.5t-73.5 -11.5t-55.5 -27q-15 -12 -26 -55t-18 -102t-9 -127t2 -129.5t15 -109.5t29 -67q16 -16 53.5 -25.5t80.5 -8t83.5 16.5t62.5 48zM97 593q12 15 37 23t54 9.5t57 -5
t45 -21.5q12 -11 20 -48.5t12 -88t4 -108t-3.5 -108.5t-10 -89t-15.5 -50q-16 -21 -44 -33t-59 -15.5t-60 2t-46 19.5q-13 10 -21 47.5t-11.5 89t-3 110.5t6 112.5t15 95t23.5 58.5zM163 821q9 0 18 -8t16.5 -18.5l13 -18.5t8.5 -8q11 2 20 17.5t20 28.5q6 6 13 6t13 -4
t8.5 -11t-0.5 -14t-12 -20.5t-19.5 -26.5t-21.5 -22.5t-19 -9.5q-12 0 -20.5 9t-15.5 19t-12 18t-10 7q-7 -2 -12.5 -8t-10 -13.5l-9 -15.5t-8.5 -12q-4 -5 -12.5 -3.5t-15.5 6.5t-9.5 13t4.5 17t15 21t17 23.5t19.5 19.5t21.5 8z" />
    <glyph glyph-name="Racute" unicode="&#x154;" horiz-adv-x="326" 
d="M13 654q-1 9 3 14t10.5 7.5t14 3.5t15.5 3q5 1 25.5 1.5t48.5 -5t59.5 -19.5t57 -40.5t41.5 -69t14 -105.5q-3 -70 -18.5 -116t-39.5 -75t-53.5 -43.5t-58.5 -20.5q-7 -2 -5 -3.5t5 -4.5l49.5 -44.5l47 -40.5l37 -30.5t19.5 -15.5q7 -5 6.5 -15.5t-5.5 -20t-14 -15
t-18 -1.5q-6 2 -27 21.5l-48 46.5l-56 56.5l-51 50.5q-5 5 -7 4t-3 -2q-3 -3 -4 -25.5t-2 -49.5t-2 -51t-4 -30q-5 -13 -18 -15.5t-18 8.5q-3 6 -4.5 25t-2 57t0.5 97t3 145l2 106.5t1 96.5v75t-1 40zM54 606q0 -3 0.5 -29.5t1 -65t1 -82.5t1.5 -82t1.5 -64t0.5 -28
q0 -3 0.5 -8t2 -9t5.5 -7t12 -2q5 1 20.5 2.5t35 7.5t41.5 19t40 35.5t30 56.5t13 84q0 49 -11 82.5t-29.5 54t-40 31t-42 15t-37 4.5h-22.5q-20 0 -22 -3.5t-2 -11.5zM163 851q9 13 19.5 13t18 -6.5t9.5 -17.5t-5 -20l-77 -96q-6 -10 -15 -11.5t-16 3t-9.5 13.5t5.5 20
l36 52.5z" />
    <glyph glyph-name="Rcaron" unicode="&#x158;" horiz-adv-x="326" 
d="M13 654q1 -9 1 -40v-75t-1 -96.5l-2 -106.5q-2 -86 -3 -145t-0.5 -97t2 -57t4.5 -25q5 -11 18 -8.5t18 15.5q3 6 4 30t2 51t2 49.5t4 25.5q1 1 3 2t7 -4l51 -50.5l56 -56.5l48 -46.5t27 -21.5q9 -4 18 1.5t14 15t5.5 20t-6.5 15.5q-4 3 -19.5 15.5l-37 30.5l-47 40.5
l-49.5 44.5q-3 3 -5 4.5t5 3.5q29 6 58.5 20.5t53.5 43.5t39.5 75t18.5 116q2 63 -14 105.5t-41.5 69t-57 40.5t-59.5 19.5t-48.5 5t-25.5 -1.5q-8 -2 -15.5 -3t-14 -3.5t-10.5 -7.5t-3 -14zM54 606q0 8 2 11.5t22 3.5h22.5t37 -4.5t42 -15t40 -31t29.5 -54t11 -82.5
q-1 -50 -13 -84t-30 -56.5t-40 -35.5t-41.5 -19t-35 -7.5t-20.5 -2.5q-8 -1 -12 2t-5.5 7t-2 9t-0.5 8q0 2 -0.5 28t-1.5 64t-1.5 82t-1 82.5t-1 65t-0.5 29.5zM160 732q-11 -15 -24 -19t-31 16q-4 4 -10.5 13.5l-14.5 21l-16 24t-14 23.5t-1.5 18.5t13.5 10.5t18.5 1
t13.5 -9q3 -7 8.5 -17.5l10.5 -20.5t10 -17.5t8 -7.5q5 0 15.5 17.5t27.5 42.5q8 13 17 15t16.5 -2t11 -11.5t0.5 -14.5t-11 -18.5l-17 -24.5t-17.5 -24z" />
    <glyph glyph-name="Rcommaaccent" unicode="&#x156;" horiz-adv-x="326" 
d="M13 654q-1 9 3 14t10.5 7.5t14 3.5t15.5 3q5 1 25.5 1.5t48.5 -5t59.5 -19.5t57 -40.5t41.5 -69t14 -105.5q-3 -70 -18.5 -116t-39.5 -75t-53.5 -43.5t-58.5 -20.5q-7 -2 -5 -3.5t5 -4.5l49.5 -44.5l47 -40.5l37 -30.5t19.5 -15.5q7 -5 6.5 -15.5t-5.5 -20t-14 -15
t-18 -1.5q-6 2 -27 21.5l-48 46.5l-56 56.5l-51 50.5q-5 5 -7 4t-3 -2q-3 -3 -4 -25.5t-2 -49.5t-2 -51t-4 -30q-5 -13 -18 -15.5t-18 8.5q-3 6 -4.5 25t-2 57t0.5 97t3 145l2 106.5t1 96.5v75t-1 40zM54 606q0 -3 0.5 -29.5t1 -65t1 -82.5t1.5 -82t1.5 -64t0.5 -28
q0 -3 0.5 -8t2 -9t5.5 -7t12 -2q5 1 20.5 2.5t35 7.5t41.5 19t40 35.5t30 56.5t13 84q0 49 -11 82.5t-29.5 54t-40 31t-42 15t-37 4.5h-22.5q-20 0 -22 -3.5t-2 -11.5zM103 -44q-1 9 4.5 17t14 12t18 3.5t17.5 -6.5q9 -8 7 -23t-8.5 -29t-15.5 -23t-14 -6q-4 2 -1 7.5
t5 17.5v3.5t-5 3.5q-8 1 -14.5 8t-7.5 15z" />
    <glyph glyph-name="Sacute" unicode="&#x15a;" horiz-adv-x="280" 
d="M253 601q5 -10 2 -18t-9.5 -12.5t-16 -4.5t-16.5 6q-8 6 -9 16.5t-6.5 21t-21 18.5t-50.5 8q-20 0 -34.5 -17.5t-23.5 -49t-13 -75t-3 -95.5q0 -35 14.5 -58.5t36 -42t46.5 -34t47 -33.5t37 -41.5t16 -57.5q2 -50 -16.5 -79t-51 -40t-77 -4.5t-94.5 29.5q-11 5 -11 14.5
t7 18t19 12t25 -3.5q14 -7 39.5 -15t50 -8t43.5 11t19 42t-14.5 52.5t-37 40t-49 36t-48.5 40t-37 53t-14 73.5q1 48 4.5 97.5t16 89.5t37 66t66.5 28q41 2 65.5 -10t38 -27.5t18 -29.5zM154 851q9 13 19.5 13t18 -6.5t9.5 -17.5t-5 -20l-77 -96q-6 -10 -15 -11.5t-16 3
t-9.5 13.5t5.5 20l36 52.5z" />
    <glyph glyph-name="Scaron" unicode="&#x160;" horiz-adv-x="280" 
d="M253 601q5 -10 2 -18t-9.5 -12.5t-16 -4.5t-16.5 6q-8 6 -9 16.5t-6.5 21t-21 18.5t-50.5 8q-20 0 -34.5 -17.5t-23.5 -49t-13 -75t-3 -95.5q0 -35 14.5 -58.5t36 -42t46.5 -34t47 -33.5t37 -41.5t16 -57.5q2 -50 -16.5 -79t-51 -40t-77 -4.5t-94.5 29.5q-11 5 -11 14.5
t7 18t19 12t25 -3.5q14 -7 39.5 -15t50 -8t43.5 11t19 42t-14.5 52.5t-37 40t-49 36t-48.5 40t-37 53t-14 73.5q1 48 4.5 97.5t16 89.5t37 66t66.5 28q41 2 65.5 -10t38 -27.5t18 -29.5zM161 732q-11 -15 -24 -19t-31 16q-4 4 -10.5 13.5l-14.5 21l-16 24t-14 23.5
t-1.5 18.5t13.5 10.5t18.5 1t13.5 -9q3 -7 8.5 -17.5l10.5 -20.5t10 -17.5t8 -7.5q5 0 15.5 17.5t27.5 42.5q8 13 17 15t16.5 -2t11 -11.5t0.5 -14.5t-11 -18.5l-17 -24.5t-17.5 -24z" />
    <glyph glyph-name="Scedilla" unicode="&#x15e;" horiz-adv-x="280" 
d="M253 601q5 -10 2 -18t-9.5 -12.5t-16 -4.5t-16.5 6q-8 6 -9 16.5t-6.5 21t-21 18.5t-50.5 8q-20 0 -34.5 -17.5t-23.5 -49t-13 -75t-3 -95.5q0 -35 14.5 -58.5t36 -42t46.5 -34t47 -33.5t37 -41.5t16 -57.5q2 -50 -16.5 -79t-51 -40t-77 -4.5t-94.5 29.5q-11 5 -11 14.5
t7 18t19 12t25 -3.5q14 -7 39.5 -15t50 -8t43.5 11t19 42t-14.5 52.5t-37 40t-49 36t-48.5 40t-37 53t-14 73.5q1 48 4.5 97.5t16 89.5t37 66t66.5 28q41 2 65.5 -10t38 -27.5t18 -29.5zM109 41q0 4 8 6t16.5 2t15 -2.5t5.5 -8.5l-5 -14.5l-6 -16.5t-3.5 -14t2.5 -8t14 -4.5
t23.5 -6.5t23 -11.5t13.5 -19.5q3 -18 -9.5 -39.5t-30.5 -29.5q-23 -11 -48 -4.5t-43 16.5q-9 5 -9 12t5.5 13t12.5 10t11 3q14 -5 28 -8t21 -3q3 0 7.5 3t7.5 6t3 6t-5 5q-17 6 -35.5 7.5t-29.5 15.5q-5 6 -5 19t2.5 26.5t6 24.5t3.5 15z" />
    <glyph glyph-name="Scircumflex" unicode="&#x15c;" horiz-adv-x="280" 
d="M253 601q5 -10 2 -18t-9.5 -12.5t-16 -4.5t-16.5 6q-8 6 -9 16.5t-6.5 21t-21 18.5t-50.5 8q-20 0 -34.5 -17.5t-23.5 -49t-13 -75t-3 -95.5q0 -35 14.5 -58.5t36 -42t46.5 -34t47 -33.5t37 -41.5t16 -57.5q2 -50 -16.5 -79t-51 -40t-77 -4.5t-94.5 29.5q-11 5 -11 14.5
t7 18t19 12t25 -3.5q14 -7 39.5 -15t50 -8t43.5 11t19 42t-14.5 52.5t-37 40t-49 36t-48.5 40t-37 53t-14 73.5q1 48 4.5 97.5t16 89.5t37 66t66.5 28q41 2 65.5 -10t38 -27.5t18 -29.5zM169 823l13.5 -17t17.5 -24l17 -24.5t11 -18.5t-0.5 -14.5t-11 -11.5t-16.5 -2t-17 15
q-17 25 -27.5 42.5t-15.5 17.5q-3 0 -8 -7.5t-10 -17.5l-10.5 -20.5t-8.5 -17.5q-4 -7 -13.5 -9t-18.5 1t-13.5 10.5t1.5 18.5t14 23.5l16 24l14.5 21t10.5 13.5q18 20 31 16t24 -19z" />
    <glyph glyph-name="Scommaaccent" unicode="&#x218;" horiz-adv-x="280" 
d="M93 -46q1 -8 7.5 -15t14.5 -8q5 -2 5 -3.5v-3.5q-2 -12 -5 -17.5t1 -7.5q5 -3 14 6t15.5 23t8.5 29t-7 23q-8 6 -17.5 6.5t-18 -3.5t-14 -12t-4.5 -17zM253 601q5 -10 2 -18t-9.5 -12.5t-16 -4.5t-16.5 6q-8 6 -9 16.5t-6.5 21t-21 18.5t-50.5 8q-20 0 -34.5 -17.5
t-23.5 -49t-13 -75t-3 -95.5q0 -35 14.5 -58.5t36 -42t46.5 -34t47 -33.5t37 -41.5t16 -57.5q2 -50 -16.5 -79t-51 -40t-77 -4.5t-94.5 29.5q-11 5 -11 14.5t7 18t19 12t25 -3.5q14 -7 39.5 -15t50 -8t43.5 11t19 42t-14.5 52.5t-37 40t-49 36t-48.5 40t-37 53t-14 73.5
q1 48 4.5 97.5t16 89.5t37 66t66.5 28q41 2 65.5 -10t38 -27.5t18 -29.5z" />
    <glyph glyph-name="Tbar" unicode="&#x166;" horiz-adv-x="317" 
d="M63 536q2 4 16 7t34 4.5t43 1.5t43.5 -1t35.5 -3t20 -6q5 -5 3.5 -14t-9.5 -12q-5 -2 -23 -4.5t-41.5 -3.5t-48 -0.5t-43 3.5t-28 9.5t-2.5 18.5zM12 659q2 2 22 4t48.5 4t62 3.5t62 2t49 0t23.5 -2.5q9 -7 14 -21t-8 -23q-7 -5 -19.5 -5.5t-26.5 -1t-26.5 -2.5t-19.5 -9
q-3 -3 -5 -29.5t-2.5 -67t0 -92l1 -105l1 -105t0.5 -92.5t-1 -67.5t-3 -30.5q-9 -16 -25 -15t-25 9q-2 2 -2.5 28.5t0.5 68t3 94.5l4 108t3.5 108t1.5 94.5t-1.5 67.5t-5.5 28q-8 3 -26.5 2t-38.5 -2.5t-37 -2.5t-23 4q-11 9 -9 25.5t9 22.5z" />
    <glyph glyph-name="Tcaron" unicode="&#x164;" horiz-adv-x="317" 
d="M12 659q-7 -6 -9 -22.5t9 -25.5q6 -5 23 -4t37 2.5t38.5 2.5t26.5 -2q4 -2 5.5 -28t1.5 -67.5t-1.5 -94.5t-3.5 -108l-4 -108t-3 -94.5t-0.5 -68t2.5 -28.5q9 -8 25 -9t25 15q2 4 3 30.5t1 67.5t-0.5 92.5l-1 105l-1 105t0 92t2.5 67t5 29.5q7 7 19.5 9t26.5 2.5t26.5 1
t19.5 5.5q13 9 8 23t-14 21q-3 2 -23.5 2.5t-49 0t-62 -2t-62 -3.5t-48.5 -4t-22 -4zM188 732q-11 -15 -24 -19t-31 16q-4 4 -10.5 13.5l-14.5 21l-16 24t-14 23.5t-1.5 18.5t13.5 10.5t18.5 1t13.5 -9q3 -7 8.5 -17.5l10.5 -20.5t10 -17.5t8 -7.5q5 0 15.5 17.5t27.5 42.5
q8 13 17 15t16.5 -2t11 -11.5t0.5 -14.5t-11 -18.5l-17 -24.5t-17.5 -24z" />
    <glyph glyph-name="Tcommaaccent" unicode="&#x162;" horiz-adv-x="317" 
d="M12 659q2 2 22 4t48.5 4t62 3.5t62 2t49 0t23.5 -2.5q9 -7 14 -21t-8 -23q-7 -5 -19.5 -5.5t-26.5 -1t-26.5 -2.5t-19.5 -9q-3 -3 -5 -29.5t-2.5 -67t0 -92l1 -105l1 -105t0.5 -92.5t-1 -67.5t-3 -30.5q-9 -16 -25 -15t-25 9q-2 2 -2.5 28.5t0.5 68t3 94.5l4 108t3.5 108
t1.5 94.5t-1.5 67.5t-5.5 28q-8 3 -26.5 2t-38.5 -2.5t-37 -2.5t-23 4q-11 9 -9 25.5t9 22.5zM125 -44q-1 9 4.5 17t14 12t18 3.5t17.5 -6.5q9 -8 7 -23t-8.5 -29t-15.5 -23t-14 -6q-4 2 -1 7.5t5 17.5v3.5t-5 3.5q-8 1 -14.5 8t-7.5 15z" />
    <glyph glyph-name="Uacute" unicode="&#xda;" horiz-adv-x="357" 
d="M271 654q1 7 10 12t18.5 6t17.5 -3.5t7 -14.5q-1 -7 -1 -41.5t0.5 -84t0.5 -107t-0.5 -109.5t-1 -92.5t-2.5 -55.5q-3 -23 -12 -51t-27 -52t-46.5 -41.5t-70.5 -19.5q-38 -2 -65 13t-45 39t-27.5 51.5t-12.5 51.5q-3 21 -4 64t-1.5 95t0.5 106.5t2 100.5t2 76t1 32
q1 14 8.5 18t16 2t15.5 -9t8 -14q0 -5 -1 -35.5l-2.5 -76t-3.5 -99.5t-2.5 -105t1 -92.5t5.5 -61.5q3 -17 10.5 -36t19 -36t27 -28.5t35.5 -11.5q25 -1 46 8t36 25.5t24 38.5t11 48q8 99 9 185t-1 151t-4.5 105.5t-0.5 48.5zM192 851q9 13 19.5 13t18 -6.5t9.5 -17.5t-5 -20
l-77 -96q-6 -10 -15 -11.5t-16 3t-9.5 13.5t5.5 20l36 52.5z" />
    <glyph glyph-name="Ubreve" unicode="&#x16c;" horiz-adv-x="357" 
d="M271 654q1 7 10 12t18.5 6t17.5 -3.5t7 -14.5q-1 -7 -1 -41.5t0.5 -84t0.5 -107t-0.5 -109.5t-1 -92.5t-2.5 -55.5q-3 -23 -12 -51t-27 -52t-46.5 -41.5t-70.5 -19.5q-38 -2 -65 13t-45 39t-27.5 51.5t-12.5 51.5q-3 21 -4 64t-1.5 95t0.5 106.5t2 100.5t2 76t1 32
q1 14 8.5 18t16 2t15.5 -9t8 -14q0 -5 -1 -35.5l-2.5 -76t-3.5 -99.5t-2.5 -105t1 -92.5t5.5 -61.5q3 -17 10.5 -36t19 -36t27 -28.5t35.5 -11.5q25 -1 46 8t36 25.5t24 38.5t11 48q8 99 9 185t-1 151t-4.5 105.5t-0.5 48.5zM71 817q2 6 9.5 9t16.5 3t16 -3t8 -9t-0.5 -12
t-2.5 -12t-0.5 -11.5t6.5 -9.5q7 -5 18.5 -7t24.5 -1t25.5 4.5t20.5 9.5q10 7 10.5 18t2.5 24q1 6 9 9.5t17 3t16 -5.5t6 -14q-2 -19 -5 -34.5t-24 -33.5q-10 -9 -31.5 -14t-44.5 -6t-44 1.5t-30 8.5q-14 9 -20 21t-7.5 23.5t0 21.5t3.5 16z" />
    <glyph glyph-name="Ucircumflex" unicode="&#xdb;" horiz-adv-x="357" 
d="M271 654q1 7 10 12t18.5 6t17.5 -3.5t7 -14.5q-1 -7 -1 -41.5t0.5 -84t0.5 -107t-0.5 -109.5t-1 -92.5t-2.5 -55.5q-3 -23 -12 -51t-27 -52t-46.5 -41.5t-70.5 -19.5q-38 -2 -65 13t-45 39t-27.5 51.5t-12.5 51.5q-3 21 -4 64t-1.5 95t0.5 106.5t2 100.5t2 76t1 32
q1 14 8.5 18t16 2t15.5 -9t8 -14q0 -5 -1 -35.5l-2.5 -76t-3.5 -99.5t-2.5 -105t1 -92.5t5.5 -61.5q3 -17 10.5 -36t19 -36t27 -28.5t35.5 -11.5q25 -1 46 8t36 25.5t24 38.5t11 48q8 99 9 185t-1 151t-4.5 105.5t-0.5 48.5zM194 823l13.5 -17t17.5 -24l17 -24.5t11 -18.5
t-0.5 -14.5t-11 -11.5t-16.5 -2t-17 15q-17 25 -27.5 42.5t-15.5 17.5q-3 0 -8 -7.5t-10 -17.5l-10.5 -20.5t-8.5 -17.5q-4 -7 -13.5 -9t-18.5 1t-13.5 10.5t1.5 18.5t14 23.5l16 24l14.5 21t10.5 13.5q18 20 31 16t24 -19z" />
    <glyph glyph-name="Udieresis" unicode="&#xdc;" horiz-adv-x="357" 
d="M271 654q1 7 10 12t18.5 6t17.5 -3.5t7 -14.5q-1 -7 -1 -41.5t0.5 -84t0.5 -107t-0.5 -109.5t-1 -92.5t-2.5 -55.5q-3 -23 -12 -51t-27 -52t-46.5 -41.5t-70.5 -19.5q-38 -2 -65 13t-45 39t-27.5 51.5t-12.5 51.5q-3 21 -4 64t-1.5 95t0.5 106.5t2 100.5t2 76t1 32
q1 14 8.5 18t16 2t15.5 -9t8 -14q0 -5 -1 -35.5l-2.5 -76t-3.5 -99.5t-2.5 -105t1 -92.5t5.5 -61.5q3 -17 10.5 -36t19 -36t27 -28.5t35.5 -11.5q25 -1 46 8t36 25.5t24 38.5t11 48q8 99 9 185t-1 151t-4.5 105.5t-0.5 48.5zM143 735q-8 -9 -18 -7.5t-18.5 9t-12.5 18
t0 19.5q3 6 12 10t19 4t18.5 -4t9.5 -14q1 -6 -1 -16.5t-9 -18.5zM243 735q-8 -9 -18 -7.5t-18.5 9t-12.5 18t0 19.5q3 6 12 10t19 4t18.5 -4t9.5 -14q1 -6 -1 -16.5t-9 -18.5z" />
    <glyph glyph-name="Ugrave" unicode="&#xd9;" horiz-adv-x="357" 
d="M271 654q1 7 10 12t18.5 6t17.5 -3.5t7 -14.5q-1 -7 -1 -41.5t0.5 -84t0.5 -107t-0.5 -109.5t-1 -92.5t-2.5 -55.5q-3 -23 -12 -51t-27 -52t-46.5 -41.5t-70.5 -19.5q-38 -2 -65 13t-45 39t-27.5 51.5t-12.5 51.5q-3 21 -4 64t-1.5 95t0.5 106.5t2 100.5t2 76t1 32
q1 14 8.5 18t16 2t15.5 -9t8 -14q0 -5 -1 -35.5l-2.5 -76t-3.5 -99.5t-2.5 -105t1 -92.5t5.5 -61.5q3 -17 10.5 -36t19 -36t27 -28.5t35.5 -11.5q25 -1 46 8t36 25.5t24 38.5t11 48q8 99 9 185t-1 151t-4.5 105.5t-0.5 48.5zM135 841l34 -49.5l36 -52.5q7 -11 5 -20
t-9 -13.5t-16 -3t-15 11.5l-77 96q-8 9 -5.5 20t10 17.5t18 6.5t19.5 -13z" />
    <glyph glyph-name="Uhungarumlaut" unicode="&#x170;" horiz-adv-x="357" 
d="M271 654q1 7 10 12t18.5 6t17.5 -3.5t7 -14.5q-1 -7 -1 -41.5t0.5 -84t0.5 -107t-0.5 -109.5t-1 -92.5t-2.5 -55.5q-3 -23 -12 -51t-27 -52t-46.5 -41.5t-70.5 -19.5q-38 -2 -65 13t-45 39t-27.5 51.5t-12.5 51.5q-3 21 -4 64t-1.5 95t0.5 106.5t2 100.5t2 76t1 32
q1 14 8.5 18t16 2t15.5 -9t8 -14q0 -5 -1 -35.5l-2.5 -76t-3.5 -99.5t-2.5 -105t1 -92.5t5.5 -61.5q3 -17 10.5 -36t19 -36t27 -28.5t35.5 -11.5q25 -1 46 8t36 25.5t24 38.5t11 48q8 99 9 185t-1 151t-4.5 105.5t-0.5 48.5zM149 841q9 13 19.5 13t18 -6.5t9.5 -17.5t-5 -20
l-77 -96q-6 -10 -15 -11.5t-16 3t-9.5 13.5t5.5 20l36 52.5zM236 841q9 13 19.5 13t18 -6.5t9.5 -17.5t-5 -20l-77 -96q-6 -10 -15 -11.5t-16 3t-9.5 13.5t5.5 20l36 52.5z" />
    <glyph glyph-name="Umacron" unicode="&#x16a;" horiz-adv-x="357" 
d="M271 654q1 7 10 12t18.5 6t17.5 -3.5t7 -14.5q-1 -7 -1 -41.5t0.5 -84t0.5 -107t-0.5 -109.5t-1 -92.5t-2.5 -55.5q-3 -23 -12 -51t-27 -52t-46.5 -41.5t-70.5 -19.5q-38 -2 -65 13t-45 39t-27.5 51.5t-12.5 51.5q-3 21 -4 64t-1.5 95t0.5 106.5t2 100.5t2 76t1 32
q1 14 8.5 18t16 2t15.5 -9t8 -14q0 -5 -1 -35.5l-2.5 -76t-3.5 -99.5t-2.5 -105t1 -92.5t5.5 -61.5q3 -17 10.5 -36t19 -36t27 -28.5t35.5 -11.5q25 -1 46 8t36 25.5t24 38.5t11 48q8 99 9 185t-1 151t-4.5 105.5t-0.5 48.5zM80 766q2 4 16 7t34 4.5t43 1.5t43.5 -1t35.5 -3
t20 -6q5 -5 3.5 -14t-9.5 -12q-6 -2 -23.5 -4.5t-41 -3.5t-48 -0.5t-43 3.5t-28 9.5t-2.5 18.5z" />
    <glyph glyph-name="Uogonek" unicode="&#x172;" horiz-adv-x="357" 
d="M271 654q1 7 10 12t18.5 6t17.5 -3.5t7 -14.5q-1 -7 -1 -41.5t0.5 -84t0.5 -107t-0.5 -109.5t-1 -92.5t-2.5 -55.5q-2 -21 -12 -45t-26.5 -46.5t-39 -41.5t-49.5 -30q-7 -3 -15.5 -12.5t-15 -21.5t-9 -25.5t2.5 -23.5q9 -2 17 0.5t16 4.5q12 1 19 -4.5t9 -13t-1.5 -16
t-12.5 -14.5q-41 -14 -64 -6t-31 29t-2 49.5t25 55.5q-27 7 -48 24t-35.5 38.5t-22.5 45.5t-11 44q-3 21 -4 64t-1.5 95t0.5 106.5t2 100.5t2 76t1 32q1 14 8.5 18t16 2t15.5 -9t8 -14q0 -5 -1 -35.5l-2.5 -76t-3.5 -99.5t-2.5 -105t1 -92.5t5.5 -61.5q3 -17 10.5 -36
t19 -36t27 -28.5t35.5 -11.5q25 -1 46 8t36 25.5t24 38.5t11 48q8 99 9 185t-1 151t-4.5 105.5t-0.5 48.5z" />
    <glyph glyph-name="Uring" unicode="&#x16e;" horiz-adv-x="357" 
d="M271 654q1 7 10 12t18.5 6t17.5 -3.5t7 -14.5q-1 -7 -1 -41.5t0.5 -84t0.5 -107t-0.5 -109.5t-1 -92.5t-2.5 -55.5q-3 -23 -12 -51t-27 -52t-46.5 -41.5t-70.5 -19.5q-38 -2 -65 13t-45 39t-27.5 51.5t-12.5 51.5q-3 21 -4 64t-1.5 95t0.5 106.5t2 100.5t2 76t1 32
q1 14 8.5 18t16 2t15.5 -9t8 -14q0 -5 -1 -35.5l-2.5 -76t-3.5 -99.5t-2.5 -105t1 -92.5t5.5 -61.5q3 -17 10.5 -36t19 -36t27 -28.5t35.5 -11.5q25 -1 46 8t36 25.5t24 38.5t11 48q8 99 9 185t-1 151t-4.5 105.5t-0.5 48.5zM163 854q27 2 44.5 -8t26 -25.5t9 -34.5
t-7 -35.5t-22 -28.5t-36.5 -14q-42 -3 -64.5 18t-24.5 49t16.5 52t58.5 27zM172 815q-23 0 -32.5 -10.5t-8 -23.5t11 -23t23.5 -10q16 1 25 11.5t10 23t-6 22.5t-23 10z" />
    <glyph glyph-name="Utilde" unicode="&#x168;" horiz-adv-x="357" 
d="M271 654q1 7 10 12t18.5 6t17.5 -3.5t7 -14.5q-1 -7 -1 -41.5t0.5 -84t0.5 -107t-0.5 -109.5t-1 -92.5t-2.5 -55.5q-3 -23 -12 -51t-27 -52t-46.5 -41.5t-70.5 -19.5q-38 -2 -65 13t-45 39t-27.5 51.5t-12.5 51.5q-3 21 -4 64t-1.5 95t0.5 106.5t2 100.5t2 76t1 32
q1 14 8.5 18t16 2t15.5 -9t8 -14q0 -5 -1 -35.5l-2.5 -76t-3.5 -99.5t-2.5 -105t1 -92.5t5.5 -61.5q3 -17 10.5 -36t19 -36t27 -28.5t35.5 -11.5q25 -1 46 8t36 25.5t24 38.5t11 48q8 99 9 185t-1 151t-4.5 105.5t-0.5 48.5zM146 821q9 0 18 -8t16.5 -18.5l13 -18.5t8.5 -8
q11 2 20 17.5t20 28.5q6 6 13 6t13 -4t8.5 -11t-0.5 -14t-12 -20.5t-19.5 -26.5t-21.5 -22.5t-19 -9.5q-12 0 -20.5 9t-15.5 19t-12 18t-10 7q-7 -2 -12.5 -8t-10 -13.5l-9 -15.5t-8.5 -12q-4 -5 -12.5 -3.5t-15.5 6.5t-9.5 13t4.5 17t15 21t17 23.5t19.5 19.5t21.5 8z" />
    <glyph glyph-name="Wacute" unicode="&#x1e82;" horiz-adv-x="535" 
d="M396 91q2 21 6 58.5l10.5 102.5t14.5 163.5t17 242.5q1 3 9.5 6t18 4t17.5 -1t9 -8q2 -12 -1.5 -38.5t-5.5 -54.5q-1 -7 -3.5 -32.5t-6.5 -62.5t-9.5 -83l-11 -93l-10.5 -92.5l-9 -82t-7 -60.5t-4 -29q-2 -12 -12 -17t-22.5 -4.5t-23.5 5t-14 11.5q-5 15 -14 45l-20 67.5
l-22 78.5l-21.5 77.5l-18.5 64.5t-12 40q-3 9 -5.5 10.5t-4 -0.5t-2.5 -5.5l-1 -3.5q-4 -11 -12.5 -38.5l-19.5 -63l-22.5 -76l-22.5 -78l-20 -68t-14 -45.5q-5 -17 -17 -23t-25 -4t-23 10.5t-12 20.5q-1 4 -3.5 38l-6 84.5l-7.5 109.5t-7 112.5t-6 94.5t-3 55q-1 42 -4 70
t-4 41q0 6 7.5 13.5t16.5 10t16.5 -3.5t6.5 -26l33 -545l6 -6t7 8l15.5 52.5l22.5 78l25.5 88l25.5 83t21 62.5t14 27q9 5 23.5 4t20.5 -9q2 -3 10 -28.5t19 -64l24 -84l25 -88l22 -76t16 -47.5q2 -2 5.5 -4.5t5.5 6.5zM281 851q9 13 19.5 13t18 -6.5t9.5 -17.5t-5 -20
l-77 -96q-6 -10 -15 -11.5t-16 3t-9.5 13.5t5.5 20l36 52.5z" />
    <glyph glyph-name="Wcircumflex" unicode="&#x174;" horiz-adv-x="535" 
d="M396 91q-2 -9 -5.5 -6.5t-5.5 4.5q-6 14 -16 47.5l-22 76l-25 88l-24 84t-19 64t-10 28.5q-6 8 -20.5 9t-23.5 -4q-5 -2 -14 -27t-21 -62.5l-25.5 -83l-25.5 -88l-22.5 -78l-15.5 -52.5q-3 -12 -7 -8l-6 6l-33 545q1 20 -6.5 26t-16.5 3.5t-16.5 -10t-7.5 -13.5
q1 -13 4 -41t4 -70q0 -14 3 -55t6 -94.5t7 -112.5l7.5 -109.5l6 -84.5t3.5 -38q2 -12 12 -20.5t23 -10.5t25 4t17 23q5 15 14 45.5l20 68l22.5 78l22.5 76l19.5 63t12.5 38.5l1 3.5t2.5 5.5t4 0.5t5.5 -10.5q4 -12 12 -40l18.5 -64.5l21.5 -77.5l22 -78.5l20 -67.5t14 -45
q3 -7 14 -11.5t23.5 -5t22.5 4.5t12 17q1 5 4 29t7 60.5l9 82l10.5 92.5l11 93t9.5 83t6.5 62.5t3.5 32.5q2 28 5.5 54.5t1.5 38.5q-1 6 -9 8t-17.5 1t-18 -4t-9.5 -6q-9 -144 -17 -242.5t-14.5 -163.5l-10.5 -102.5t-6 -58.5zM273 823l13.5 -17t17.5 -24l17 -24.5t11 -18.5
t-0.5 -14.5t-11 -11.5t-16.5 -2t-17 15q-17 25 -27.5 42.5t-15.5 17.5q-3 0 -8 -7.5t-10 -17.5l-10.5 -20.5t-8.5 -17.5q-4 -7 -13.5 -9t-18.5 1t-13.5 10.5t1.5 18.5t14 23.5l16 24l14.5 21t10.5 13.5q18 20 31 16t24 -19z" />
    <glyph glyph-name="Wdieresis" unicode="&#x1e84;" horiz-adv-x="535" 
d="M396 91q-2 -9 -5.5 -6.5t-5.5 4.5q-6 14 -16 47.5l-22 76l-25 88l-24 84t-19 64t-10 28.5q-6 8 -20.5 9t-23.5 -4q-5 -2 -14 -27t-21 -62.5l-25.5 -83l-25.5 -88l-22.5 -78l-15.5 -52.5q-3 -12 -7 -8l-6 6l-33 545q1 20 -6.5 26t-16.5 3.5t-16.5 -10t-7.5 -13.5
q1 -13 4 -41t4 -70q0 -14 3 -55t6 -94.5t7 -112.5l7.5 -109.5l6 -84.5t3.5 -38q2 -12 12 -20.5t23 -10.5t25 4t17 23q5 15 14 45.5l20 68l22.5 78l22.5 76l19.5 63t12.5 38.5l1 3.5t2.5 5.5t4 0.5t5.5 -10.5q4 -12 12 -40l18.5 -64.5l21.5 -77.5l22 -78.5l20 -67.5t14 -45
q3 -7 14 -11.5t23.5 -5t22.5 4.5t12 17q1 5 4 29t7 60.5l9 82l10.5 92.5l11 93t9.5 83t6.5 62.5t3.5 32.5q2 28 5.5 54.5t1.5 38.5q-1 6 -9 8t-17.5 1t-18 -4t-9.5 -6q-9 -144 -17 -242.5t-14.5 -163.5l-10.5 -102.5t-6 -58.5zM225 735q-8 -9 -18 -7.5t-18.5 9t-12.5 18
t0 19.5q3 6 12 10t19 4t18.5 -4t9.5 -14q1 -6 -1 -16.5t-9 -18.5zM325 735q-8 -9 -18 -7.5t-18.5 9t-12.5 18t0 19.5q3 6 12 10t19 4t18.5 -4t9.5 -14q1 -6 -1 -16.5t-9 -18.5z" />
    <glyph glyph-name="Wgrave" unicode="&#x1e80;" horiz-adv-x="535" 
d="M396 91q2 21 6 58.5l10.5 102.5t14.5 163.5t17 242.5q1 3 9.5 6t18 4t17.5 -1t9 -8q2 -12 -1.5 -38.5t-5.5 -54.5q-1 -7 -3.5 -32.5t-6.5 -62.5t-9.5 -83l-11 -93l-10.5 -92.5l-9 -82t-7 -60.5t-4 -29q-2 -12 -12 -17t-22.5 -4.5t-23.5 5t-14 11.5q-5 15 -14 45l-20 67.5
l-22 78.5l-21.5 77.5l-18.5 64.5t-12 40q-3 9 -5.5 10.5t-4 -0.5t-2.5 -5.5l-1 -3.5q-4 -11 -12.5 -38.5l-19.5 -63l-22.5 -76l-22.5 -78l-20 -68t-14 -45.5q-5 -17 -17 -23t-25 -4t-23 10.5t-12 20.5q-1 4 -3.5 38l-6 84.5l-7.5 109.5t-7 112.5t-6 94.5t-3 55q-1 42 -4 70
t-4 41q0 6 7.5 13.5t16.5 10t16.5 -3.5t6.5 -26l33 -545l6 -6t7 8l15.5 52.5l22.5 78l25.5 88l25.5 83t21 62.5t14 27q9 5 23.5 4t20.5 -9q2 -3 10 -28.5t19 -64l24 -84l25 -88l22 -76t16 -47.5q2 -2 5.5 -4.5t5.5 6.5zM229 841l34 -49.5l36 -52.5q7 -11 5 -20t-9 -13.5
t-16 -3t-15 11.5l-77 96q-8 9 -5.5 20t10 17.5t18 6.5t19.5 -13z" />
    <glyph glyph-name="Yacute" unicode="&#xdd;" horiz-adv-x="368" 
d="M0 640q-4 12 1.5 22t15 15t20 3.5t15.5 -12.5q3 -8 13.5 -40.5l24 -77.5l28 -95l27 -92l20.5 -69.5l8 -27.5l8.5 27l21.5 68l28.5 90.5l30 94.5l25 80t14.5 47q5 18 15 24t18.5 1.5t14 -17t1.5 -30.5q-3 -12 -15.5 -49l-29.5 -86.5l-37 -103.5l-36 -100l-27 -77t-10 -34
q1 -4 1.5 -28.5t1.5 -53.5t1.5 -55.5t0.5 -35.5t-7.5 -15.5t-16.5 -8t-17 4t-9 21.5t-1 42.5v52.5t0.5 46.5t0.5 23.5q0 2 -10.5 33.5l-26 78.5l-34.5 102l-35.5 103.5l-28.5 84t-15 43.5zM207 851q9 13 19.5 13t18 -6.5t9.5 -17.5t-5 -20l-77 -96q-6 -10 -15 -11.5t-16 3
t-9.5 13.5t5.5 20l36 52.5z" />
    <glyph glyph-name="Ycircumflex" unicode="&#x176;" horiz-adv-x="368" 
d="M0 640q-4 12 1.5 22t15 15t20 3.5t15.5 -12.5q3 -8 13.5 -40.5l24 -77.5l28 -95l27 -92l20.5 -69.5l8 -27.5l8.5 27l21.5 68l28.5 90.5l30 94.5l25 80t14.5 47q5 18 15 24t18.5 1.5t14 -17t1.5 -30.5q-3 -12 -15.5 -49l-29.5 -86.5l-37 -103.5l-36 -100l-27 -77t-10 -34
q1 -4 1.5 -28.5t1.5 -53.5t1.5 -55.5t0.5 -35.5t-7.5 -15.5t-16.5 -8t-17 4t-9 21.5t-1 42.5v52.5t0.5 46.5t0.5 23.5q0 2 -10.5 33.5l-26 78.5l-34.5 102l-35.5 103.5l-28.5 84t-15 43.5zM203 823l13.5 -17t17.5 -24l17 -24.5t11 -18.5t-0.5 -14.5t-11 -11.5t-16.5 -2
t-17 15q-17 25 -27.5 42.5t-15.5 17.5q-3 0 -8 -7.5t-10 -17.5l-10.5 -20.5t-8.5 -17.5q-4 -7 -13.5 -9t-18.5 1t-13.5 10.5t1.5 18.5t14 23.5l16 24l14.5 21t10.5 13.5q18 20 31 16t24 -19z" />
    <glyph glyph-name="Ydieresis" unicode="&#x178;" horiz-adv-x="368" 
d="M0 640q-4 12 1.5 22t15 15t20 3.5t15.5 -12.5q3 -8 13.5 -40.5l24 -77.5l28 -95l27 -92l20.5 -69.5l8 -27.5l8.5 27l21.5 68l28.5 90.5l30 94.5l25 80t14.5 47q5 18 15 24t18.5 1.5t14 -17t1.5 -30.5q-3 -12 -15.5 -49l-29.5 -86.5l-37 -103.5l-36 -100l-27 -77t-10 -34
q1 -4 1.5 -28.5t1.5 -53.5t1.5 -55.5t0.5 -35.5t-7.5 -15.5t-16.5 -8t-17 4t-9 21.5t-1 42.5v52.5t0.5 46.5t0.5 23.5q0 2 -10.5 33.5l-26 78.5l-34.5 102l-35.5 103.5l-28.5 84t-15 43.5zM146 735q-8 -9 -18 -7.5t-18.5 9t-12.5 18t0 19.5q3 6 12 10t19 4t18.5 -4t9.5 -14
q1 -6 -1 -16.5t-9 -18.5zM246 735q-8 -9 -18 -7.5t-18.5 9t-12.5 18t0 19.5q3 6 12 10t19 4t18.5 -4t9.5 -14q1 -6 -1 -16.5t-9 -18.5z" />
    <glyph glyph-name="Ygrave" unicode="&#x1ef2;" horiz-adv-x="368" 
d="M0 640q-4 12 1.5 22t15 15t20 3.5t15.5 -12.5q3 -8 13.5 -40.5l24 -77.5l28 -95l27 -92l20.5 -69.5l8 -27.5l8.5 27l21.5 68l28.5 90.5l30 94.5l25 80t14.5 47q5 18 15 24t18.5 1.5t14 -17t1.5 -30.5q-3 -12 -15.5 -49l-29.5 -86.5l-37 -103.5l-36 -100l-27 -77t-10 -34
q1 -4 1.5 -28.5t1.5 -53.5t1.5 -55.5t0.5 -35.5t-7.5 -15.5t-16.5 -8t-17 4t-9 21.5t-1 42.5v52.5t0.5 46.5t0.5 23.5q0 2 -10.5 33.5l-26 78.5l-34.5 102l-35.5 103.5l-28.5 84t-15 43.5zM161 841l34 -49.5l36 -52.5q7 -11 5 -20t-9 -13.5t-16 -3t-15 11.5l-77 96
q-8 9 -5.5 20t10 17.5t18 6.5t19.5 -13z" />
    <glyph glyph-name="Zacute" unicode="&#x179;" horiz-adv-x="344" 
d="M42 621q-19 -2 -29 6.5t-12.5 20t2.5 20.5t17 8q8 -1 30 -1.5t51 -1t61.5 -1t61.5 -1t50 -1.5t28 -2q10 -2 13.5 -6.5t3 -11.5t-4 -15l-7.5 -17q-5 -10 -19.5 -46l-34.5 -86l-42 -107l-42.5 -109.5l-36.5 -94.5l-23 -61l-9.5 -28t-2.5 -14t7.5 -4t20.5 1q7 1 31 2
t51.5 2.5t53.5 2.5t37 2q15 1 20 -7.5t3 -19t-9 -19.5t-17 -10q-6 -1 -25 -1.5t-44 -2t-53 -2.5t-52 -1.5t-41 0t-21 1.5q-10 3 -17.5 19t-0.5 38q2 6 16 42l35 87.5l45.5 113l47 118.5l40.5 103.5t26 69.5q5 16 -1.5 17.5t-21.5 1.5q-20 1 -46 1t-52.5 -1t-50 -2.5
t-37.5 -2.5zM197 851q9 13 19.5 13t18 -6.5t9.5 -17.5t-5 -20l-77 -96q-6 -10 -15 -11.5t-16 3t-9.5 13.5t5.5 20l36 52.5z" />
    <glyph glyph-name="Zdotaccent" unicode="&#x17b;" horiz-adv-x="344" 
d="M42 621q-19 -2 -29 6.5t-12.5 20t2.5 20.5t17 8q8 -1 30 -1.5t51 -1t61.5 -1t61.5 -1t50 -1.5t28 -2q10 -2 13.5 -6.5t3 -11.5t-4 -15l-7.5 -17q-5 -10 -19.5 -46l-34.5 -86l-42 -107l-42.5 -109.5l-36.5 -94.5l-23 -61l-9.5 -28t-2.5 -14t7.5 -4t20.5 1q7 1 31 2
t51.5 2.5t53.5 2.5t37 2q15 1 20 -7.5t3 -19t-9 -19.5t-17 -10q-6 -1 -25 -1.5t-44 -2t-53 -2.5t-52 -1.5t-41 0t-21 1.5q-10 3 -17.5 19t-0.5 38q2 6 16 42l35 87.5l45.5 113l47 118.5l40.5 103.5t26 69.5q5 16 -1.5 17.5t-21.5 1.5q-20 1 -46 1t-52.5 -1t-50 -2.5
t-37.5 -2.5zM166 815q16 0 23 -10t6 -22.5t-10 -23t-25 -11.5q-14 0 -23.5 10t-11 23t8 23.5t32.5 10.5z" />
    <glyph glyph-name="abreve" unicode="&#x103;" horiz-adv-x="354" 
d="M84 615q-14 0 -21 7.5t-7 16.5t7 17.5t21 10.5q13 2 42 3.5t60 0t57 -8t34 -19.5q13 -23 21 -71.5t12 -110t5 -130t0 -130.5t-2 -111.5t-1 -72.5q0 -9 -8.5 -12.5t-18 -2.5t-17.5 5t-7 10q2 13 2.5 20t-7.5 12q-3 1 -23 -7t-48.5 -16.5t-60.5 -13t-59 4.5t-44.5 36.5
t-15.5 82.5q1 40 19.5 62.5t45 32.5t58 11t59.5 -1.5t48 -6t24 -1.5q4 1 6 26.5t2 63t-2 81.5t-5.5 84t-8.5 70t-12 38q-10 13 -30 17.5t-43 5t-45.5 -1.5t-36.5 -2zM258 176q-4 2 -20 6.5t-38 8t-46.5 4.5t-45 -3.5t-34 -16t-13.5 -32.5q0 -36 14.5 -53.5t36.5 -22.5
t47.5 -0.5t48 13t38.5 17t18 12.5q3 6 5 15.5t1 20t-3.5 19t-8.5 12.5zM70 801q2 6 9.5 9t16.5 3t16 -3t8 -9t-0.5 -12t-2.5 -12t-0.5 -11.5t6.5 -9.5q7 -5 18.5 -7t24.5 -1t25.5 4.5t20.5 9.5q10 7 10.5 18t2.5 24q1 6 9 9.5t17 3t16 -5.5t6 -14q-2 -19 -5 -34.5t-24 -33.5
q-10 -9 -31.5 -14t-44.5 -6t-44 1.5t-30 8.5q-14 9 -20 21t-7.5 23.5t0 21.5t3.5 16z" />
    <glyph glyph-name="amacron" unicode="&#x101;" horiz-adv-x="354" 
d="M84 615q-14 0 -21 7.5t-7 16.5t7 17.5t21 10.5q13 2 42 3.5t60 0t57 -8t34 -19.5q13 -23 21 -71.5t12 -110t5 -130t0 -130.5t-2 -111.5t-1 -72.5q0 -9 -8.5 -12.5t-18 -2.5t-17.5 5t-7 10q2 13 2.5 20t-7.5 12q-3 1 -23 -7t-48.5 -16.5t-60.5 -13t-59 4.5t-44.5 36.5
t-15.5 82.5q1 40 19.5 62.5t45 32.5t58 11t59.5 -1.5t48 -6t24 -1.5q4 1 6 26.5t2 63t-2 81.5t-5.5 84t-8.5 70t-12 38q-10 13 -30 17.5t-43 5t-45.5 -1.5t-36.5 -2zM258 176q-4 2 -20 6.5t-38 8t-46.5 4.5t-45 -3.5t-34 -16t-13.5 -32.5q0 -36 14.5 -53.5t36.5 -22.5
t47.5 -0.5t48 13t38.5 17t18 12.5q3 6 5 15.5t1 20t-3.5 19t-8.5 12.5zM68 770q2 4 16 7t34 4.5t43 1.5t43.5 -1t35.5 -3t20 -6q5 -5 3.5 -14t-9.5 -12q-6 -2 -23.5 -4.5t-41 -3.5t-48 -0.5t-43 3.5t-28 9.5t-2.5 18.5z" />
    <glyph glyph-name="aogonek" unicode="&#x105;" horiz-adv-x="354" 
d="M84 615q-14 0 -21 7.5t-7 16.5t7 17.5t21 10.5q13 2 42 3.5t60 0t57 -8t34 -19.5q13 -22 21 -71t12 -110.5t5 -130t0 -130.5t-2 -111.5t-1 -72.5q0 -9 -8.5 -12.5t-18 -2.5t-17.5 5t-7 10q2 13 2.5 20t-7.5 12q-3 2 -23 -6.5t-48.5 -17t-60.5 -13t-59 4.5t-44.5 36.5
t-15.5 82.5q1 40 19.5 62.5t45 32.5t58 11t59.5 -1.5t48 -6t24 -1.5q4 1 6 26.5t2 63t-2 81.5t-5.5 84t-8.5 69.5t-12 38.5q-10 13 -30 17.5t-43 5t-45.5 -1.5t-36.5 -2zM258 176q-4 2 -20 6.5t-38 8t-46.5 4.5t-45 -3.5t-34 -16t-13.5 -32.5q0 -36 14.5 -53.5t36.5 -22.5
t47.5 -0.5t48 13t38.5 17t18 12.5q3 6 5 15.5t1 20t-3.5 19t-8.5 12.5zM257 31q10 15 22 18t21 -2.5t11.5 -17t-7.5 -26.5q-17 -25 -27.5 -43.5t-8.5 -44.5q2 -6 6.5 -7.5t10 -1.5t10.5 -1t8 -5q13 -16 2.5 -25.5t-28.5 -10t-36 10t-20 35.5q-2 23 0.5 40.5t8.5 31t13 25.5z
" />
    <glyph glyph-name="aeacute" unicode="&#x1fd;" horiz-adv-x="585" 
d="M84 615q-14 0 -21 7.5t-7 16.5t7 17.5t21 10.5q13 2 41.5 3.5t59.5 -0.5t57 -8.5t35 -18.5q8 -11 8 -22t5 -13q5 2 4 10.5t11 20.5q24 24 53 25t56.5 -12.5t51 -36.5t37.5 -47q26 -44 38.5 -99.5t15.5 -109t-2.5 -96t-16.5 -60.5q-8 -13 -26 -19t-41.5 -8.5t-48.5 -2.5
h-47t-37 -1t-18 -5q-5 -7 -4.5 -21t7 -29.5t21.5 -30t41 -21.5q18 -5 38.5 -5t39 4.5t32 12.5t18.5 18q4 10 14 8t18.5 -9.5t12 -18t-4.5 -17.5q-10 -9 -27 -20.5t-40.5 -20.5t-53 -12.5t-63.5 4.5q-13 3 -24 9t-18.5 11l-11 7.5t-3.5 -0.5v-19q0 -9 -8.5 -12.5t-18 -2.5
t-17.5 5t-7 10q2 13 2.5 20t-7.5 12q-3 1 -23 -7t-48.5 -16.5t-60.5 -13t-59 4.5t-44.5 36.5t-15.5 82.5q1 40 19.5 62.5t45 32.5t58 11t59.5 -1.5t48 -6t24 -1.5q3 1 6 29v52.5t1 58.5q-1 35 -3.5 71.5t-5.5 68t-7.5 54t-10.5 29.5q-10 13 -30 17.5t-43 5t-45.5 -1.5
t-36.5 -2zM343 596q-6 -7 -11 -23t-9 -38t-6.5 -48t-4.5 -54q2 -50 2.5 -101.5t0.5 -101.5q0 -3 2 -3q4 -1 19 -1.5t35.5 0t43.5 1.5t42.5 3.5t32.5 6t14 8.5q14 92 3.5 165.5t-36.5 122.5q-15 27 -32 45.5t-34.5 27t-33.5 6.5t-28 -16zM258 176q-4 2 -20 6.5t-38 8
t-46.5 4.5t-45 -3.5t-34 -16t-13.5 -32.5q0 -36 14.5 -53.5t36.5 -22.5t47.5 -0.5t48 13t38.5 17t18 12.5q3 5 5 13q-2 11 -2.5 21.5t-1.5 22.5q-4 8 -7 10zM315 855q9 13 19.5 13t18 -6.5t9.5 -17.5t-5 -20l-77 -96q-6 -10 -15 -11.5t-16 3t-9.5 13.5t5.5 20l36 52.5z" />
    <glyph glyph-name="cacute" unicode="&#x107;" horiz-adv-x="292" 
d="M232 657q9 -5 13 -12t3 -14t-6.5 -12.5t-17.5 -7.5t-25 0t-27 3t-28 -1.5t-26 -12.5q-25 -21 -40 -61.5t-21 -90t-5 -104.5t8.5 -104.5t19.5 -89t28 -59.5q15 -19 35.5 -20t41 4t37 11t24.5 1q15 -11 21 -22t-13 -23q-10 -6 -30 -13t-45 -10t-51.5 1t-48.5 21t-38 59
t-25 97.5t-11 118.5t4 121.5t20 107t37 75.5q26 30 53 40.5t50 10.5t40 -5.5t23 -8.5zM169 851q9 13 19.5 13t18 -6.5t9.5 -17.5t-5 -20l-77 -96q-6 -10 -15 -11.5t-16 3t-9.5 13.5t5.5 20l36 52.5z" />
    <glyph glyph-name="ccaron" unicode="&#x10d;" horiz-adv-x="292" 
d="M232 657q9 -5 13 -12t3 -14t-6.5 -12.5t-17.5 -7.5t-25 0t-27 3t-28 -1.5t-26 -12.5q-25 -21 -40 -61.5t-21 -90t-5 -104.5t8.5 -104.5t19.5 -89t28 -59.5q15 -19 35.5 -20t41 4t37 11t24.5 1q15 -11 21 -22t-13 -23q-10 -6 -30 -13t-45 -10t-51.5 1t-48.5 21t-38 59
t-25 97.5t-11 118.5t4 121.5t20 107t37 75.5q26 30 53 40.5t50 10.5t40 -5.5t23 -8.5zM188 732q-11 -15 -24 -19t-31 16q-4 4 -10.5 13.5l-14.5 21l-16 24t-14 23.5t-1.5 18.5t13.5 10.5t18.5 1t13.5 -9q3 -7 8.5 -17.5l10.5 -20.5t10 -17.5t8 -7.5q5 0 15.5 17.5t27.5 42.5
q8 13 17 15t16.5 -2t11 -11.5t0.5 -14.5t-11 -18.5l-17 -24.5t-17.5 -24z" />
    <glyph glyph-name="ccedilla" unicode="&#xe7;" horiz-adv-x="292" 
d="M131 54q0 4 8 6t16.5 2t15 -2.5t5.5 -8.5l-5 -14.5l-6 -16.5t-3.5 -14t2.5 -8t14 -4.5t23.5 -6.5t23 -11.5t13.5 -19.5q3 -18 -9.5 -39.5t-30.5 -29.5q-23 -11 -48 -4.5t-43 16.5q-9 5 -9 12t5.5 13t12.5 10t11 3q14 -5 28 -8t21 -3q3 0 7.5 3t7.5 6t3 6t-5 5
q-17 6 -35.5 7.5t-29.5 15.5q-5 6 -5 19t2.5 26.5t6 24.5t3.5 15zM232 657q9 -5 13 -12t3 -14t-6.5 -12.5t-17.5 -7.5t-25 0t-27 3t-28 -1.5t-26 -12.5q-25 -21 -40 -61.5t-21 -90t-5 -104.5t8.5 -104.5t19.5 -89t28 -59.5q15 -19 35.5 -20t41 4t37 11t24.5 1q15 -11 21 -22
t-13 -23q-10 -6 -30 -13t-45 -10t-51.5 1t-48.5 21t-38 59t-25 97.5t-11 118.5t4 121.5t20 107t37 75.5q26 30 53 40.5t50 10.5t40 -5.5t23 -8.5z" />
    <glyph glyph-name="ccircumflex" unicode="&#x109;" horiz-adv-x="292" 
d="M232 657q9 -5 13 -12t3 -14t-6.5 -12.5t-17.5 -7.5t-25 0t-27 3t-28 -1.5t-26 -12.5q-25 -21 -40 -61.5t-21 -90t-5 -104.5t8.5 -104.5t19.5 -89t28 -59.5q15 -19 35.5 -20t41 4t37 11t24.5 1q15 -11 21 -22t-13 -23q-10 -6 -30 -13t-45 -10t-51.5 1t-48.5 21t-38 59
t-25 97.5t-11 118.5t4 121.5t20 107t37 75.5q26 30 53 40.5t50 10.5t40 -5.5t23 -8.5zM177 823l13.5 -17t17.5 -24l17 -24.5t11 -18.5t-0.5 -14.5t-11 -11.5t-16.5 -2t-17 15q-17 25 -27.5 42.5t-15.5 17.5q-3 0 -8 -7.5t-10 -17.5l-10.5 -20.5t-8.5 -17.5q-4 -7 -13.5 -9
t-18.5 1t-13.5 10.5t1.5 18.5t14 23.5l16 24l14.5 21t10.5 13.5q18 20 31 16t24 -19z" />
    <glyph glyph-name="cdotaccent" unicode="&#x10b;" horiz-adv-x="292" 
d="M232 657q9 -5 13 -12t3 -14t-6.5 -12.5t-17.5 -7.5t-25 0t-27 3t-28 -1.5t-26 -12.5q-25 -21 -40 -61.5t-21 -90t-5 -104.5t8.5 -104.5t19.5 -89t28 -59.5q15 -19 35.5 -20t41 4t37 11t24.5 1q15 -11 21 -22t-13 -23q-10 -6 -30 -13t-45 -10t-51.5 1t-48.5 21t-38 59
t-25 97.5t-11 118.5t4 121.5t20 107t37 75.5q26 30 53 40.5t50 10.5t40 -5.5t23 -8.5zM157 815q16 0 23 -10t6 -22.5t-10 -23t-25 -11.5q-14 0 -23.5 10t-11 23t8 23.5t32.5 10.5z" />
    <glyph glyph-name="dcaron" unicode="&#x10f;" horiz-adv-x="450" 
d="M292 34q1 -9 -3 -14t-10.5 -7.5t-14.5 -4t-15 -2.5q-5 -1 -25.5 -1.5t-48.5 5t-59.5 19.5t-57 40.5t-41.5 69t-14 105.5q3 79 22 128.5t47 77t62 38.5t67 14q17 2 27 3.5t15 7.5q3 3 4 25.5t2 49.5t2 51t4 30q5 13 18 15.5t18 -8.5q3 -6 4.5 -25t2 -57t-0.5 -97.5
t-3 -144.5q-2 -54 -2.5 -106.5t-0.5 -96.5v-75t1 -40zM251 82q0 3 -0.5 29.5t-1 65t-1 82.5t-1.5 82t-1.5 64t-0.5 28l-2.5 17t-17.5 9q-5 -1 -20.5 -2.5t-35 -7.5t-41.5 -19t-40 -35.5t-30.5 -56.5t-12.5 -84q-1 -50 10.5 -83t30 -53.5t40 -31t42 -15t36.5 -4.5h23
q20 0 22 3.5t2 11.5zM383 442q-3 -6 -10 -7t-14 2t-12.5 8.5t-4.5 13.5q1 7 8 28t14 45.5t11 47t-1 34.5q-5 10 -10.5 16t-11 9.5t-10.5 6t-9 6.5q-6 6 -5 17.5t9 19t23 6t38 -22.5q15 -14 20.5 -35t4.5 -45.5t-6.5 -49.5t-12.5 -45.5t-13 -35.5t-8 -19z" />
    <glyph glyph-name="dcroat" unicode="&#x111;" horiz-adv-x="326" 
d="M292 34q1 -9 -3 -14t-10.5 -7.5t-14.5 -4t-15 -2.5q-5 -1 -25.5 -1.5t-48.5 5t-59.5 19.5t-57 40.5t-41.5 69t-14 105.5q3 79 22 128.5t47 77t62 38.5t67 14q17 2 27 3.5t15 7.5q3 3 4 25.5t2 49.5t2 51t4 30q5 13 18 15.5t18 -8.5q3 -6 4.5 -25t2 -57t-0.5 -97.5
t-3 -144.5q-2 -54 -2.5 -106.5t-0.5 -96.5v-75t1 -40zM251 82q0 3 -0.5 29.5t-1 65t-1 82.5t-1.5 82t-1.5 64t-0.5 28l-2.5 17t-17.5 9q-5 -1 -20.5 -2.5t-35 -7.5t-41.5 -19t-40 -35.5t-30.5 -56.5t-12.5 -84q-1 -50 10.5 -83t30 -53.5t40 -31t42 -15t36.5 -4.5h23
q20 0 22 3.5t2 11.5zM107 572q2 4 20 9.5t44 11t55.5 10t55 6.5t43 1t19.5 -7q13 -37 -5 -44q-3 -1 -20.5 -3t-42.5 -4t-53 -3.5t-52 -2.5t-40 -1t-16 2q0 3 -2.5 5t-5 4.5t-3.5 6t3 9.5z" />
    <glyph glyph-name="eacute" unicode="&#xe9;" horiz-adv-x="339" 
d="M5 219v64.5t1 84.5t3 91.5t6.5 87t11.5 70.5t18 42q23 25 51.5 26.5t56 -12.5t52 -37.5t38.5 -47.5q26 -44 38.5 -99.5t15.5 -109t-2.5 -96t-16.5 -60.5q-8 -13 -26.5 -19t-41.5 -8.5t-48.5 -2.5h-47.5t-37 -0.5t-18 -5.5q-5 -7 -4.5 -24t7.5 -36.5t22 -37t41 -24.5
q18 -5 38.5 -5t39 4.5t32 12.5t18.5 18q4 10 14 8t18.5 -9.5t12 -18t-4.5 -17.5q-10 -9 -27 -21t-40.5 -21.5t-53 -13t-63.5 6.5q-36 10 -56.5 30t-31 47t-13.5 61t-3 72zM83 616q-10 -11 -16.5 -42.5t-10.5 -72t-6 -85t-2 -82t2.5 -62t6.5 -25.5t19 -1.5t35.5 0t43.5 1.5
t42.5 3.5t32.5 6t14 8.5q14 92 3.5 165.5t-36.5 122.5q-15 27 -32 45.5t-34.5 27t-33.5 6.5t-28 -16zM144 851q9 13 19.5 13t18 -6.5t9.5 -17.5t-5 -20l-77 -96q-6 -10 -15 -11.5t-16 3t-9.5 13.5t5.5 20l36 52.5z" />
    <glyph glyph-name="ebreve" unicode="&#x115;" horiz-adv-x="336" 
d="M5 219v64.5t1 84.5t3 91.5t6.5 87t11.5 70.5t18 42q23 25 51.5 26.5t56 -12.5t52 -37.5t38.5 -47.5q26 -44 38.5 -99.5t15.5 -109t-2.5 -96t-16.5 -60.5q-8 -13 -26.5 -19t-41.5 -8.5t-48.5 -2.5h-47.5t-37 -0.5t-18 -5.5q-5 -7 -4.5 -24t7.5 -36.5t22 -37t41 -24.5
q18 -5 38.5 -5t39 4.5t32 12.5t18.5 18q4 10 14 8t18.5 -9.5t12 -18t-4.5 -17.5q-10 -9 -27 -21t-40.5 -21.5t-53 -13t-63.5 6.5q-36 10 -56.5 30t-31 47t-13.5 61t-3 72zM83 616q-10 -11 -16.5 -42.5t-10.5 -72t-6 -85t-2 -82t2.5 -62t6.5 -25.5t19 -1.5t35.5 0t43.5 1.5
t42.5 3.5t32.5 6t14 8.5q14 92 3.5 165.5t-36.5 122.5q-15 27 -32 45.5t-34.5 27t-33.5 6.5t-28 -16zM32 817q2 6 9.5 9t16.5 3t16 -3t8 -9t-0.5 -12t-2.5 -12t-0.5 -11.5t6.5 -9.5q7 -5 18.5 -7t24.5 -1t25.5 4.5t20.5 9.5q10 7 10.5 18t2.5 24q1 6 9 9.5t17 3t16 -5.5
t6 -14q-2 -19 -5 -34.5t-24 -33.5q-10 -9 -31.5 -14t-44.5 -6t-44 1.5t-30 8.5q-14 9 -20 21t-7.5 23.5t0 21.5t3.5 16z" />
    <glyph glyph-name="ecaron" unicode="&#x11b;" horiz-adv-x="336" 
d="M5 219v64.5t1 84.5t3 91.5t6.5 87t11.5 70.5t18 42q23 25 51.5 26.5t56 -12.5t52 -37.5t38.5 -47.5q26 -44 38.5 -99.5t15.5 -109t-2.5 -96t-16.5 -60.5q-8 -13 -26.5 -19t-41.5 -8.5t-48.5 -2.5h-47.5t-37 -0.5t-18 -5.5q-5 -7 -4.5 -24t7.5 -36.5t22 -37t41 -24.5
q18 -5 38.5 -5t39 4.5t32 12.5t18.5 18q4 10 14 8t18.5 -9.5t12 -18t-4.5 -17.5q-10 -9 -27 -21t-40.5 -21.5t-53 -13t-63.5 6.5q-36 10 -56.5 30t-31 47t-13.5 61t-3 72zM83 616q-10 -11 -16.5 -42.5t-10.5 -72t-6 -85t-2 -82t2.5 -62t6.5 -25.5t19 -1.5t35.5 0t43.5 1.5
t42.5 3.5t32.5 6t14 8.5q14 92 3.5 165.5t-36.5 122.5q-15 27 -32 45.5t-34.5 27t-33.5 6.5t-28 -16zM151 732q-11 -15 -24 -19t-31 16q-4 4 -10.5 13.5l-14.5 21l-16 24t-14 23.5t-1.5 18.5t13.5 10.5t18.5 1t13.5 -9q3 -7 8.5 -17.5l10.5 -20.5t10 -17.5t8 -7.5
q5 0 15.5 17.5t27.5 42.5q8 13 17 15t16.5 -2t11 -11.5t0.5 -14.5t-11 -18.5l-17 -24.5t-17.5 -24z" />
    <glyph glyph-name="ecircumflex" unicode="&#xea;" horiz-adv-x="344" 
d="M5 219v64.5t1 84.5t3 91.5t6.5 87t11.5 70.5t18 42q23 25 51.5 26.5t56 -12.5t52 -37.5t38.5 -47.5q26 -44 38.5 -99.5t15.5 -109t-2.5 -96t-16.5 -60.5q-8 -13 -26.5 -19t-41.5 -8.5t-48.5 -2.5h-47.5t-37 -0.5t-18 -5.5q-5 -7 -4.5 -24t7.5 -36.5t22 -37t41 -24.5
q18 -5 38.5 -5t39 4.5t32 12.5t18.5 18q4 10 14 8t18.5 -9.5t12 -18t-4.5 -17.5q-10 -9 -27 -21t-40.5 -21.5t-53 -13t-63.5 6.5q-36 10 -56.5 30t-31 47t-13.5 61t-3 72zM83 616q-10 -11 -16.5 -42.5t-10.5 -72t-6 -85t-2 -82t2.5 -62t6.5 -25.5t19 -1.5t35.5 0t43.5 1.5
t42.5 3.5t32.5 6t14 8.5q14 92 3.5 165.5t-36.5 122.5q-15 27 -32 45.5t-34.5 27t-33.5 6.5t-28 -16zM151 823l13.5 -17t17.5 -24l17 -24.5t11 -18.5t-0.5 -14.5t-11 -11.5t-16.5 -2t-17 15q-17 25 -27.5 42.5t-15.5 17.5q-3 0 -8 -7.5t-10 -17.5l-10.5 -20.5t-8.5 -17.5
q-4 -7 -13.5 -9t-18.5 1t-13.5 10.5t1.5 18.5t14 23.5l16 24l14.5 21t10.5 13.5q18 20 31 16t24 -19z" />
    <glyph glyph-name="edieresis" unicode="&#xeb;" horiz-adv-x="339" 
d="M5 219v64.5t1 84.5t3 91.5t6.5 87t11.5 70.5t18 42q23 25 51.5 26.5t56 -12.5t52 -37.5t38.5 -47.5q26 -44 38.5 -99.5t15.5 -109t-2.5 -96t-16.5 -60.5q-8 -13 -26.5 -19t-41.5 -8.5t-48.5 -2.5h-47.5t-37 -0.5t-18 -5.5q-5 -7 -4.5 -24t7.5 -36.5t22 -37t41 -24.5
q18 -5 38.5 -5t39 4.5t32 12.5t18.5 18q4 10 14 8t18.5 -9.5t12 -18t-4.5 -17.5q-10 -9 -27 -21t-40.5 -21.5t-53 -13t-63.5 6.5q-36 10 -56.5 30t-31 47t-13.5 61t-3 72zM83 616q-10 -11 -16.5 -42.5t-10.5 -72t-6 -85t-2 -82t2.5 -62t6.5 -25.5t19 -1.5t35.5 0t43.5 1.5
t42.5 3.5t32.5 6t14 8.5q14 92 3.5 165.5t-36.5 122.5q-15 27 -32 45.5t-34.5 27t-33.5 6.5t-28 -16zM95 735q-8 -9 -18 -7.5t-18.5 9t-12.5 18t0 19.5q3 6 12 10t19 4t18.5 -4t9.5 -14q1 -6 -1 -16.5t-9 -18.5zM195 735q-8 -9 -18 -7.5t-18.5 9t-12.5 18t0 19.5q3 6 12 10
t19 4t18.5 -4t9.5 -14q1 -6 -1 -16.5t-9 -18.5z" />
    <glyph glyph-name="edotaccent" unicode="&#x117;" horiz-adv-x="344" 
d="M5 219v64.5t1 84.5t3 91.5t6.5 87t11.5 70.5t18 42q23 25 51.5 26.5t56 -12.5t52 -37.5t38.5 -47.5q26 -44 38.5 -99.5t15.5 -109t-2.5 -96t-16.5 -60.5q-8 -13 -26.5 -19t-41.5 -8.5t-48.5 -2.5h-47.5t-37 -0.5t-18 -5.5q-5 -7 -4.5 -24t7.5 -36.5t22 -37t41 -24.5
q18 -5 38.5 -5t39 4.5t32 12.5t18.5 18q4 10 14 8t18.5 -9.5t12 -18t-4.5 -17.5q-10 -9 -27 -21t-40.5 -21.5t-53 -13t-63.5 6.5q-36 10 -56.5 30t-31 47t-13.5 61t-3 72zM83 616q-10 -11 -16.5 -42.5t-10.5 -72t-6 -85t-2 -82t2.5 -62t6.5 -25.5t19 -1.5t35.5 0t43.5 1.5
t42.5 3.5t32.5 6t14 8.5q14 92 3.5 165.5t-36.5 122.5q-15 27 -32 45.5t-34.5 27t-33.5 6.5t-28 -16zM135 815q16 0 23 -10t6 -22.5t-10 -23t-25 -11.5q-14 0 -23.5 10t-11 23t8 23.5t32.5 10.5z" />
    <glyph glyph-name="egrave" unicode="&#xe8;" horiz-adv-x="341" 
d="M5 219v64.5t1 84.5t3 91.5t6.5 87t11.5 70.5t18 42q23 25 51.5 26.5t56 -12.5t52 -37.5t38.5 -47.5q26 -44 38.5 -99.5t15.5 -109t-2.5 -96t-16.5 -60.5q-8 -13 -26.5 -19t-41.5 -8.5t-48.5 -2.5h-47.5t-37 -0.5t-18 -5.5q-5 -7 -4.5 -24t7.5 -36.5t22 -37t41 -24.5
q18 -5 38.5 -5t39 4.5t32 12.5t18.5 18q4 10 14 8t18.5 -9.5t12 -18t-4.5 -17.5q-10 -9 -27 -21t-40.5 -21.5t-53 -13t-63.5 6.5q-36 10 -56.5 30t-31 47t-13.5 61t-3 72zM83 616q-10 -11 -16.5 -42.5t-10.5 -72t-6 -85t-2 -82t2.5 -62t6.5 -25.5t19 -1.5t35.5 0t43.5 1.5
t42.5 3.5t32.5 6t14 8.5q14 92 3.5 165.5t-36.5 122.5q-15 27 -32 45.5t-34.5 27t-33.5 6.5t-28 -16zM111 841l34 -49.5l36 -52.5q7 -11 5 -20t-9 -13.5t-16 -3t-15 11.5l-77 96q-8 9 -5.5 20t10 17.5t18 6.5t19.5 -13z" />
    <glyph glyph-name="emacron" unicode="&#x113;" horiz-adv-x="339" 
d="M5 219v64.5t1 84.5t3 91.5t6.5 87t11.5 70.5t18 42q23 25 51.5 26.5t56 -12.5t52 -37.5t38.5 -47.5q26 -44 38.5 -99.5t15.5 -109t-2.5 -96t-16.5 -60.5q-8 -13 -26.5 -19t-41.5 -8.5t-48.5 -2.5h-47.5t-37 -0.5t-18 -5.5q-5 -7 -4.5 -24t7.5 -36.5t22 -37t41 -24.5
q18 -5 38.5 -5t39 4.5t32 12.5t18.5 18q4 10 14 8t18.5 -9.5t12 -18t-4.5 -17.5q-10 -9 -27 -21t-40.5 -21.5t-53 -13t-63.5 6.5q-36 10 -56.5 30t-31 47t-13.5 61t-3 72zM83 616q-10 -11 -16.5 -42.5t-10.5 -72t-6 -85t-2 -82t2.5 -62t6.5 -25.5t19 -1.5t35.5 0t43.5 1.5
t42.5 3.5t32.5 6t14 8.5q14 92 3.5 165.5t-36.5 122.5q-15 27 -32 45.5t-34.5 27t-33.5 6.5t-28 -16zM29 766q2 4 16 7t34 4.5t43 1.5t43.5 -1t36 -3t19.5 -6q5 -5 3.5 -14t-9.5 -12q-6 -2 -23.5 -4.5t-41 -3.5t-48 -0.5t-43 3.5t-28 9.5t-2.5 18.5z" />
    <glyph glyph-name="eogonek" unicode="&#x119;" horiz-adv-x="333" 
d="M240 80q10 15 22 18t21 -2.5t11.5 -17t-7.5 -26.5q-17 -25 -27.5 -43.5t-8.5 -44.5q2 -6 6.5 -7.5t10 -1.5t10.5 -1t8 -5q13 -16 2.5 -25.5t-28.5 -10t-36 10t-20 35.5q-2 23 0.5 40.5t8.5 31t13 25.5zM5 219v64.5t1 84.5t3 91.5t6.5 87t11.5 70.5t18 42q23 25 51.5 26.5
t56 -12.5t52 -37.5t38.5 -47.5q26 -44 38.5 -99.5t15.5 -109t-2.5 -96t-16.5 -60.5q-8 -13 -26.5 -19t-41.5 -8.5t-48.5 -2.5h-47.5t-37 -1t-18 -5q-5 -7 -4.5 -24t7.5 -36.5t22 -37t41 -24.5q18 -5 38.5 -5t39 4.5t32 12.5t18.5 18q4 10 14 8t18.5 -9.5t12 -18t-4.5 -17.5
q-10 -9 -27 -21t-40.5 -21.5t-53 -13t-63.5 6.5q-36 10 -56.5 30t-31 47t-13.5 61t-3 72zM83 616q-9 -11 -16 -42.5t-11 -72t-6 -85t-2 -82t2.5 -62t6.5 -25.5t19 -1.5t35.5 0t43.5 1.5t42.5 3.5t32.5 6t14 8.5q14 92 3.5 165.5t-36.5 122.5q-15 27 -32 45.5t-34.5 27
t-33.5 6.5t-28 -16z" />
    <glyph glyph-name="Iacute" unicode="&#xcd;" 
d="M9 26q1 2 15.5 6t30.5 8t28 7.5t10 6.5q0 32 1.5 85t4 114t4.5 123.5t2.5 114t-1 84.5t-5.5 35q-8 3 -20.5 2t-25.5 -2.5t-24 -2.5t-17 4q-11 9 -9 25.5t9 22.5q2 2 18 4t39 4t49 3.5t49 2t39.5 0t19.5 -2.5q9 -7 14 -21t-8 -23q-7 -5 -17 -5.5t-21.5 -1t-21.5 -2.5
t-17 -9q-4 -4 -6 -37t-2 -83t0.5 -110.5l1 -120t1 -112t-0.5 -85.5q0 -3 12.5 -2.5t28.5 2t29.5 1.5t14.5 -4q5 -18 4 -29.5t-9 -14.5q-3 -1 -19 -2.5t-39 -3t-49 -3t-49 -2.5t-38.5 -1.5t-17.5 0.5q-2 0 -4.5 2t-4.5 5t-2.5 7.5t3.5 10.5zM148 851q9 13 19.5 13t18 -6.5
t9.5 -17.5t-5 -20l-77 -96q-6 -10 -15 -11.5t-16 3t-9.5 13.5t5.5 20l36 52.5z" />
    <glyph glyph-name="Ibreve" unicode="&#x12c;" 
d="M9 26q-4 -6 -3.5 -10.5t2.5 -7.5t4.5 -5t4.5 -2q2 -1 17.5 -0.5t38.5 1.5t49 2.5t49 3t39 3t19 2.5q8 3 9 14.5t-4 29.5q-1 4 -14.5 4t-29.5 -1.5t-28.5 -2t-12.5 2.5q1 33 0.5 85.5t-1 112l-1 120t-0.5 110.5t2 83t6 37q7 7 17 9t21.5 2.5t21.5 1t17 5.5q13 9 8 23
t-14 21q-3 2 -19.5 2.5t-39.5 0t-49 -2t-49 -3.5t-39 -4t-18 -4q-7 -6 -9 -22.5t9 -25.5q6 -5 17 -4t24 2.5t25.5 2.5t20.5 -2q4 -2 5.5 -35t1 -84.5t-2.5 -114t-4.5 -123.5t-4 -114t-1.5 -85q2 -3 -10 -6.5t-28 -7.5t-30.5 -8t-15.5 -6zM25 817q2 6 9.5 9t16.5 3t16 -3
t8 -9t-0.5 -12t-2.5 -12t-0.5 -11.5t6.5 -9.5q7 -5 18.5 -7t24.5 -1t25.5 4.5t20.5 9.5q10 7 10.5 18t2.5 24q1 6 9 9.5t17 3t16 -5.5t6 -14q-2 -19 -5 -34.5t-24 -33.5q-10 -9 -31.5 -14t-44.5 -6t-44 1.5t-30 8.5q-14 9 -20 21t-7.5 23.5t0 21.5t3.5 16z" />
    <glyph glyph-name="Icircumflex" unicode="&#xce;" 
d="M9 26q-4 -6 -3.5 -10.5t2.5 -7.5t4.5 -5t4.5 -2q2 -1 17.5 -0.5t38.5 1.5t49 2.5t49 3t39 3t19 2.5q8 3 9 14.5t-4 29.5q-1 4 -14.5 4t-29.5 -1.5t-28.5 -2t-12.5 2.5q1 33 0.5 85.5t-1 112l-1 120t-0.5 110.5t2 83t6 37q7 7 17 9t21.5 2.5t21.5 1t17 5.5q13 9 8 23
t-14 21q-3 2 -19.5 2.5t-39.5 0t-49 -2t-49 -3.5t-39 -4t-18 -4q-7 -6 -9 -22.5t9 -25.5q6 -5 17 -4t24 2.5t25.5 2.5t20.5 -2q4 -2 5.5 -35t1 -84.5t-2.5 -114t-4.5 -123.5t-4 -114t-1.5 -85q2 -3 -10 -6.5t-28 -7.5t-30.5 -8t-15.5 -6zM148 823l13.5 -17t17.5 -24
l17 -24.5t11 -18.5t-0.5 -14.5t-11 -11.5t-16.5 -2t-17 15q-17 25 -27.5 42.5t-15.5 17.5q-3 0 -8 -7.5t-10 -17.5l-10.5 -20.5t-8.5 -17.5q-4 -7 -13.5 -9t-18.5 1t-13.5 10.5t1.5 18.5t14 23.5l16 24l14.5 21t10.5 13.5q18 20 31 16t24 -19z" />
    <glyph glyph-name="Idieresis" unicode="&#xcf;" 
d="M9 26q-4 -6 -3.5 -10.5t2.5 -7.5t4.5 -5t4.5 -2q2 -1 17.5 -0.5t38.5 1.5t49 2.5t49 3t39 3t19 2.5q8 3 9 14.5t-4 29.5q-1 4 -14.5 4t-29.5 -1.5t-28.5 -2t-12.5 2.5q1 33 0.5 85.5t-1 112l-1 120t-0.5 110.5t2 83t6 37q7 7 17 9t21.5 2.5t21.5 1t17 5.5q13 9 8 23
t-14 21q-3 2 -19.5 2.5t-39.5 0t-49 -2t-49 -3.5t-39 -4t-18 -4q-7 -6 -9 -22.5t9 -25.5q6 -5 17 -4t24 2.5t25.5 2.5t20.5 -2q4 -2 5.5 -35t1 -84.5t-2.5 -114t-4.5 -123.5t-4 -114t-1.5 -85q2 -3 -10 -6.5t-28 -7.5t-30.5 -8t-15.5 -6zM96 735q-8 -9 -18 -7.5t-18.5 9
t-12.5 18t0 19.5q3 6 12 10t19 4t18.5 -4t9.5 -14q1 -6 -1 -16.5t-9 -18.5zM196 735q-8 -9 -18 -7.5t-18.5 9t-12.5 18t0 19.5q3 6 12 10t19 4t18.5 -4t9.5 -14q1 -6 -1 -16.5t-9 -18.5z" />
    <glyph glyph-name="Idotaccent" unicode="&#x130;" 
d="M9 26q1 2 15.5 6t30.5 8t28 7.5t10 6.5q0 32 1.5 85t4 114t4.5 123.5t2.5 114t-1 84.5t-5.5 35q-8 3 -20.5 2t-25.5 -2.5t-24 -2.5t-17 4q-11 9 -9 25.5t9 22.5q2 2 18 4t39 4t49 3.5t49 2t39.5 0t19.5 -2.5q9 -7 14 -21t-8 -23q-7 -5 -17 -5.5t-21.5 -1t-21.5 -2.5
t-17 -9q-4 -4 -6 -37t-2 -83t0.5 -110.5l1 -120t1 -112t-0.5 -85.5q0 -3 12.5 -2.5t28.5 2t29.5 1.5t14.5 -4q5 -18 4 -29.5t-9 -14.5q-3 -1 -19 -2.5t-39 -3t-49 -3t-49 -2.5t-38.5 -1.5t-17.5 0.5q-2 0 -4.5 2t-4.5 5t-2.5 7.5t3.5 10.5zM132 815q16 0 23 -10t6 -22.5
t-10 -23t-25 -11.5q-14 0 -23.5 10t-11 23t8 23.5t32.5 10.5z" />
    <glyph glyph-name="Igrave" unicode="&#xcc;" 
d="M9 26q1 2 15.5 6t30.5 8t28 7.5t10 6.5q0 32 1.5 85t4 114t4.5 123.5t2.5 114t-1 84.5t-5.5 35q-8 3 -20.5 2t-25.5 -2.5t-24 -2.5t-17 4q-11 9 -9 25.5t9 22.5q2 2 18 4t39 4t49 3.5t49 2t39.5 0t19.5 -2.5q9 -7 14 -21t-8 -23q-7 -5 -17 -5.5t-21.5 -1t-21.5 -2.5
t-17 -9q-4 -4 -6 -37t-2 -83t0.5 -110.5l1 -120t1 -112t-0.5 -85.5q0 -3 12.5 -2.5t28.5 2t29.5 1.5t14.5 -4q5 -18 4 -29.5t-9 -14.5q-3 -1 -19 -2.5t-39 -3t-49 -3t-49 -2.5t-38.5 -1.5t-17.5 0.5q-2 0 -4.5 2t-4.5 5t-2.5 7.5t3.5 10.5zM108 841l34 -49.5l36 -52.5
q7 -11 5 -20t-9 -13.5t-16 -3t-15 11.5l-77 96q-8 9 -5.5 20t10 17.5t18 6.5t19.5 -13z" />
    <glyph glyph-name="Imacron" unicode="&#x12a;" 
d="M9 26q-4 -6 -3.5 -10.5t2.5 -7.5t4.5 -5t4.5 -2q2 -1 17.5 -0.5t38.5 1.5t49 2.5t49 3t39 3t19 2.5q8 3 9 14.5t-4 29.5q-1 4 -14.5 4t-29.5 -1.5t-28.5 -2t-12.5 2.5q1 33 0.5 85.5t-1 112l-1 120t-0.5 110.5t2 83t6 37q7 7 17 9t21.5 2.5t21.5 1t17 5.5q13 9 8 23
t-14 21q-3 2 -19.5 2.5t-39.5 0t-49 -2t-49 -3.5t-39 -4t-18 -4q-7 -6 -9 -22.5t9 -25.5q6 -5 17 -4t24 2.5t25.5 2.5t20.5 -2q4 -2 5.5 -35t1 -84.5t-2.5 -114t-4.5 -123.5t-4 -114t-1.5 -85q2 -3 -10 -6.5t-28 -7.5t-30.5 -8t-15.5 -6zM27 766q2 4 16 7t34 4.5t43 1.5
t43.5 -1t35.5 -3t20 -6q5 -5 3.5 -14t-9.5 -12q-6 -2 -23.5 -4.5t-41 -3.5t-48 -0.5t-43 3.5t-28 9.5t-2.5 18.5z" />
    <glyph glyph-name="Itilde" unicode="&#x128;" 
d="M9 26q-4 -6 -3.5 -10.5t2.5 -7.5t4.5 -5t4.5 -2q2 -1 17.5 -0.5t38.5 1.5t49 2.5t49 3t39 3t19 2.5q8 3 9 14.5t-4 29.5q-1 4 -14.5 4t-29.5 -1.5t-28.5 -2t-12.5 2.5q1 33 0.5 85.5t-1 112l-1 120t-0.5 110.5t2 83t6 37q7 7 17 9t21.5 2.5t21.5 1t17 5.5q13 9 8 23
t-14 21q-3 2 -19.5 2.5t-39.5 0t-49 -2t-49 -3.5t-39 -4t-18 -4q-7 -6 -9 -22.5t9 -25.5q6 -5 17 -4t24 2.5t25.5 2.5t20.5 -2q4 -2 5.5 -35t1 -84.5t-2.5 -114t-4.5 -123.5t-4 -114t-1.5 -85q2 -3 -10 -6.5t-28 -7.5t-30.5 -8t-15.5 -6zM96 821q9 0 18 -8t16.5 -18.5
l13 -18.5t8.5 -8q11 2 20 17.5t20 28.5q6 6 13 6t13 -4t8.5 -11t-0.5 -14t-12 -20.5t-19.5 -26.5t-21.5 -22.5t-19 -9.5q-12 0 -20.5 9t-15.5 19t-12 18t-10 7q-7 -2 -12.5 -8t-10 -13.5l-9 -15.5t-8.5 -12q-4 -5 -12.5 -3.5t-15.5 6.5t-9.5 13t4.5 17t15 21t17 23.5
t19.5 19.5t21.5 8z" />
    <glyph glyph-name="IJ" unicode="&#x132;" horiz-adv-x="530" 
d="M9 26q1 2 15.5 6t30.5 8t28 7.5t10 6.5q0 32 1.5 85t4 114t4.5 123.5t2.5 114t-1 84.5t-5.5 35q-8 3 -20.5 2t-25.5 -2.5t-24 -2.5t-17 4q-11 9 -9 25.5t9 22.5q2 2 18 4t39 4t49 3.5t49 2t39.5 0t19.5 -2.5q9 -7 14 -21t-8 -23q-7 -5 -17 -5.5t-21.5 -1t-21.5 -2.5
t-17 -9q-4 -4 -6 -37t-2 -83t0.5 -110.5l1 -120t1 -112t-0.5 -85.5q0 -3 12.5 -2.5t28.5 2t29.5 1.5t14.5 -4q5 -18 4 -29.5t-9 -14.5q-3 -1 -19 -2.5t-39 -3t-49 -3t-49 -2.5t-38.5 -1.5t-17.5 0.5q-2 0 -4.5 2t-4.5 5t-2.5 7.5t3.5 10.5zM442 654q1 7 10 12t18.5 6
t17.5 -3.5t7 -14.5q-1 -7 -1 -41.5t0.5 -84t0.5 -107t-0.5 -109.5t-1 -92.5t-2.5 -55.5q-3 -23 -9 -51t-20 -52t-39.5 -41.5t-67.5 -19.5q-33 -2 -56 9.5t-37.5 30.5t-22.5 43t-11.5 46.5t-3.5 41.5t1 28q1 14 8.5 18t16.5 2t16 -9t7 -14q0 -8 0.5 -32t6.5 -50.5t20 -47.5
t42 -22q25 -1 42.5 8t29 25.5t17.5 38.5t8 48q8 99 9 185t-1 151t-4.5 105.5t-0.5 48.5z" />
    <glyph glyph-name="I" unicode="I" horiz-adv-x="113" 
d="M14 661q2 3 9 5.5t15 2.5t16 -2t13 -6q4 -5 5 -14.5t0.5 -23t-2.5 -29.5t-3 -34q-1 -12 -2 -56t-2.5 -104t-3 -127.5t-3 -124.5t-3.5 -96t-3 -43q-5 -11 -18 -14.5t-18 14.5q-2 9 -2.5 22.5t0 28t1.5 27t1 20.5v29.5t-0.5 64.5t-1 88l-1 99.5t-0.5 98.5t0.5 86.5t1 62
t1.5 25.5z" />
    <glyph glyph-name="iacute" unicode="&#xed;" 
d="M9 26q1 2 15.5 6t30.5 8t28 7.5t10 6.5q0 32 1.5 85t4 114t4.5 123.5t2.5 114t-1 84.5t-5.5 35q-8 3 -20.5 2t-25.5 -2.5t-24 -2.5t-17 4q-11 9 -9 25.5t9 22.5q2 2 18 4t39 4t49 3.5t49 2t39.5 0t19.5 -2.5q9 -7 14 -21t-8 -23q-7 -5 -17 -5.5t-21.5 -1t-21.5 -2.5
t-17 -9q-4 -4 -6 -37t-2 -83t0.5 -110.5l1 -120t1 -112t-0.5 -85.5q0 -3 12.5 -2.5t28.5 2t29.5 1.5t14.5 -4q5 -18 4 -29.5t-9 -14.5q-3 -1 -19 -2.5t-39 -3t-49 -3t-49 -2.5t-38.5 -1.5t-17.5 0.5q-2 0 -4.5 2t-4.5 5t-2.5 7.5t3.5 10.5zM148 851q9 13 19.5 13t18 -6.5
t9.5 -17.5t-5 -20l-77 -96q-6 -10 -15 -11.5t-16 3t-9.5 13.5t5.5 20l36 52.5z" />
    <glyph glyph-name="ibreve" unicode="&#x12d;" 
d="M9 26q-4 -6 -3.5 -10.5t2.5 -7.5t4.5 -5t4.5 -2q2 -1 17.5 -0.5t38.5 1.5t49 2.5t49 3t39 3t19 2.5q8 3 9 14.5t-4 29.5q-1 4 -14.5 4t-29.5 -1.5t-28.5 -2t-12.5 2.5q1 33 0.5 85.5t-1 112l-1 120t-0.5 110.5t2 83t6 37q7 7 17 9t21.5 2.5t21.5 1t17 5.5q13 9 8 23
t-14 21q-3 2 -19.5 2.5t-39.5 0t-49 -2t-49 -3.5t-39 -4t-18 -4q-7 -6 -9 -22.5t9 -25.5q6 -5 17 -4t24 2.5t25.5 2.5t20.5 -2q4 -2 5.5 -35t1 -84.5t-2.5 -114t-4.5 -123.5t-4 -114t-1.5 -85q2 -3 -10 -6.5t-28 -7.5t-30.5 -8t-15.5 -6zM25 817q2 6 9.5 9t16.5 3t16 -3
t8 -9t-0.5 -12t-2.5 -12t-0.5 -11.5t6.5 -9.5q7 -5 18.5 -7t24.5 -1t25.5 4.5t20.5 9.5q10 7 10.5 18t2.5 24q1 6 9 9.5t17 3t16 -5.5t6 -14q-2 -19 -5 -34.5t-24 -33.5q-10 -9 -31.5 -14t-44.5 -6t-44 1.5t-30 8.5q-14 9 -20 21t-7.5 23.5t0 21.5t3.5 16z" />
    <glyph glyph-name="icircumflex" unicode="&#xee;" 
d="M9 26q-4 -6 -3.5 -10.5t2.5 -7.5t4.5 -5t4.5 -2q2 -1 17.5 -0.5t38.5 1.5t49 2.5t49 3t39 3t19 2.5q8 3 9 14.5t-4 29.5q-1 4 -14.5 4t-29.5 -1.5t-28.5 -2t-12.5 2.5q1 33 0.5 85.5t-1 112l-1 120t-0.5 110.5t2 83t6 37q7 7 17 9t21.5 2.5t21.5 1t17 5.5q13 9 8 23
t-14 21q-3 2 -19.5 2.5t-39.5 0t-49 -2t-49 -3.5t-39 -4t-18 -4q-7 -6 -9 -22.5t9 -25.5q6 -5 17 -4t24 2.5t25.5 2.5t20.5 -2q4 -2 5.5 -35t1 -84.5t-2.5 -114t-4.5 -123.5t-4 -114t-1.5 -85q2 -3 -10 -6.5t-28 -7.5t-30.5 -8t-15.5 -6zM148 823l13.5 -17t17.5 -24
l17 -24.5t11 -18.5t-0.5 -14.5t-11 -11.5t-16.5 -2t-17 15q-17 25 -27.5 42.5t-15.5 17.5q-3 0 -8 -7.5t-10 -17.5l-10.5 -20.5t-8.5 -17.5q-4 -7 -13.5 -9t-18.5 1t-13.5 10.5t1.5 18.5t14 23.5l16 24l14.5 21t10.5 13.5q18 20 31 16t24 -19z" />
    <glyph glyph-name="idieresis" unicode="&#xef;" 
d="M9 26q-4 -6 -3.5 -10.5t2.5 -7.5t4.5 -5t4.5 -2q2 -1 17.5 -0.5t38.5 1.5t49 2.5t49 3t39 3t19 2.5q8 3 9 14.5t-4 29.5q-1 4 -14.5 4t-29.5 -1.5t-28.5 -2t-12.5 2.5q1 33 0.5 85.5t-1 112l-1 120t-0.5 110.5t2 83t6 37q7 7 17 9t21.5 2.5t21.5 1t17 5.5q13 9 8 23
t-14 21q-3 2 -19.5 2.5t-39.5 0t-49 -2t-49 -3.5t-39 -4t-18 -4q-7 -6 -9 -22.5t9 -25.5q6 -5 17 -4t24 2.5t25.5 2.5t20.5 -2q4 -2 5.5 -35t1 -84.5t-2.5 -114t-4.5 -123.5t-4 -114t-1.5 -85q2 -3 -10 -6.5t-28 -7.5t-30.5 -8t-15.5 -6zM96 735q-8 -9 -18 -7.5t-18.5 9
t-12.5 18t0 19.5q3 6 12 10t19 4t18.5 -4t9.5 -14q1 -6 -1 -16.5t-9 -18.5zM196 735q-8 -9 -18 -7.5t-18.5 9t-12.5 18t0 19.5q3 6 12 10t19 4t18.5 -4t9.5 -14q1 -6 -1 -16.5t-9 -18.5z" />
    <glyph glyph-name="igrave" unicode="&#xec;" 
d="M9 26q1 2 15.5 6t30.5 8t28 7.5t10 6.5q0 32 1.5 85t4 114t4.5 123.5t2.5 114t-1 84.5t-5.5 35q-8 3 -20.5 2t-25.5 -2.5t-24 -2.5t-17 4q-11 9 -9 25.5t9 22.5q2 2 18 4t39 4t49 3.5t49 2t39.5 0t19.5 -2.5q9 -7 14 -21t-8 -23q-7 -5 -17 -5.5t-21.5 -1t-21.5 -2.5
t-17 -9q-4 -4 -6 -37t-2 -83t0.5 -110.5l1 -120t1 -112t-0.5 -85.5q0 -3 12.5 -2.5t28.5 2t29.5 1.5t14.5 -4q5 -18 4 -29.5t-9 -14.5q-3 -1 -19 -2.5t-39 -3t-49 -3t-49 -2.5t-38.5 -1.5t-17.5 0.5q-2 0 -4.5 2t-4.5 5t-2.5 7.5t3.5 10.5zM108 841l34 -49.5l36 -52.5
q7 -11 5 -20t-9 -13.5t-16 -3t-15 11.5l-77 96q-8 9 -5.5 20t10 17.5t18 6.5t19.5 -13z" />
    <glyph glyph-name="imacron" unicode="&#x12b;" 
d="M9 26q-4 -6 -3.5 -10.5t2.5 -7.5t4.5 -5t4.5 -2q2 -1 17.5 -0.5t38.5 1.5t49 2.5t49 3t39 3t19 2.5q8 3 9 14.5t-4 29.5q-1 4 -14.5 4t-29.5 -1.5t-28.5 -2t-12.5 2.5q1 33 0.5 85.5t-1 112l-1 120t-0.5 110.5t2 83t6 37q7 7 17 9t21.5 2.5t21.5 1t17 5.5q13 9 8 23
t-14 21q-3 2 -19.5 2.5t-39.5 0t-49 -2t-49 -3.5t-39 -4t-18 -4q-7 -6 -9 -22.5t9 -25.5q6 -5 17 -4t24 2.5t25.5 2.5t20.5 -2q4 -2 5.5 -35t1 -84.5t-2.5 -114t-4.5 -123.5t-4 -114t-1.5 -85q2 -3 -10 -6.5t-28 -7.5t-30.5 -8t-15.5 -6zM27 766q2 4 16 7t34 4.5t43 1.5
t43.5 -1t35.5 -3t20 -6q5 -5 3.5 -14t-9.5 -12q-6 -2 -23.5 -4.5t-41 -3.5t-48 -0.5t-43 3.5t-28 9.5t-2.5 18.5z" />
    <glyph glyph-name="iogonek" unicode="&#x12f;" horiz-adv-x="267" 
d="M9 26q1 2 15.5 6t30.5 8t28 7.5t10 6.5q0 32 1.5 85t4 114t4.5 123.5t2.5 114t-1 84.5t-5.5 35q-8 3 -20.5 2t-25.5 -2.5t-24 -2.5t-17 4q-11 9 -9 25.5t9 22.5q2 2 18 4t39 4t49 3.5t49 2t39.5 0t19.5 -2.5q9 -7 14 -21t-8 -23q-7 -5 -17 -5.5t-21.5 -1t-21.5 -2.5
t-17 -9q-4 -4 -6 -37t-2 -83t0.5 -110.5l1 -120t1 -112t-0.5 -85.5q10 0 31.5 1t38.5 -2t22.5 -13.5t-14.5 -33.5q-17 -24 -27 -42.5t-8 -44.5q2 -6 6.5 -7.5t10 -1.5t10.5 -1t8 -5q13 -16 2.5 -25.5t-28.5 -10t-36 10t-20 35.5q-3 31 2.5 51t13.5 36q-23 -2 -47.5 -3
t-45.5 -2t-35 -1h-16t-4.5 2t-4.5 5t-2.5 7.5t3.5 10.5z" />
    <glyph glyph-name="itilde" unicode="&#x129;" 
d="M9 26q-4 -6 -3.5 -10.5t2.5 -7.5t4.5 -5t4.5 -2q2 -1 17.5 -0.5t38.5 1.5t49 2.5t49 3t39 3t19 2.5q8 3 9 14.5t-4 29.5q-1 4 -14.5 4t-29.5 -1.5t-28.5 -2t-12.5 2.5q1 33 0.5 85.5t-1 112l-1 120t-0.5 110.5t2 83t6 37q7 7 17 9t21.5 2.5t21.5 1t17 5.5q13 9 8 23
t-14 21q-3 2 -19.5 2.5t-39.5 0t-49 -2t-49 -3.5t-39 -4t-18 -4q-7 -6 -9 -22.5t9 -25.5q6 -5 17 -4t24 2.5t25.5 2.5t20.5 -2q4 -2 5.5 -35t1 -84.5t-2.5 -114t-4.5 -123.5t-4 -114t-1.5 -85q2 -3 -10 -6.5t-28 -7.5t-30.5 -8t-15.5 -6zM96 821q9 0 18 -8t16.5 -18.5
l13 -18.5t8.5 -8q11 2 20 17.5t20 28.5q6 6 13 6t13 -4t8.5 -11t-0.5 -14t-12 -20.5t-19.5 -26.5t-21.5 -22.5t-19 -9.5q-12 0 -20.5 9t-15.5 19t-12 18t-10 7q-7 -2 -12.5 -8t-10 -13.5l-9 -15.5t-8.5 -12q-4 -5 -12.5 -3.5t-15.5 6.5t-9.5 13t4.5 17t15 21t17 23.5
t19.5 19.5t21.5 8z" />
    <glyph glyph-name="ij" unicode="&#x133;" horiz-adv-x="530" 
d="M9 26q1 2 15.5 6t30.5 8t28 7.5t10 6.5q0 32 1.5 85t4 114t4.5 123.5t2.5 114t-1 84.5t-5.5 35q-8 3 -20.5 2t-25.5 -2.5t-24 -2.5t-17 4q-11 9 -9 25.5t9 22.5q2 2 18 4t39 4t49 3.5t49 2t39.5 0t19.5 -2.5q9 -7 14 -21t-8 -23q-7 -5 -17 -5.5t-21.5 -1t-21.5 -2.5
t-17 -9q-4 -4 -6 -37t-2 -83t0.5 -110.5l1 -120t1 -112t-0.5 -85.5q0 -3 12.5 -2.5t28.5 2t29.5 1.5t14.5 -4q5 -18 4 -29.5t-9 -14.5q-3 -1 -19 -2.5t-39 -3t-49 -3t-49 -2.5t-38.5 -1.5t-17.5 0.5q-2 0 -4.5 2t-4.5 5t-2.5 7.5t3.5 10.5zM442 654q1 7 10 12t18.5 6
t17.5 -3.5t7 -14.5q-1 -7 -1 -41.5t0.5 -84t0.5 -107t-0.5 -109.5t-1 -92.5t-2.5 -55.5q-3 -23 -9 -51t-20 -52t-39.5 -41.5t-67.5 -19.5q-33 -2 -56 9.5t-37.5 30.5t-22.5 43t-11.5 46.5t-3.5 41.5t1 28q1 14 8.5 18t16.5 2t16 -9t7 -14q0 -8 0.5 -32t6.5 -50.5t20 -47.5
t42 -22q25 -1 42.5 8t29 25.5t17.5 38.5t8 48q8 99 9 185t-1 151t-4.5 105.5t-0.5 48.5z" />
    <glyph glyph-name="jcircumflex" unicode="&#x135;" horiz-adv-x="316" 
d="M224 654q1 7 10 12t18.5 6t17.5 -3.5t7 -14.5q-1 -7 -1 -41.5t0.5 -84t0.5 -107t-0.5 -109.5t-1 -92.5t-2.5 -55.5q-3 -23 -9 -51t-20 -52t-39.5 -41.5t-67.5 -19.5q-33 -2 -56 9.5t-37.5 30.5t-22.5 43t-11.5 46.5t-3.5 41.5t1 28q1 14 8.5 18t16.5 2t16 -9t7 -14
q0 -8 0.5 -32t6.5 -50.5t20 -47.5t42 -22q25 -1 42.5 8t29 25.5t17.5 38.5t8 48q8 99 9 185t-1 151t-4.5 105.5t-0.5 48.5zM277 823l13.5 -17t17.5 -24l17 -24.5t11 -18.5t-0.5 -14.5t-11 -11.5t-16.5 -2t-17 15q-17 25 -27.5 42.5t-15.5 17.5q-3 0 -8 -7.5t-10 -17.5
l-10.5 -20.5t-8.5 -17.5q-4 -7 -13.5 -9t-18.5 1t-13.5 10.5t1.5 18.5t14 23.5l16 24l14.5 21t10.5 13.5q18 20 31 16t24 -19z" />
    <glyph glyph-name="dotlessj" unicode="&#x237;" horiz-adv-x="316" 
d="M224 654q1 7 10 12t18.5 6t17.5 -3.5t7 -14.5q-1 -7 -1 -41.5t0.5 -84t0.5 -107t-0.5 -109.5t-1 -92.5t-2.5 -55.5q-3 -23 -9 -51t-20 -52t-39.5 -41.5t-67.5 -19.5q-33 -2 -56 9.5t-37.5 30.5t-22.5 43t-11.5 46.5t-3.5 41.5t1 28q1 14 8.5 18t16.5 2t16 -9t7 -14
q0 -8 0.5 -32t6.5 -50.5t20 -47.5t42 -22q25 -1 42.5 8t29 25.5t17.5 38.5t8 48q8 99 9 185t-1 151t-4.5 105.5t-0.5 48.5z" />
    <glyph glyph-name="ff" unicode="&#xfb00;" horiz-adv-x="438" 
d="M264 28q1 10 0.5 35.5t-1.5 54t-2.5 52t-3.5 29.5q-1 3 -19 4t-39.5 1t-39.5 -1t-19 -2q-3 -2 -1.5 -24.5t4.5 -51t6.5 -56.5t3.5 -41t-10 -18.5t-21.5 -4.5t-21 7t-8.5 16t0.5 35.5t-1.5 54t-2.5 52t-3.5 29.5t-10.5 7t-19.5 1t-22 -0.5t-18 1.5t-11 9.5t-4 15.5t4 14.5
t14 6.5t21 -0.5t21.5 -0.5t18.5 1.5t11 4.5q2 2 2 28t-0.5 64.5t-1 84.5t0.5 88t3.5 75t8.5 46q9 19 22.5 29t28 13.5t28.5 3.5h25q10 0 15.5 -9t5.5 -19t-4 -18t-13 -8q-17 1 -34.5 -0.5t-28.5 -16.5q-4 -5 -6 -32.5t-3 -66.5t-1 -83.5v-82.5t1 -64t2 -29q-2 -3 16.5 -5
t41 -2t42 1t21.5 3t2 28t-0.5 64.5t-1 84.5t0.5 88t3.5 75t8.5 46q9 19 22.5 29t28 13.5t28.5 3.5h25q10 0 15.5 -9t5.5 -19t-4 -18t-13 -8q-17 1 -34.5 -0.5t-28.5 -16.5q-4 -5 -6 -32.5t-3 -66.5t-1 -83.5v-82.5t1 -64t2 -29q2 -6 13.5 -8t25.5 -2t27.5 0.5t19.5 0.5
q5 0 8 -9t2.5 -19t-5.5 -18t-15 -7l-23 2t-23 1.5t-19.5 0t-11.5 -2.5t-1.5 -24.5t4.5 -51t6.5 -56.5t3.5 -41t-10 -18.5t-21.5 -4.5t-21 7t-8.5 16z" />
    <glyph glyph-name="ffi" unicode="&#xfb03;" horiz-adv-x="524" 
d="M264 28q1 10 0.5 35.5t-1.5 54t-2.5 52t-3.5 29.5q-1 3 -19 4t-39.5 1t-39.5 -1t-19 -2q-3 -2 -1.5 -24.5t4.5 -51t6.5 -56.5t3.5 -41t-10 -18.5t-21.5 -4.5t-21 7t-8.5 16t0.5 35.5t-1.5 54t-2.5 52t-3.5 29.5t-10.5 7t-19.5 1t-22 -0.5t-18 1.5t-11 9.5t-4 15.5t4 14.5
t14 6.5t21 -0.5t21.5 -0.5t18.5 1.5t11 4.5q2 2 2 28t-0.5 64.5t-1 84.5t0.5 88t3.5 75t8.5 46q9 19 22.5 29t28 13.5t28.5 3.5h25q10 0 15.5 -9t5.5 -19t-4 -18t-13 -8q-17 1 -34.5 -0.5t-28.5 -16.5q-3 -5 -5.5 -32.5t-3.5 -66.5t-1 -83.5v-82.5t1 -64t2 -29
q-2 -3 16.5 -5t41 -2t42 1t21.5 3t2 28t-0.5 64.5t-1 84.5t0.5 88t3.5 75t8.5 46q9 19 22.5 29t28 13.5t28.5 3.5h25q10 0 15.5 -9t5.5 -19t-4 -18t-13 -8q-17 1 -34.5 -0.5t-28.5 -16.5q-4 -5 -6 -32.5t-3 -66.5t-1 -83.5v-82.5t1 -64t2 -29q1 -2 4.5 -4t12.5 -3t25.5 -1.5
t43.5 -0.5l2 -1q27 1 50 1t29 -5q4 -3 5.5 -21t1 -43t-2 -53.5t-3.5 -54t-4 -44.5t-4 -23q-5 -11 -18 -14.5t-18 14.5q-2 6 -2 23t0.5 39t0.5 45.5t-1 43.5t-3.5 32t-7.5 11q-7 -3 -25.5 -2l-38 2t-34.5 1.5t-14 -3.5q-3 -2 -1.5 -24.5t4.5 -51t6.5 -56.5t3.5 -41t-10 -18.5
t-21.5 -4.5t-21 7t-8.5 16zM427 330q1 6 11 9.5t21 4t20.5 -3t9.5 -10.5v-11t-0.5 -7t-1.5 -7t-2 -10q-2 -6 -11 -9t-19.5 -3t-19 2t-8.5 7q0 9 -1 17t1 21z" />
    <glyph glyph-name="ffl" unicode="&#xfb04;" horiz-adv-x="688" 
d="M264 28q1 10 0.5 35.5t-1.5 54t-2.5 52t-3.5 29.5q-1 3 -19 4t-39.5 1t-39.5 -1t-19 -2q-3 -2 -1.5 -24.5t4.5 -51t6.5 -56.5t3.5 -41t-10 -18.5t-21.5 -4.5t-21 7t-8.5 16t0.5 35.5t-1.5 54t-2.5 52t-3.5 29.5t-10.5 7t-19.5 1t-22 -0.5t-18 1.5t-11 9.5t-4 15.5t4 14.5
t14 6.5t21 -0.5t21.5 -0.5t18.5 1.5t11 4.5q2 2 2 28t-0.5 64.5t-1 84.5t0.5 88t3.5 75t8.5 46q9 19 22.5 29t28 13.5t28.5 3.5h25q10 0 15.5 -9t5.5 -19t-4 -18t-13 -8q-17 1 -34.5 -0.5t-28.5 -16.5q-3 -5 -5.5 -32.5t-3.5 -66.5t-1 -83.5v-82.5t1 -64t2 -29
q-2 -3 16.5 -5t41 -2t42 1t21.5 3t2 28t-0.5 64.5t-1 84.5t0.5 88t3.5 75t8.5 46q9 19 39.5 29t66 13.5t66.5 3.5h42q14 -1 18.5 -15t0.5 -26l1 -1q1 -6 0 -33l-2.5 -68t-4.5 -91.5t-5.5 -102.5l-5 -102t-3.5 -90t0 -65.5t4 -28.5q4 -5 18.5 -5t34 1.5t41 4t40 4t30.5 0
t13 -7.5q2 -18 2 -28.5t-11 -10.5q-4 0 -20 -2l-38.5 -5t-48.5 -6t-48 -4.5t-37.5 -1.5t-17.5 4q-1 2 -2 17.5t-1 41v59v72.5q-15 1 -36.5 1.5l-42.5 1t-37 0t-19 -2.5t-1.5 -24.5t4.5 -51t6.5 -56.5t3.5 -41t-10 -18.5t-21.5 -4.5t-21 7t-8.5 16zM313 262q1 -5 16.5 -7
t36.5 -2.5t43 0t38 0.5l2 119t2.5 114t3 93t2.5 58q-18 0 -40.5 -0.5t-42.5 -2.5t-35 -5t-19 -9q-4 -5 -6 -32.5t-3 -66.5t-1 -83.5v-82.5t1 -64t2 -29z" />
    <glyph glyph-name="gbreve" unicode="&#x11f;" horiz-adv-x="406" 
d="M76 8q16 -3 46 -4.5t64.5 -0.5t67.5 5.5t56 13.5q13 5 18.5 22t6 38t-3.5 41t-11 32q-9 14 -32 17.5t-51 2.5t-56.5 -4.5t-49 -3.5t-27.5 6.5t8 24.5q20 -2 50 -2.5t62 4.5t61 18.5t47 39.5q14 21 20.5 53.5t7.5 69.5t-1 74t-5 67.5l-5 50.5t-1 22q1 4 8.5 9l15.5 10
t15 10t7 8q0 4 -5.5 11t-12.5 13t-13.5 10t-9.5 4q-2 0 -6.5 -6.5t-10 -13.5t-11 -12t-8.5 -2q-24 23 -61.5 31.5t-77 6t-75 -13.5t-56.5 -28q-15 -12 -25.5 -41t-16 -68t-5.5 -83t5.5 -85t17 -75t29.5 -53q2 -2 -4.5 -9t-11 -18.5t-3 -26t19.5 -30.5q-2 -10 -10 -30.5
t-11 -41.5t5.5 -39t38.5 -24zM87 593q12 15 37 23t54 9.5t57 -5t45 -21.5q11 -10 18.5 -34.5t11 -55.5t4 -65.5t-1.5 -64.5t-6.5 -52t-9.5 -29q-17 -21 -44.5 -34t-58 -17.5t-58.5 0t-45 18.5q-13 10 -21.5 34t-13.5 54.5t-6 65.5t3 68t12.5 61t22.5 45zM98 112q8 7 34 10
t55.5 3.5t55.5 -1.5t34 -4q6 -2 9 -8.5t2.5 -15.5t-4.5 -17.5t-13 -14.5q-9 -5 -33.5 -8.5t-53 -5t-54.5 -0.5t-38 5q-14 5 -11.5 24.5t17.5 32.5zM91 810q2 6 9.5 9t16.5 3t16 -3t8 -9t-0.5 -12t-2.5 -12t-0.5 -11.5t6.5 -9.5q7 -5 18.5 -7t24.5 -1t25.5 4.5t20.5 9.5
q10 7 10.5 18t2.5 24q1 6 9 9.5t17 3t16 -5.5t6 -14q-2 -19 -5 -34.5t-24 -33.5q-10 -9 -31.5 -14t-44.5 -6t-44 1.5t-30 8.5q-14 9 -20 21t-7.5 23.5t0 21.5t3.5 16z" />
    <glyph glyph-name="gcircumflex" unicode="&#x11d;" horiz-adv-x="406" 
d="M76 8q16 -3 46 -4.5t64.5 -0.5t67.5 5.5t56 13.5q13 5 18.5 22t6 38t-3.5 41t-11 32q-9 14 -32 17.5t-51 2.5t-56.5 -4.5t-49 -3.5t-27.5 6.5t8 24.5q20 -2 50 -2.5t62 4.5t61 18.5t47 39.5q14 21 20.5 53.5t7.5 69.5t-1 74t-5 67.5l-5 50.5t-1 22q1 4 8.5 9l15.5 10
t15 10t7 8q0 4 -5.5 11t-12.5 13t-13.5 10t-9.5 4q-2 0 -6.5 -6.5t-10 -13.5t-11 -12t-8.5 -2q-24 23 -61.5 31.5t-77 6t-75 -13.5t-56.5 -28q-15 -12 -25.5 -41t-16 -68t-5.5 -83t5.5 -85t17 -75t29.5 -53q2 -2 -4.5 -9t-11 -18.5t-3 -26t19.5 -30.5q-2 -10 -10 -30.5
t-11 -41.5t5.5 -39t38.5 -24zM87 593q12 15 37 23t54 9.5t57 -5t45 -21.5q11 -10 18.5 -34.5t11 -55.5t4 -65.5t-1.5 -64.5t-6.5 -52t-9.5 -29q-17 -21 -44.5 -34t-58 -17.5t-58.5 0t-45 18.5q-13 10 -21.5 34t-13.5 54.5t-6 65.5t3 68t12.5 61t22.5 45zM98 112q8 7 34 10
t55.5 3.5t55.5 -1.5t34 -4q6 -2 9 -8.5t2.5 -15.5t-4.5 -17.5t-13 -14.5q-9 -5 -33.5 -8.5t-53 -5t-54.5 -0.5t-38 5q-14 5 -11.5 24.5t17.5 32.5zM214 817l13.5 -17t17.5 -24l17 -24.5t11 -18.5t-0.5 -14.5t-11 -11.5t-16.5 -2t-17 15q-17 25 -27.5 42.5t-15.5 17.5
q-3 0 -8 -7.5t-10 -17.5l-10.5 -20.5t-8.5 -17.5q-4 -7 -13.5 -9t-18.5 1t-13.5 10.5t1.5 18.5t14 23.5l16 24l14.5 21t10.5 13.5q18 20 31 16t24 -19z" />
    <glyph glyph-name="gcommaaccent" unicode="&#x123;" horiz-adv-x="406" 
d="M76 8q-30 6 -38.5 24t-5.5 39t11 41.5t10 30.5q-18 16 -19.5 30.5t3 26t11 18.5t4.5 9q-18 19 -29.5 53t-17 75t-5.5 85t5.5 83t16 68t25.5 41q21 17 56.5 28t75 13.5t77 -6t61.5 -31.5q3 -3 8.5 2t11 12t10 13.5t6.5 6.5q3 0 9.5 -4t13.5 -10t12.5 -13t5.5 -11
q0 -3 -7 -8t-15 -10l-15.5 -10t-8.5 -9q-1 -2 1 -22l5 -50.5t5 -67.5t1 -74t-7.5 -69.5t-20.5 -53.5q-18 -26 -47 -39.5t-61 -18.5t-62 -4.5t-50 2.5q-15 -18 -8 -24.5t27.5 -6.5t49 3.5t56.5 4.5t51 -2.5t32 -17.5q7 -12 11 -32t3.5 -41t-6 -38t-18.5 -22q-23 -9 -56 -13.5
t-67.5 -5.5t-64.5 0.5t-46 4.5zM87 593q-14 -17 -22.5 -45t-12.5 -61t-3 -68t6 -65.5t13.5 -54.5t21.5 -34q17 -14 45 -18.5t58.5 0t58 17.5t44.5 34q5 7 9.5 29t6.5 52t1.5 64.5t-4 65.5t-11 55.5t-18.5 34.5q-17 15 -45 21.5t-57 5t-54 -9.5t-37 -23zM98 112
q-15 -13 -17.5 -32.5t11.5 -24.5q12 -4 38 -5t54.5 0.5t53 5t33.5 8.5q9 6 13 14.5t4.5 17.5t-2.5 15.5t-9 8.5q-8 2 -34 4t-55.5 1.5t-55.5 -3.5t-34 -10zM221 735q1 -9 -4.5 -17t-14 -12t-18.5 -3.5t-17 6.5q-9 8 -7.5 23t8.5 29t16 23t14 6q4 -2 1 -7.5t-5 -17.5v-3.5
t5 -3.5q8 -1 14.5 -8t7.5 -15z" />
    <glyph glyph-name="gdotaccent" unicode="&#x121;" horiz-adv-x="406" 
d="M76 8q-30 6 -38.5 24t-5.5 39t11 41.5t10 30.5q-18 16 -19.5 30.5t3 26t11 18.5t4.5 9q-18 19 -29.5 53t-17 75t-5.5 85t5.5 83t16 68t25.5 41q21 17 56.5 28t75 13.5t77 -6t61.5 -31.5q3 -3 8.5 2t11 12t10 13.5t6.5 6.5q3 0 9.5 -4t13.5 -10t12.5 -13t5.5 -11
q0 -3 -7 -8t-15 -10l-15.5 -10t-8.5 -9q-1 -2 1 -22l5 -50.5t5 -67.5t1 -74t-7.5 -69.5t-20.5 -53.5q-18 -26 -47 -39.5t-61 -18.5t-62 -4.5t-50 2.5q-15 -18 -8 -24.5t27.5 -6.5t49 3.5t56.5 4.5t51 -2.5t32 -17.5q7 -12 11 -32t3.5 -41t-6 -38t-18.5 -22q-23 -9 -56 -13.5
t-67.5 -5.5t-64.5 0.5t-46 4.5zM87 593q-14 -17 -22.5 -45t-12.5 -61t-3 -68t6 -65.5t13.5 -54.5t21.5 -34q17 -14 45 -18.5t58.5 0t58 17.5t44.5 34q5 7 9.5 29t6.5 52t1.5 64.5t-4 65.5t-11 55.5t-18.5 34.5q-17 15 -45 21.5t-57 5t-54 -9.5t-37 -23zM98 112
q-15 -13 -17.5 -32.5t11.5 -24.5q12 -4 38 -5t54.5 0.5t53 5t33.5 8.5q9 6 13 14.5t4.5 17.5t-2.5 15.5t-9 8.5q-8 2 -34 4t-55.5 1.5t-55.5 -3.5t-34 -10zM192 788q16 0 23 -10t6 -22.5t-10 -23t-25 -11.5q-14 0 -23.5 10t-11 23t8 23.5t32.5 10.5z" />
    <glyph glyph-name="hbar" unicode="&#x127;" horiz-adv-x="345" 
d="M6 673q1 12 9 16.5t18 3.5t18 -6.5t8 -13.5q0 -6 -0.5 -23t-1.5 -39.5t-1.5 -47t0 -45t1.5 -34t4 -13.5q4 0 28.5 4t57 4t67 -8.5t58.5 -33.5q14 -15 21 -49t9.5 -78t1.5 -91t-3.5 -88t-5.5 -69.5t-3 -33.5q-1 -8 -9.5 -12.5t-18 -4t-17 5.5t-5.5 16q1 7 4 33.5t6.5 63
t5 78.5t0 80t-7.5 68.5t-19 42.5q-18 17 -45.5 23.5t-54 5.5t-47 -8t-23.5 -16q-2 -6 -3 -34t-1.5 -67.5t0 -84.5t1 -85t0.5 -69.5t-1 -37.5q-1 -12 -9 -21t-17 -11.5t-16.5 3t-7.5 21.5q0 8 -0.5 39t-0.5 77v102t-0.5 114t-0.5 113.5v100t0.5 74t0.5 35.5zM-53 540
q2 4 16 7t34 4.5t43 1.5t43.5 -1t36 -3t19.5 -6q5 -5 3.5 -14t-9.5 -12q-6 -2 -23.5 -4.5t-41 -3.5t-48 -0.5t-43 3.5t-28 9.5t-2.5 18.5z" />
    <glyph glyph-name="hcircumflex" unicode="&#x125;" horiz-adv-x="345" 
d="M6 673q1 12 9 16.5t18 3.5t18 -6.5t8 -13.5q0 -6 -0.5 -23t-1.5 -39.5t-1.5 -47t0 -45t1.5 -34t4 -13.5q4 0 28.5 4t57 4t67 -8.5t58.5 -33.5q14 -15 21 -49t9.5 -78t1.5 -91t-3.5 -88t-5.5 -69.5t-3 -33.5q-1 -8 -9.5 -12.5t-18 -4t-17 5.5t-5.5 16q1 7 4 33.5t6.5 63
t5 78.5t0 80t-7.5 68.5t-19 42.5q-18 17 -45.5 23.5t-54 5.5t-47 -8t-23.5 -16q-2 -6 -3 -34t-1.5 -67.5t0 -84.5t1 -85t0.5 -69.5t-1 -37.5q-1 -12 -9 -21t-17 -11.5t-16.5 3t-7.5 21.5q0 8 -0.5 39t-0.5 77v102t-0.5 114t-0.5 113.5v100t0.5 74t0.5 35.5zM192 867
l13.5 -17t17.5 -24l17 -24.5t11 -18.5t-0.5 -14.5t-11 -11.5t-16.5 -2t-17 15q-17 25 -27.5 42.5t-15.5 17.5q-3 0 -8 -7.5t-10 -17.5l-10.5 -20.5t-8.5 -17.5q-4 -7 -13.5 -9t-18.5 1t-13.5 10.5t1.5 18.5t14 23.5l16 24l14.5 21t10.5 13.5q18 20 31 16t24 -19z" />
    <glyph glyph-name="kcommaaccent" unicode="&#x137;" horiz-adv-x="328" 
d="M252 649q7 12 20 11t24 -9t16 -21t-4 -25q-2 -3 -19.5 -31l-41.5 -69l-52 -88l-52 -87.5l-39.5 -68.5t-15.5 -30q0 -4 13 -10.5t33 -14.5t43.5 -16.5l45 -16.5l37.5 -14t20 -9q7 -5 7.5 -15.5t-4 -20t-12.5 -15t-17 -1.5q-6 2 -21.5 9.5l-36.5 17l-44 20l-42.5 19.5
t-33.5 14t-17 4t-4 -14t-1.5 -31.5t0 -40.5t1.5 -41t1 -32v-14q-2 -6 -8 -10t-13 -4.5t-13 2.5t-8 12t-2.5 22.5t0 28t1.5 27t1 20.5v29.5t-0.5 64.5t-1 88l-1 99.5t-0.5 98.5t0.5 86.5t1 62t1.5 25.5q2 3 9 5.5t15 2.5t16 -2t13 -6q4 -5 5 -14.5t0.5 -23t-2.5 -29.5t-3 -34
q-1 -6 -2 -29.5t-3 -55.5l-4 -67t-3 -65t-1 -50.5t2 -21.5q3 -2 17 23.5l34.5 65l44 87l44.5 90l36.5 74t19.5 38.5zM122 -44q-1 9 4.5 17t14 12t18 3.5t17.5 -6.5q9 -8 7 -23t-8.5 -29t-15.5 -23t-14 -6q-4 2 -1 7.5t5 17.5v3.5t-5 3.5q-8 1 -14.5 8t-7.5 15z" />
    <glyph glyph-name="kgreenlandic" unicode="&#x138;" horiz-adv-x="328" 
d="M252 649q7 12 20 11t24 -9t16 -21t-4 -25q-2 -3 -19.5 -31l-41.5 -69l-52 -88l-52 -87.5l-39.5 -68.5t-15.5 -30q0 -4 13 -10.5t33 -14.5t43.5 -16.5l45 -16.5l37.5 -14t20 -9q7 -5 7.5 -15.5t-4 -20t-12.5 -15t-17 -1.5q-6 2 -21.5 9.5l-36.5 17l-44 20l-42.5 19.5
t-33.5 14t-17 4t-4 -14t-1.5 -31.5t0 -40.5t1.5 -41t1 -32v-14q-2 -6 -8 -10t-13 -4.5t-13 2.5t-8 12t-2.5 22.5t0 28t1.5 27t1 20.5v29.5t-0.5 64.5t-1 88l-1 99.5t-0.5 98.5t0.5 86.5t1 62t1.5 25.5q2 3 9 5.5t15 2.5t16 -2t13 -6q4 -5 5 -14.5t0.5 -23t-2.5 -29.5t-3 -34
q-1 -6 -2 -29.5t-3 -55.5l-4 -67t-3 -65t-1 -50.5t2 -21.5q3 -2 17 23.5l34.5 65l44 87l44.5 90l36.5 74t19.5 38.5z" />
    <glyph glyph-name="lacute" unicode="&#x13a;" 
d="M23 649q2 3 9 8t15.5 7t16 -1t9.5 -14q1 -6 0 -33l-2.5 -68t-4.5 -91.5t-5.5 -102.5l-5 -102t-3.5 -90t0 -65.5t4 -28.5q4 -5 18.5 -5t34 1.5t41 4t40 4t30.5 0t13 -7.5q2 -18 2 -28.5t-11 -10.5q-4 0 -20 -2l-38.5 -5t-48 -6t-48 -4.5t-38 -1.5t-17.5 4q-2 3 -2.5 31.5
t-0.5 73t0.5 101t1.5 115.5l2 115t2.5 100.5t3 72t2.5 29.5zM58 851q9 13 19.5 13t18 -6.5t9.5 -17.5t-5 -20l-77 -96q-6 -10 -15 -11.5t-16 3t-9.5 13.5t5.5 20l36 52.5z" />
    <glyph glyph-name="lcaron" unicode="&#x13e;" 
d="M23 649q-1 -2 -2.5 -29.5t-3 -72t-2.5 -100.5l-2 -115t-1.5 -115.5t-0.5 -101t0.5 -73t2.5 -31.5q2 -4 17.5 -4t38 1.5t48 4.5t48 6l38.5 5t20 2q11 0 11 10.5t-2 28.5q-1 6 -13 7.5t-30.5 0t-40 -4t-41 -4t-34 -1.5t-18.5 5q-3 3 -4 28.5t0 65.5t3.5 90l5 102t5.5 102.5
t4.5 91.5l2.5 68t0 33q-2 11 -9.5 14t-16 1t-15.5 -7t-9 -8zM78 732q-11 -15 -24 -19t-31 16q-4 4 -10.5 13.5l-14.5 21l-16 24t-14 23.5t-1.5 18.5t13.5 10.5t18.5 1t13.5 -9q3 -7 8.5 -17.5l10.5 -20.5t10 -17.5t8 -7.5q5 0 15.5 17.5t27.5 42.5q8 13 17 15t16.5 -2
t11 -11.5t0.5 -14.5t-11 -18.5l-17 -24.5t-17.5 -24z" />
    <glyph glyph-name="lcommaaccent" unicode="&#x13c;" 
d="M23 649q2 3 9 8t15.5 7t16 -1t9.5 -14q1 -6 0 -33l-2.5 -68t-4.5 -91.5t-5.5 -102.5l-5 -102t-3.5 -90t0 -65.5t4 -28.5q4 -5 18.5 -5t34 1.5t41 4t40 4t30.5 0t13 -7.5q2 -18 2 -28.5t-11 -10.5q-4 0 -20 -2l-38.5 -5t-48 -6t-48 -4.5t-38 -1.5t-17.5 4q-2 3 -2.5 31.5
t-0.5 73t0.5 101t1.5 115.5l2 115t2.5 100.5t3 72t2.5 29.5zM96 -44q-1 9 4.5 17t14 12t18 3.5t17.5 -6.5q9 -8 7 -23t-8.5 -29t-15.5 -23t-14 -6q-4 2 -1 7.5t5 17.5v3.5t-5 3.5q-8 1 -14.5 8t-7.5 15z" />
    <glyph glyph-name="ldot" unicode="&#x140;" 
d="M158 339q16 0 23 -10t6 -22.5t-10 -23t-25 -11.5q-14 0 -23.5 10t-11 23t8 23.5t32.5 10.5zM23 649q2 3 9 8t15.5 7t16 -1t9.5 -14q1 -6 0 -33l-2.5 -68t-4.5 -91.5t-5.5 -102.5l-5 -102t-3.5 -90t0 -65.5t4 -28.5q4 -5 18.5 -5t34 1.5t41 4t40 4t30.5 0t13 -7.5
q2 -18 2 -28.5t-11 -10.5q-4 0 -20 -2l-38.5 -5t-48 -6t-48 -4.5t-38 -1.5t-17.5 4q-2 3 -2.5 31.5t-0.5 73t0.5 101t1.5 115.5l2 115t2.5 100.5t3 72t2.5 29.5z" />
    <glyph glyph-name="nacute" unicode="&#x144;" horiz-adv-x="390" 
d="M14 661q0 4 6 6t13.5 2t15 -2t12.5 -6q4 -4 3 -17t-3 -27.5t-2.5 -26t3.5 -13.5q5 2 15 16t26 30t37.5 29.5t49.5 13.5q46 0 73 -16.5t42 -41.5t20 -54t8 -52q2 -16 4.5 -55.5t6 -90t7 -106.5t6 -104t4.5 -82t3 -41q1 -11 -7 -15t-17.5 -3t-18.5 5.5t-10 12.5
q-2 7 -3.5 46t-4.5 102.5t-8.5 147.5t-13.5 183q-5 52 -26 81.5t-62 27.5q-33 -2 -55 -20t-35 -42t-20 -49.5t-10 -41.5q-6 -26 -8.5 -64.5t-3.5 -82.5t-0.5 -90t1 -87t0.5 -74t-1 -51q0 -6 -6.5 -10t-15 -5t-16 2.5t-9.5 12.5q-1 4 -2 31.5t-1.5 70.5t-0.5 97.5t-0.5 112
t0 114t1 103t1.5 79.5t2 44zM195 840q9 13 19.5 13t18 -6.5t9.5 -17.5t-5 -20l-77 -96q-6 -10 -15 -11.5t-16 3t-9.5 13.5t5.5 20l36 52.5z" />
    <glyph glyph-name="napostrophe" unicode="&#x149;" horiz-adv-x="390" 
d="M14 661q0 4 6 6t13.5 2t15 -2t12.5 -6q4 -4 3 -17t-3 -27.5t-2.5 -26t3.5 -13.5q5 2 15 16t26 30t37.5 29.5t49.5 13.5q46 0 73 -16.5t42 -41.5t20 -54t8 -52q2 -16 4.5 -55.5t6 -90t7 -106.5t6 -104t4.5 -82t3 -41q1 -11 -7 -15t-17.5 -3t-18.5 5.5t-10 12.5
q-2 7 -3.5 46t-4.5 102.5t-8.5 147.5t-13.5 183q-5 52 -26 81.5t-62 27.5q-33 -2 -55 -20t-35 -42t-20 -49.5t-10 -41.5q-6 -26 -8.5 -64.5t-3.5 -82.5t-0.5 -90t1 -87t0.5 -74t-1 -51q0 -6 -6.5 -10t-15 -5t-16 2.5t-9.5 12.5q-1 4 -2 31.5t-1.5 70.5t-0.5 97.5t-0.5 112
t0 114t1 103t1.5 79.5t2 44zM144 -56q-1 9 4.5 17t14 12t18 3.5t17.5 -6.5q9 -8 7 -23t-8.5 -29t-15.5 -23t-14 -6q-4 2 -1 7.5t5 17.5v3.5t-5 3.5q-8 1 -14.5 8t-7.5 15z" />
    <glyph glyph-name="ncaron" unicode="&#x148;" horiz-adv-x="390" 
d="M14 661q-1 -11 -2 -44t-1.5 -79.5t-1 -103t0 -114t0.5 -112t0.5 -97.5t1.5 -70.5t2 -31.5q2 -9 9.5 -12.5t16 -2.5t15 5t6.5 10q1 18 1 51t-0.5 74t-1 87t0.5 90t3.5 82.5t8.5 64.5q3 16 10 41.5t20 49.5t35 42t55 20q41 2 62 -27.5t26 -81.5q8 -99 13.5 -183t8.5 -147.5
t4.5 -102.5t3.5 -46q1 -8 10 -12.5t18.5 -5.5t17.5 3t7 15q-1 7 -3 41t-4.5 82t-6 104t-7 106.5t-6 90t-4.5 55.5q-3 23 -8 52t-20 54t-42 41.5t-73 16.5q-28 0 -49.5 -13.5t-37.5 -29.5t-26 -30t-15 -16q-4 2 -3.5 13.5t2.5 26t3 27.5t-3 17q-5 4 -12.5 6t-15 2t-13.5 -2
t-6 -6zM203 726q-11 -15 -24 -19t-31 16q-4 4 -10.5 13.5l-14.5 21l-16 24t-14 23.5t-1.5 18.5t13.5 10.5t18.5 1t13.5 -9q3 -7 8.5 -17.5l10.5 -20.5t10 -17.5t8 -7.5q5 0 15.5 17.5t27.5 42.5q8 13 17 15t16.5 -2t11 -11.5t0.5 -14.5t-11 -18.5l-17 -24.5t-17.5 -24z" />
    <glyph glyph-name="ncommaaccent" unicode="&#x146;" horiz-adv-x="390" 
d="M14 661q0 4 6 6t13.5 2t15 -2t12.5 -6q4 -4 3 -17t-3 -27.5t-2.5 -26t3.5 -13.5q5 2 15 16t26 30t37.5 29.5t49.5 13.5q46 0 73 -16.5t42 -41.5t20 -54t8 -52q2 -16 4.5 -55.5t6 -90t7 -106.5t6 -104t4.5 -82t3 -41q1 -11 -7 -15t-17.5 -3t-18.5 5.5t-10 12.5
q-2 7 -3.5 46t-4.5 102.5t-8.5 147.5t-13.5 183q-5 52 -26 81.5t-62 27.5q-33 -2 -55 -20t-35 -42t-20 -49.5t-10 -41.5q-6 -26 -8.5 -64.5t-3.5 -82.5t-0.5 -90t1 -87t0.5 -74t-1 -51q0 -6 -6.5 -10t-15 -5t-16 2.5t-9.5 12.5q-1 4 -2 31.5t-1.5 70.5t-0.5 97.5t-0.5 112
t0 114t1 103t1.5 79.5t2 44zM155 -44q-1 9 4.5 17t14 12t18 3.5t17.5 -6.5q9 -8 7 -23t-8.5 -29t-15.5 -23t-14 -6q-4 2 -1 7.5t5 17.5v3.5t-5 3.5q-8 1 -14.5 8t-7.5 15z" />
    <glyph glyph-name="ntilde" unicode="&#xf1;" horiz-adv-x="390" 
d="M14 661q-1 -11 -2 -44t-1.5 -79.5t-1 -103t0 -114t0.5 -112t0.5 -97.5t1.5 -70.5t2 -31.5q2 -9 9.5 -12.5t16 -2.5t15 5t6.5 10q1 18 1 51t-0.5 74t-1 87t0.5 90t3.5 82.5t8.5 64.5q3 16 10 41.5t20 49.5t35 42t55 20q41 2 62 -27.5t26 -81.5q8 -99 13.5 -183t8.5 -147.5
t4.5 -102.5t3.5 -46q1 -8 10 -12.5t18.5 -5.5t17.5 3t7 15q-1 7 -3 41t-4.5 82t-6 104t-7 106.5t-6 90t-4.5 55.5q-3 23 -8 52t-20 54t-42 41.5t-73 16.5q-28 0 -49.5 -13.5t-37.5 -29.5t-26 -30t-15 -16q-4 2 -3.5 13.5t2.5 26t3 27.5t-3 17q-5 4 -12.5 6t-15 2t-13.5 -2
t-6 -6zM150 825q9 0 18 -8t16.5 -18.5l13 -18.5t8.5 -8q11 2 20 17.5t20 28.5q6 6 13 6t13 -4t8.5 -11t-0.5 -14t-12 -20.5t-19.5 -26.5t-21.5 -22.5t-19 -9.5q-12 0 -20.5 9t-15.5 19t-12 18t-10 7q-7 -2 -12.5 -8t-10 -13.5l-9 -15.5t-8.5 -12q-4 -5 -12.5 -3.5t-15.5 6.5
t-9.5 13t4.5 17t15 21t17 23.5t19.5 19.5t21.5 8z" />
    <glyph glyph-name="oacute" unicode="&#xf3;" horiz-adv-x="372" 
d="M58 637q26 20 57 28.5t63 6.5t63 -15t57 -35q25 -21 36.5 -66.5t13 -102t-6 -118.5t-19.5 -117.5t-27.5 -97.5t-30.5 -58q-18 -20 -42.5 -34.5t-52 -19.5t-56 1t-55.5 28q-15 13 -26 43t-18 71.5t-10 90.5t-2.5 99.5t4.5 99.5t11.5 89t17.5 68.5t23 38.5zM93 598
q-15 -16 -25 -58.5t-14.5 -97.5t-4.5 -116t5 -113.5t14 -90.5t23 -47q35 -23 73.5 -19t66.5 45q9 13 21 48t22.5 82t17.5 100.5t6 103.5t-12.5 91.5t-38.5 63.5q-18 15 -39 23t-42.5 9.5t-40.5 -4.5t-32 -20zM190 845q9 13 19.5 13t18 -6.5t9.5 -17.5t-5 -20l-77 -96
q-6 -10 -15 -11.5t-16 3t-9.5 13.5t5.5 20l36 52.5z" />
    <glyph glyph-name="obreve" unicode="&#x14f;" horiz-adv-x="372" 
d="M58 637q-13 -10 -23 -38.5t-17.5 -68.5t-11.5 -89t-4.5 -99.5t2.5 -99.5t10 -90.5t18 -71.5t26 -43q27 -22 55.5 -28t56 -1t52 19.5t42.5 34.5q15 16 30.5 58t27.5 97.5t19.5 117.5t6 118.5t-13 102t-36.5 66.5q-26 22 -57 35t-63 15t-63 -6.5t-57 -28.5zM93 598
q13 14 32 20t40.5 4.5t42.5 -9.5t39 -23q27 -22 38.5 -63.5t12.5 -91.5t-6 -103.5t-17.5 -100.5t-22.5 -82t-21 -48q-28 -41 -66.5 -45t-73.5 19q-14 9 -23 47t-14 90.5t-5 113.5t4.5 116t14.5 97.5t25 58.5zM69 811q2 6 9.5 9t16.5 3t16 -3t8 -9t-0.5 -12t-2.5 -12
t-0.5 -11.5t6.5 -9.5q7 -5 18.5 -7t24.5 -1t25.5 4.5t20.5 9.5q10 7 10.5 18t2.5 24q1 6 9 9.5t17 3t16 -5.5t6 -14q-2 -19 -5 -34.5t-24 -33.5q-10 -9 -31.5 -14t-44.5 -6t-44 1.5t-30 8.5q-14 9 -20 21t-7.5 23.5t0 21.5t3.5 16z" />
    <glyph glyph-name="ocircumflex" unicode="&#xf4;" horiz-adv-x="372" 
d="M58 637q-13 -10 -23 -38.5t-17.5 -68.5t-11.5 -89t-4.5 -99.5t2.5 -99.5t10 -90.5t18 -71.5t26 -43q27 -22 55.5 -28t56 -1t52 19.5t42.5 34.5q15 16 30.5 58t27.5 97.5t19.5 117.5t6 118.5t-13 102t-36.5 66.5q-26 22 -57 35t-63 15t-63 -6.5t-57 -28.5zM93 598
q13 14 32 20t40.5 4.5t42.5 -9.5t39 -23q27 -22 38.5 -63.5t12.5 -91.5t-6 -103.5t-17.5 -100.5t-22.5 -82t-21 -48q-28 -41 -66.5 -45t-73.5 19q-14 9 -23 47t-14 90.5t-5 113.5t4.5 116t14.5 97.5t25 58.5zM195 817l13.5 -17t17.5 -24l17 -24.5t11 -18.5t-0.5 -14.5
t-11 -11.5t-16.5 -2t-17 15q-17 25 -27.5 42.5t-15.5 17.5q-3 0 -8 -7.5t-10 -17.5l-10.5 -20.5t-8.5 -17.5q-4 -7 -13.5 -9t-18.5 1t-13.5 10.5t1.5 18.5t14 23.5l16 24l14.5 21t10.5 13.5q18 20 31 16t24 -19z" />
    <glyph glyph-name="odieresis" unicode="&#xf6;" horiz-adv-x="372" 
d="M58 637q-13 -10 -23 -38.5t-17.5 -68.5t-11.5 -89t-4.5 -99.5t2.5 -99.5t10 -90.5t18 -71.5t26 -43q27 -22 55.5 -28t56 -1t52 19.5t42.5 34.5q15 16 30.5 58t27.5 97.5t19.5 117.5t6 118.5t-13 102t-36.5 66.5q-26 22 -57 35t-63 15t-63 -6.5t-57 -28.5zM93 598
q13 14 32 20t40.5 4.5t42.5 -9.5t39 -23q27 -22 38.5 -63.5t12.5 -91.5t-6 -103.5t-17.5 -100.5t-22.5 -82t-21 -48q-28 -41 -66.5 -45t-73.5 19q-14 9 -23 47t-14 90.5t-5 113.5t4.5 116t14.5 97.5t25 58.5zM140 729q-8 -9 -18 -7.5t-18.5 9t-12.5 18t0 19.5q3 6 12 10
t19 4t18.5 -4t9.5 -14q1 -6 -1 -16.5t-9 -18.5zM240 729q-8 -9 -18 -7.5t-18.5 9t-12.5 18t0 19.5q3 6 12 10t19 4t18.5 -4t9.5 -14q1 -6 -1 -16.5t-9 -18.5z" />
    <glyph glyph-name="ograve" unicode="&#xf2;" horiz-adv-x="372" 
d="M58 637q26 20 57 28.5t63 6.5t63 -15t57 -35q25 -21 36.5 -66.5t13 -102t-6 -118.5t-19.5 -117.5t-27.5 -97.5t-30.5 -58q-18 -20 -42.5 -34.5t-52 -19.5t-56 1t-55.5 28q-15 13 -26 43t-18 71.5t-10 90.5t-2.5 99.5t4.5 99.5t11.5 89t17.5 68.5t23 38.5zM93 598
q-15 -16 -25 -58.5t-14.5 -97.5t-4.5 -116t5 -113.5t14 -90.5t23 -47q35 -23 73.5 -19t66.5 45q9 13 21 48t22.5 82t17.5 100.5t6 103.5t-12.5 91.5t-38.5 63.5q-18 15 -39 23t-42.5 9.5t-40.5 -4.5t-32 -20zM152 835l34 -49.5l36 -52.5q7 -11 5 -20t-9 -13.5t-16 -3
t-15 11.5l-77 96q-8 9 -5.5 20t10 17.5t18 6.5t19.5 -13z" />
    <glyph glyph-name="ohungarumlaut" unicode="&#x151;" horiz-adv-x="372" 
d="M58 637q26 20 57 28.5t63 6.5t63 -15t57 -35q25 -21 36.5 -66.5t13 -102t-6 -118.5t-19.5 -117.5t-27.5 -97.5t-30.5 -58q-18 -20 -42.5 -34.5t-52 -19.5t-56 1t-55.5 28q-15 13 -26 43t-18 71.5t-10 90.5t-2.5 99.5t4.5 99.5t11.5 89t17.5 68.5t23 38.5zM93 598
q-15 -16 -25 -58.5t-14.5 -97.5t-4.5 -116t5 -113.5t14 -90.5t23 -47q35 -23 73.5 -19t66.5 45q9 13 21 48t22.5 82t17.5 100.5t6 103.5t-12.5 91.5t-38.5 63.5q-18 15 -39 23t-42.5 9.5t-40.5 -4.5t-32 -20zM156 845q9 13 19.5 13t18 -6.5t9.5 -17.5t-5 -20l-77 -96
q-6 -10 -15 -11.5t-16 3t-9.5 13.5t5.5 20l36 52.5zM243 845q9 13 19.5 13t18 -6.5t9.5 -17.5t-5 -20l-77 -96q-6 -10 -15 -11.5t-16 3t-9.5 13.5t5.5 20l36 52.5z" />
    <glyph glyph-name="omacron" unicode="&#x14d;" horiz-adv-x="372" 
d="M58 637q-13 -10 -23 -38.5t-17.5 -68.5t-11.5 -89t-4.5 -99.5t2.5 -99.5t10 -90.5t18 -71.5t26 -43q27 -22 55.5 -28t56 -1t52 19.5t42.5 34.5q15 16 30.5 58t27.5 97.5t19.5 117.5t6 118.5t-13 102t-36.5 66.5q-26 22 -57 35t-63 15t-63 -6.5t-57 -28.5zM93 598
q13 14 32 20t40.5 4.5t42.5 -9.5t39 -23q27 -22 38.5 -63.5t12.5 -91.5t-6 -103.5t-17.5 -100.5t-22.5 -82t-21 -48q-28 -41 -66.5 -45t-73.5 19q-14 9 -23 47t-14 90.5t-5 113.5t4.5 116t14.5 97.5t25 58.5zM71 760q2 4 16 7t34 4.5t43 1.5t43.5 -1t35.5 -3t20 -6
q5 -5 3.5 -14t-9.5 -12q-6 -2 -23.5 -4.5t-41 -3.5t-48 -0.5t-43 3.5t-28 10t-2.5 18z" />
    <glyph glyph-name="oslash" unicode="&#xf8;" horiz-adv-x="372" 
d="M58 637q26 20 57 28.5t63 6.5t63 -15t57 -35q25 -21 36.5 -66.5t13 -102t-6 -118.5t-19.5 -117.5t-27.5 -97.5t-30.5 -58q-18 -20 -42.5 -34.5t-52 -19.5t-56 1t-55.5 28q-15 13 -26 43t-18 71.5t-10 90.5t-2.5 99.5t4.5 99.5t11.5 89t17.5 68.5t23 38.5zM93 598
q-15 -16 -25 -58.5t-14.5 -97.5t-4.5 -116t5 -113.5t14 -90.5t23 -47q35 -23 73.5 -19t66.5 45q9 13 21 48t22.5 82t17.5 100.5t6 103.5t-12.5 91.5t-38.5 63.5q-18 15 -39 23t-42.5 9.5t-40.5 -4.5t-32 -20zM240 669q3 3 10 3.5t15.5 -1.5t15.5 -6t10 -9q3 -6 1.5 -15.5
t-5.5 -22.5t-10 -28.5l-12 -32.5q-4 -11 -16.5 -53.5l-29 -100l-35.5 -121.5l-35.5 -119l-28 -92.5t-14.5 -40.5q-3 -5 -9 -7.5t-11.5 -2t-9.5 5t-4 13.5t3 22.5t7.5 27l8.5 25.5t6 19q1 4 7.5 28.5l16.5 62.5l22 85.5l24.5 96.5l25 95.5l22.5 83.5l16.5 60t8.5 24z" />
    </font>
</defs>
</svg>
